<svg width="253" height="253" viewBox="0 0 253 253" fill="none" xmlns="http://www.w3.org/2000/svg">
<path d="M126.5 31.625V213.469M126.5 213.469C110.983 213.469 96.1189 216.262 82.3831 221.375M126.5 213.469C142.017 213.469 156.881 216.262 170.617 221.375M197.656 52.3921C174.082 49.0831 150.305 47.4276 126.5 47.4375C102.349 47.4375 78.5881 49.1242 55.3438 52.3921M197.656 52.3921C208.303 53.8995 218.845 55.7338 229.281 57.8737M197.656 52.3921L225.275 165.462C226.562 170.722 224.158 176.299 219.066 178.133C212.198 180.598 204.954 181.854 197.656 181.844C190.359 181.854 183.115 180.598 176.246 178.133C171.155 176.299 168.751 170.722 170.027 165.462L197.656 52.4026V52.3921ZM55.3438 52.3921C44.6967 53.8995 34.155 55.7338 23.7188 57.8737M55.3438 52.3921L82.9629 165.462C84.249 170.722 81.8455 176.299 76.7539 178.133C69.8853 180.598 62.6413 181.854 55.3438 181.844C48.0462 181.854 40.8022 180.598 33.9336 178.133C28.842 176.299 26.4385 170.722 27.714 165.462L55.3438 52.4026V52.3921Z" stroke="#7F4F24" stroke-opacity="0.3" stroke-width="8" stroke-linecap="round" stroke-linejoin="round"/>
</svg>
