<svg width="32" height="32" viewBox="0 0 32 32" fill="none" xmlns="http://www.w3.org/2000/svg">
<path fill-rule="evenodd" clip-rule="evenodd" d="M27.1417 27.8283C28.7567 26.3108 30.0433 24.4782 30.9219 22.4437C31.8006 20.4092 32.2526 18.2161 32.25 16C32.25 7.025 24.975 -0.25 16 -0.25C7.02501 -0.25 -0.249989 7.025 -0.249989 16C-0.252553 18.2161 0.199455 20.4092 1.07809 22.4437C1.95673 24.4782 3.24333 26.3108 4.85834 27.8283C7.8699 30.6732 11.8573 32.2556 16 32.25C20.1428 32.2556 24.1301 30.6732 27.1417 27.8283ZM6.24168 25.6867C7.41181 24.2227 8.8967 23.0412 10.5861 22.2299C12.2754 21.4185 14.1259 20.9981 16 21C17.8741 20.9981 19.7246 21.4185 21.414 22.2299C23.1033 23.0412 24.5882 24.2227 25.7583 25.6867C24.4817 26.9762 22.9618 27.9993 21.2866 28.6969C19.6115 29.3944 17.8146 29.7523 16 29.75C14.1855 29.7523 12.3885 29.3944 10.7134 28.6969C9.03826 27.9993 7.5183 26.9762 6.24168 25.6867ZM22.25 11C22.25 12.6576 21.5915 14.2473 20.4194 15.4194C19.2473 16.5915 17.6576 17.25 16 17.25C14.3424 17.25 12.7527 16.5915 11.5806 15.4194C10.4085 14.2473 9.75001 12.6576 9.75001 11C9.75001 9.3424 10.4085 7.75268 11.5806 6.58058C12.7527 5.40848 14.3424 4.75 16 4.75C17.6576 4.75 19.2473 5.40848 20.4194 6.58058C21.5915 7.75268 22.25 9.3424 22.25 11Z" fill="black"/>
</svg>
