<svg width="28" height="27" viewBox="0 0 28 27" fill="none" xmlns="http://www.w3.org/2000/svg">
<path d="M14.0001 26.8327C12.1779 26.8327 10.4556 26.4825 8.83342 25.782C7.21119 25.0816 5.7943 24.126 4.58275 22.9153C3.37208 21.7047 2.41653 20.2882 1.71608 18.666C1.01564 17.0438 0.665861 15.3216 0.66675 13.4993C0.66675 11.6549 1.01697 9.92691 1.71742 8.31535C2.41786 6.70379 3.37342 5.29313 4.58408 4.08335C5.79475 2.87179 7.21075 1.91624 8.83208 1.21668C10.4534 0.517127 12.1761 0.166905 14.0001 0.166016C15.8445 0.166016 17.5725 0.516238 19.1841 1.21668C20.7956 1.91713 22.2063 2.87268 23.4161 4.08335C24.6276 5.29402 25.5832 6.70513 26.2828 8.31668C26.9823 9.92824 27.3325 11.6558 27.3334 13.4993V15.4327C27.3334 16.7438 26.8836 17.8607 25.9841 18.7833C25.0845 19.706 23.9788 20.1669 22.6668 20.166C21.8668 20.166 21.1223 19.9882 20.4334 19.6327C19.7445 19.2771 19.1779 18.8105 18.7334 18.2327C18.1334 18.8327 17.4276 19.3051 16.6161 19.65C15.8045 19.9949 14.9325 20.1669 14.0001 20.166C12.1556 20.166 10.5832 19.5158 9.28275 18.2153C7.98231 16.9149 7.33253 15.3429 7.33342 13.4993C7.33342 11.6549 7.98364 10.0825 9.28408 8.78202C10.5845 7.48157 12.1565 6.83179 14.0001 6.83268C15.8445 6.83268 17.417 7.4829 18.7174 8.78335C20.0179 10.0838 20.6676 11.6558 20.6667 13.4993V15.4327C20.6667 16.0771 20.8668 16.5825 21.2668 16.9487C21.6668 17.3149 22.1334 17.4985 22.6668 17.4993C23.2001 17.4993 23.6667 17.3158 24.0667 16.9487C24.4668 16.5816 24.6668 16.0762 24.6668 15.4327V13.4993C24.6668 10.5882 23.6165 8.08246 21.5161 5.98202C19.4156 3.88157 16.9103 2.83179 14.0001 2.83268C11.089 2.83268 8.58319 3.8829 6.48275 5.98335C4.38231 8.08379 3.33253 10.5891 3.33342 13.4993C3.33342 16.4105 4.38364 18.9162 6.48408 21.0167C8.58453 23.1171 11.0899 24.1669 14.0001 24.166H19.3334C19.7112 24.166 20.0281 24.294 20.2841 24.55C20.5401 24.806 20.6676 25.1225 20.6667 25.4993C20.6667 25.8771 20.5387 26.194 20.2827 26.45C20.0268 26.706 19.7103 26.8336 19.3334 26.8327H14.0001ZM14.0001 17.4993C15.1112 17.4993 16.0556 17.1105 16.8334 16.3327C17.6112 15.5549 18.0001 14.6105 18.0001 13.4993C18.0001 12.3882 17.6112 11.4438 16.8334 10.666C16.0556 9.88824 15.1112 9.49935 14.0001 9.49935C12.889 9.49935 11.9445 9.88824 11.1667 10.666C10.389 11.4438 10.0001 12.3882 10.0001 13.4993C10.0001 14.6105 10.389 15.5549 11.1667 16.3327C11.9445 17.1105 12.889 17.4993 14.0001 17.4993Z" fill="#3A1F09"/>
</svg>
