<svg width="57" height="40" viewBox="0 0 57 40" fill="none" xmlns="http://www.w3.org/2000/svg">
<g clip-path="url(#clip0_62_827)">
<path d="M28.9465 22.8052C28.9991 22.8448 29.0397 22.8805 29.0843 22.9092C29.2071 22.9895 29.3002 23.0945 29.3626 23.2262C29.3973 23.2976 29.3884 23.3412 29.3319 23.3976C29.2873 23.4412 29.2398 23.4819 29.2002 23.5175C29.1922 23.6176 29.2388 23.683 29.2824 23.7484C29.5043 24.0783 29.7995 24.3032 30.1968 24.3725C30.282 24.3874 30.3504 24.4072 30.3781 24.4963C30.4088 24.5954 30.3999 24.6885 30.3167 24.7559C30.2503 24.8094 30.177 24.8619 30.0987 24.8946C29.8045 25.0155 29.4974 25.0888 29.1784 25.1066C28.9971 25.1165 28.8158 25.1403 28.6345 25.1453C28.4294 25.1512 28.2223 25.1562 28.0182 25.1393C27.83 25.1245 27.6428 25.0868 27.4575 25.0472C27.2485 25.0026 27.0424 24.9481 26.8363 24.8906C26.7531 24.8669 26.6758 24.8243 26.5966 24.7896C26.5223 24.7569 26.4965 24.6955 26.4916 24.6182C26.4807 24.4389 26.5163 24.4012 26.6976 24.3844C27.0483 24.3497 27.3267 24.1803 27.5377 23.9049C27.619 23.7989 27.6745 23.674 27.7339 23.57C27.723 23.4442 27.6091 23.4145 27.5615 23.3233C27.6824 23.1282 27.7716 22.9062 27.9905 22.7596C27.94 22.6893 27.8994 22.6239 27.8518 22.5654C27.4734 22.1018 27.4417 21.5906 27.6388 21.0467C27.7101 20.8495 27.833 20.6851 27.9598 20.5226C27.9836 20.4929 28.0044 20.4612 28.0341 20.4206C27.9489 20.3859 27.8766 20.3601 27.8072 20.3274C27.7418 20.2977 27.7191 20.2442 27.725 20.1719C27.7329 20.0649 27.7626 19.9609 27.8409 19.8935C27.9479 19.8023 27.9469 19.6904 27.9469 19.5705C27.9459 19.0157 27.943 18.4619 27.9469 17.9071C27.9529 17.1314 27.9628 16.3557 27.9727 15.5799C27.9796 15.0499 27.9935 14.5199 28.0004 13.9888C28.0113 13.0784 28.0192 12.1679 28.0282 11.2575C28.0282 11.2178 28.0242 11.1792 28.0222 11.1396C27.9816 11.088 27.937 11.0415 27.9053 10.988C27.8776 10.9414 27.8558 10.8879 27.8459 10.8344C27.8251 10.7225 27.8647 10.6561 27.9687 10.6066C28.0093 10.5877 28.0519 10.5729 28.0896 10.559C28.0886 10.4797 28.04 10.4708 27.9945 10.4629C27.9221 10.45 27.8835 10.4064 27.8736 10.3361C27.8637 10.2658 27.8538 10.1954 27.8498 10.1241C27.8389 9.94278 27.832 9.76049 27.8241 9.58018C27.7904 9.54848 27.7646 9.51677 27.7329 9.49597C27.2921 9.20866 26.8225 8.98476 26.3053 8.87182C25.7644 8.75393 25.2254 8.74105 24.6835 8.88866C24.2317 9.0125 23.7978 9.18191 23.3698 9.36916C22.8685 9.58811 22.3534 9.76841 21.8144 9.87046C21.644 9.90315 21.4696 9.92098 21.2963 9.9299C21.1744 9.93585 21.0843 9.97845 21.0179 10.0755C21.0625 10.2975 21.0625 10.2975 20.9693 10.5412C20.9901 10.5927 21.0109 10.6521 21.0367 10.7096C21.2309 11.1336 21.426 11.5576 21.6192 11.9827C21.9254 12.6514 22.2275 13.3221 22.5366 13.9898C22.7625 14.4783 22.9973 14.9617 23.2222 15.4501C23.5888 16.2487 23.9504 17.0492 24.314 17.8487C24.52 18.3024 24.7261 18.7562 24.9342 19.2139C24.954 19.2198 24.9748 19.2307 24.9966 19.2327C25.1501 19.2475 25.2086 19.3298 25.159 19.4645C25.1482 19.4932 25.1353 19.5299 25.1115 19.5448C24.9669 19.6319 24.9153 19.7885 24.8291 19.9173C24.6379 20.2026 24.413 20.4562 24.1584 20.6831C23.9761 20.8456 23.782 20.9991 23.5799 21.1358C23.0825 21.4717 22.5307 21.6847 21.9442 21.8066C21.5469 21.8888 21.1457 21.9205 20.7415 21.9116C20.4968 21.9056 20.2501 21.9086 20.0064 21.8848C19.4268 21.8274 18.8769 21.6679 18.3519 21.4083C17.7347 21.1032 17.2413 20.6573 16.8083 20.1352C16.7628 20.0807 16.7212 20.0213 16.6895 19.9589C16.6181 19.8162 16.521 19.6934 16.417 19.5745C16.3813 19.5329 16.3457 19.4883 16.3229 19.4397C16.2763 19.3397 16.3239 19.2555 16.4339 19.2297C16.4636 19.2228 16.4943 19.2198 16.5319 19.2149C16.6102 19.0484 16.6875 18.8849 16.7628 18.7195C17.0402 18.1152 17.3176 17.5108 17.594 16.9065C17.8902 16.2586 18.1834 15.6097 18.4826 14.9637C18.6758 14.5476 18.8789 14.1355 19.0741 13.7204C19.192 13.4697 19.3059 13.2171 19.4189 12.9645C19.6725 12.3928 19.9221 11.8212 20.1748 11.2495C20.2521 11.0762 20.3323 10.9038 20.4175 10.7334C20.467 10.6343 20.4779 10.5392 20.4304 10.4381C20.3967 10.3658 20.3927 10.2935 20.4066 10.2093C20.4324 10.0518 20.3848 9.919 20.2283 9.83281C19.9935 9.70303 19.8181 9.51479 19.7151 9.26117C19.4902 8.70736 19.8023 8.16148 20.2709 8.00197C20.6265 7.88111 21.0337 8.06934 21.1912 8.43293C21.2517 8.57362 21.2873 8.71727 21.2319 8.87083C21.1843 9.00259 21.1051 9.10761 20.9842 9.17795C20.8653 9.2473 20.689 9.23244 20.581 9.14625C20.5086 9.08879 20.5077 8.99665 20.5859 8.9481C20.6384 8.91541 20.7018 8.89956 20.7593 8.8738C20.8425 8.83715 20.8742 8.76879 20.8514 8.68061C20.796 8.4577 20.5413 8.35665 20.3462 8.4795C20.1936 8.57659 20.1173 8.7143 20.1193 8.89659C20.1223 9.18092 20.3174 9.41671 20.5938 9.46427C20.6642 9.47615 20.7355 9.48111 20.8049 9.49795C20.9753 9.53857 21.1338 9.49993 21.2903 9.43653C21.3854 9.39789 21.4795 9.35628 21.5776 9.32953C21.9779 9.22352 22.3543 9.06006 22.7179 8.86588C23.0181 8.70538 23.3163 8.54191 23.6185 8.38439C23.9553 8.20804 24.3001 8.05151 24.6617 7.92965C25.1432 7.76817 25.6356 7.72755 26.1379 7.78006C26.657 7.83355 27.1375 8.0099 27.6002 8.2447C27.6428 8.2665 27.6834 8.29027 27.727 8.31009C27.7399 8.31603 27.7567 8.31405 27.7735 8.31504C27.8191 8.2982 27.8211 8.25758 27.8191 8.21795C27.8171 8.1704 27.8092 8.12284 27.8092 8.07628C27.8092 7.97225 27.8389 7.88705 27.9618 7.87417C27.9697 7.87318 27.9776 7.8712 27.9846 7.86823C28.0668 7.83256 28.0727 7.76519 27.9994 7.70575C27.9816 7.69089 27.9568 7.68297 27.939 7.66811C27.8211 7.57002 27.8161 7.41448 27.937 7.32433C27.9994 7.27875 28.0767 7.253 28.147 7.21832C28.1738 7.20544 28.2005 7.19454 28.2511 7.17374C28.1896 7.12024 28.147 7.07665 28.0995 7.04198C27.8469 6.85671 27.7171 6.60606 27.6963 6.29597C27.6804 6.06216 27.7488 5.85708 27.9132 5.68965C28.0073 5.59355 28.1064 5.5034 28.2085 5.40532C28.2085 5.32606 28.2075 5.2478 28.2085 5.16854C28.2095 5.11306 28.2104 5.05758 28.2204 5.00309C28.2412 4.87925 28.2976 4.81684 28.3917 4.80396C28.5334 4.78414 28.6335 4.83269 28.684 4.95058C28.7226 5.03975 28.7325 5.13386 28.7177 5.22996C28.6959 5.36965 28.7425 5.47467 28.8594 5.5569C28.9238 5.60148 28.9792 5.65993 29.0327 5.71838C29.3458 6.06117 29.2973 6.49906 29.0654 6.80619C28.9991 6.89337 28.9109 6.96272 28.8326 7.04098C28.789 7.08458 28.7454 7.12718 28.689 7.18365C28.7325 7.21733 28.7583 7.25002 28.791 7.25993C28.9158 7.29956 28.9882 7.38476 29.0268 7.50563C29.0208 7.58885 28.9465 7.61857 28.898 7.66612C28.8504 7.71269 28.8237 7.76519 28.8306 7.81869C28.8445 7.8395 28.8475 7.84941 28.8534 7.85238C29.0734 7.95442 29.0734 7.95442 29.0823 8.19714C29.0833 8.22885 29.0882 8.25956 29.0922 8.29126C29.0932 8.29721 29.1011 8.30216 29.116 8.31801C29.1982 8.31999 29.2705 8.26749 29.3468 8.23083C29.6034 8.106 29.86 7.98018 30.1344 7.9029C30.7883 7.71863 31.4421 7.69981 32.099 7.90489C32.4933 8.02872 32.8698 8.19318 33.2353 8.38241C33.5444 8.5429 33.8506 8.70736 34.1557 8.8738C34.4351 9.02538 34.7254 9.15021 35.0216 9.26117C35.1623 9.31368 35.3099 9.34637 35.4535 9.38996C35.5447 9.41671 35.6358 9.44445 35.724 9.47615C35.9509 9.55739 36.1748 9.53659 36.3987 9.46427C36.6444 9.38501 36.8386 9.06105 36.8187 8.77968C36.8039 8.55975 36.5255 8.3725 36.3095 8.42897C36.1738 8.46464 36.0965 8.56272 36.0648 8.69349C36.0579 8.72321 36.0797 8.77176 36.1044 8.79653C36.1599 8.85399 36.2293 8.88668 36.3095 8.9065C36.4007 8.92928 36.4165 9.01745 36.3541 9.09176C36.263 9.19975 36.0965 9.23046 35.9647 9.16408C35.7369 9.04817 35.6071 8.72718 35.7072 8.49238C35.7567 8.37845 35.83 8.27145 35.9083 8.17337C36.0777 7.96235 36.4403 7.89795 36.6919 8.00297C37.3072 8.25956 37.4825 9.05015 37.0268 9.54352C36.9307 9.64854 36.8286 9.7486 36.7008 9.81696C36.5572 9.89423 36.5057 10.0201 36.5245 10.1756C36.5354 10.2648 36.5334 10.35 36.4948 10.4312C36.4571 10.5105 36.469 10.5848 36.5027 10.6601C36.577 10.8255 36.6503 10.9919 36.7256 11.1574C36.9812 11.7191 37.2358 12.2819 37.4934 12.8426C37.7708 13.4469 38.0522 14.0493 38.3296 14.6526C38.5644 15.1628 38.7952 15.675 39.029 16.1853C39.3124 16.8035 39.5997 17.4207 39.881 18.0399C40.0386 18.3856 40.1872 18.7344 40.3407 19.0811C40.3566 19.1168 40.3724 19.1524 40.3912 19.195C40.4299 19.2049 40.4665 19.2158 40.5042 19.2248C40.6379 19.2584 40.6835 19.3526 40.6201 19.4685C40.6092 19.4893 40.5963 19.514 40.5785 19.5249C40.4547 19.5993 40.419 19.736 40.3427 19.844C40.2476 19.9797 40.1456 20.1114 40.0415 20.2402C39.6413 20.7346 39.142 21.1012 38.5822 21.3964C38.0343 21.6847 37.4459 21.8363 36.8376 21.8977C36.4135 21.9403 35.9846 21.9304 35.5576 21.8779C35.1157 21.8234 34.6838 21.7263 34.2667 21.5777C33.6712 21.3657 33.1382 21.0437 32.6805 20.6038C32.4338 20.3661 32.2179 20.1065 32.0495 19.8063C31.9999 19.7171 31.9286 19.6409 31.8652 19.5596C31.8414 19.5279 31.8097 19.5022 31.7889 19.4695C31.7324 19.3803 31.7691 19.2802 31.8721 19.2406C31.9088 19.2267 31.9484 19.2228 31.9989 19.2119C32.0633 19.0821 32.1386 18.9523 32.1961 18.8146C32.5834 17.8873 33.0203 16.9828 33.4444 16.0713C33.7614 15.3897 34.0824 14.7101 34.3945 14.0265C34.6372 13.4945 34.868 12.9555 35.1088 12.4225C35.3109 11.9757 35.5219 11.5329 35.727 11.0871C35.7963 10.9365 35.8637 10.7849 35.9321 10.6333C35.9657 10.558 35.9826 10.4778 35.9281 10.4074C35.8429 10.2984 35.8746 10.2023 35.9538 10.1102C35.8825 9.98043 35.7805 9.93287 35.6408 9.9299C35.2346 9.91999 34.8383 9.84866 34.4559 9.71293C34.0388 9.56433 33.6277 9.39888 33.2116 9.24928C32.8252 9.10959 32.4457 8.95207 32.0405 8.86389C31.4937 8.74501 30.9587 8.7678 30.4227 8.91838C29.9521 9.05114 29.5271 9.27108 29.1229 9.53956C29.11 9.54848 29.1021 9.56334 29.0833 9.58414C29.0753 9.73968 29.0674 9.90513 29.0585 10.0706C29.0555 10.1261 29.0545 10.1815 29.0476 10.236C29.0317 10.3609 28.9882 10.4669 28.8445 10.4936C28.8277 10.4966 28.8148 10.5223 28.8019 10.5362C28.8197 10.5947 28.8653 10.5808 28.901 10.5907C29.0109 10.6214 29.0446 10.664 29.0565 10.769C29.0694 10.879 29.0367 10.9781 28.9604 11.0514C28.8821 11.1257 28.8703 11.2109 28.8732 11.309C28.8891 11.9737 28.903 12.6385 28.9168 13.3033C28.9178 13.3429 28.9208 13.3825 28.9208 13.4222C28.9267 14.0711 28.9109 14.721 28.9456 15.3689C28.9792 16.002 28.9446 16.635 28.9931 17.2671C28.9971 17.3147 28.9951 17.3622 28.9951 17.4098C28.9951 18.0587 28.9961 18.7086 28.9931 19.3575C28.9931 19.4833 28.9802 19.6092 28.9723 19.7528C29.0119 19.7855 29.0634 19.8142 29.0942 19.8568C29.1437 19.9262 29.1932 20.0015 29.22 20.0827C29.2665 20.2254 29.213 20.3096 29.0684 20.3492C29.009 20.3661 28.9485 20.3789 28.8722 20.3978C28.903 20.4443 28.9257 20.475 28.9456 20.5077C29.0585 20.689 29.1883 20.8614 29.2804 21.0526C29.4795 21.4677 29.4954 21.8927 29.2745 22.3069C29.2041 22.4386 29.109 22.5565 29.0248 22.6814C29.006 22.72 28.9792 22.7576 28.9465 22.8052ZM32.2159 19.5269C32.4338 19.6399 32.6647 19.6706 32.8866 19.7162C33.4057 19.8241 33.9298 19.9064 34.4579 19.9529C34.9701 19.9975 35.4833 20.0332 35.9974 20.0342C36.3848 20.0352 36.7712 20.0272 37.1586 20.0153C37.6579 20.0005 38.1522 19.945 38.6476 19.8875C39.0805 19.837 39.5016 19.7261 39.9256 19.628C40.0029 19.6101 40.0792 19.5884 40.1525 19.5616C40.2 19.5448 40.2327 19.5022 40.2228 19.4506C40.202 19.3427 40.2099 19.2327 40.1604 19.1267C39.991 18.7611 39.8335 18.3906 39.666 18.024C39.4956 17.6495 39.3025 17.2849 39.1479 16.9045C38.8556 16.1853 38.4901 15.4997 38.176 14.7913C38.0066 14.4079 37.8134 14.0354 37.6391 13.654C37.3864 13.1002 37.1407 12.5424 36.8921 11.9856C36.8148 11.8123 36.7425 11.6369 36.6612 11.4655C36.5602 11.2505 36.4571 11.0365 36.3482 10.8265C36.2877 10.7096 36.154 10.7106 36.0826 10.8225C36.0618 10.8552 36.047 10.8929 36.0301 10.9285C35.9251 11.1584 35.8201 11.3892 35.7141 11.6191C35.2901 12.5384 34.8641 13.4578 34.441 14.3782C34.23 14.8379 34.0229 15.3005 33.8129 15.7612C33.6752 16.0634 33.5385 16.3666 33.3978 16.6667C33.274 16.9323 33.1452 17.1948 33.0203 17.4603C32.7647 18.0042 32.5101 18.5491 32.2555 19.094C32.1931 19.2267 32.1782 19.3654 32.2159 19.5269ZM21.1407 20.0451C21.1407 20.0401 21.1407 20.0362 21.1417 20.0312C21.3161 20.0243 21.4895 20.0144 21.6638 20.0124C22.1552 20.0064 22.6426 19.9579 23.1281 19.8866C23.4412 19.84 23.7512 19.7786 24.0613 19.7171C24.2397 19.6815 24.416 19.6359 24.5914 19.5884C24.733 19.5497 24.7727 19.4873 24.7568 19.3466C24.7529 19.308 24.742 19.2684 24.7271 19.2327C24.6171 18.9701 24.5111 18.7056 24.3932 18.4471C24.2317 18.0953 24.0564 17.7486 23.8929 17.3979C23.6551 16.8897 23.4233 16.3784 23.1875 15.8682C22.8963 15.2362 22.601 14.6051 22.3117 13.972C21.854 12.9724 21.4003 11.9708 20.9436 10.9701C20.9178 10.9127 20.8851 10.8582 20.8584 10.8007C20.8247 10.7254 20.6949 10.7136 20.6345 10.7829C20.6147 10.8057 20.6028 10.8374 20.5899 10.8651C20.5265 11.0019 20.4641 11.1386 20.4026 11.2753C20.1451 11.844 19.8885 12.4146 19.6289 12.9823C19.3991 13.4856 19.1662 13.9888 18.9334 14.4911C18.7571 14.8716 18.5768 15.25 18.3984 15.6295C18.3449 15.7444 18.2875 15.8573 18.234 15.9723C17.8932 16.7034 17.5504 17.4336 17.2125 18.1657C17.0867 18.4381 16.9669 18.7136 16.849 18.99C16.8054 19.091 16.7727 19.197 16.74 19.302C16.6974 19.4368 16.7202 19.4932 16.848 19.5458C16.9351 19.5814 17.0263 19.6111 17.1184 19.6329C17.8516 19.8023 18.5926 19.9202 19.3416 19.9797C19.6249 20.0025 19.9103 20.0054 20.1946 20.0163C20.5086 20.0262 20.8247 20.0352 21.1407 20.0451Z" fill="black"/>
<path d="M31.2371 38.1612C31.3461 38.2009 31.4501 38.182 31.5511 38.186C31.6304 38.189 31.7097 38.184 31.7889 38.189C31.9286 38.1989 31.9702 38.2415 31.9781 38.3792C31.9831 38.4733 31.9831 38.5674 31.9861 38.6734C32.0376 38.6853 32.0812 38.7031 32.1248 38.7041C32.2991 38.7081 32.4735 38.7061 32.6479 38.7061C32.7033 38.7061 32.7588 38.7041 32.8143 38.7121C32.9054 38.724 32.957 38.7765 32.9669 38.8666C32.9738 38.929 32.9718 38.9934 32.9718 39.0568C32.9718 39.2946 32.9748 39.5324 32.9708 39.7692C32.9679 39.9435 32.9173 39.9901 32.741 39.998C32.6855 40.001 32.63 39.999 32.5745 39.999C29.8818 39.999 27.189 39.999 24.4963 39.999C24.425 39.999 24.3536 40.002 24.2823 39.996C24.1525 39.9851 24.099 39.9326 24.096 39.7979C24.0911 39.5601 24.0941 39.3223 24.0941 39.0856C24.0941 39.0142 24.0921 38.9429 24.098 38.8716C24.1059 38.7794 24.1565 38.723 24.2456 38.7131C24.3239 38.7041 24.4041 38.7081 24.4824 38.7061C24.6706 38.7002 24.8609 38.722 25.0531 38.6893C25.1046 38.5892 25.0759 38.4842 25.0838 38.3841C25.0937 38.2474 25.1353 38.1969 25.269 38.189C25.4107 38.181 25.5524 38.182 25.7 38.1801C25.7198 38.1275 25.7367 38.0849 25.7525 38.0423C25.8516 37.7778 26.0289 37.649 26.3073 37.6411C26.4103 37.6381 26.5134 37.6401 26.6164 37.6401C27.8994 37.6401 29.1824 37.6401 30.4653 37.6401C30.5287 37.6401 30.5921 37.6391 30.6555 37.6411C30.924 37.647 31.1004 37.7828 31.1965 38.0285C31.2123 38.0711 31.2232 38.1166 31.2371 38.1612Z" fill="black"/>
<path d="M30.5584 24.8302C30.9091 24.9035 31.2727 24.9759 31.6343 25.0581C31.7255 25.0789 31.8117 25.1245 31.8949 25.169C31.9415 25.1948 31.9969 25.2344 32.0128 25.28C32.0613 25.4177 32.1673 25.49 32.2823 25.5604C32.3358 25.5931 32.3823 25.6376 32.4328 25.6753C32.5121 25.7337 32.5646 25.812 32.6023 25.9002C32.6974 26.1162 32.6409 26.3133 32.4358 26.4292C32.306 26.5025 32.1663 26.562 32.0237 26.6085C31.564 26.7591 31.0914 26.8493 30.6109 26.9008C29.7698 26.991 28.9257 27.0425 28.0787 27.0246C27.6764 27.0167 27.2742 26.987 26.872 26.9543C26.5411 26.9276 26.2122 26.8879 25.8833 26.8414C25.4523 26.7809 25.0283 26.6848 24.627 26.5075C24.4824 26.4431 24.3387 26.3757 24.2773 26.2093C24.2545 26.1469 24.2426 26.0904 24.2654 26.026C24.3338 25.8358 24.4289 25.6664 24.6122 25.5624C24.6676 25.5316 24.7231 25.5009 24.7746 25.4653C24.8054 25.4435 24.843 25.4167 24.8529 25.384C24.9173 25.1799 25.0986 25.1185 25.268 25.071C25.6098 24.9759 25.9595 24.9095 26.3053 24.8253C26.3756 24.8084 26.4291 24.8312 26.4846 24.8599C26.5966 24.9184 26.7065 24.9808 26.8205 25.0363C27.1375 25.1908 27.4743 25.2612 27.8231 25.2988C28.4908 25.3721 29.1486 25.2968 29.8045 25.1829C29.9511 25.1572 30.0977 25.1096 30.2335 25.0492C30.3415 25.0016 30.4316 24.9184 30.5584 24.8302Z" fill="black"/>
<path d="M36.9891 34.8532C37.9501 34.8612 38.7813 35.2287 39.4659 35.9321C39.6839 36.156 39.8523 36.4126 39.9177 36.7257C39.9791 37.0189 39.887 37.2587 39.6393 37.4251C39.458 37.548 39.2529 37.6035 39.0389 37.6312C38.7179 37.6728 38.4088 37.6153 38.1067 37.5074C37.8441 37.4132 37.6024 37.2795 37.3735 37.122C37.1645 36.9793 36.9565 36.8347 36.7444 36.696C36.5037 36.5394 36.2431 36.4255 35.9588 36.373C35.7319 36.3304 35.5031 36.3254 35.2732 36.3403C35.1395 36.3492 35.0048 36.3641 34.871 36.3661C34.7729 36.368 34.7244 36.3066 34.7432 36.2105C34.8007 35.9143 34.9404 35.6617 35.1603 35.4536C35.4139 35.2139 35.7191 35.0692 36.0509 34.9751C36.3482 34.8919 36.6543 34.8592 36.9891 34.8532Z" fill="#3D2E2A"/>
<path d="M22.2107 36.3235C22.1354 36.3899 22.0472 36.3651 21.961 36.3621C21.7242 36.3552 21.4865 36.3413 21.2497 36.3473C20.9693 36.3542 20.7008 36.4325 20.4571 36.5682C20.2501 36.6841 20.0539 36.8188 19.8538 36.9447C19.6269 37.0883 19.406 37.2439 19.1712 37.3726C18.8918 37.5262 18.5886 37.6164 18.2677 37.6411C18.0269 37.659 17.7931 37.6282 17.5682 37.543C17.487 37.5123 17.4077 37.4747 17.3354 37.4271C17.0481 37.2379 16.9976 36.9496 17.052 36.7287C17.1075 36.5008 17.2066 36.2967 17.3512 36.1154C17.6881 35.6934 18.1091 35.3773 18.6005 35.1554C19.3683 34.8087 20.1589 34.769 20.9654 34.99C21.2655 35.0722 21.54 35.2119 21.7758 35.4209C21.9828 35.6042 22.1245 35.8291 22.2037 36.0926C22.2246 36.1679 22.2473 36.2442 22.2107 36.3235Z" fill="#3D2E2A"/>
<path d="M42.4559 31.7533C43.0176 31.7523 43.5566 31.893 44.0599 32.1615C44.1986 32.2358 44.3254 32.3319 44.4522 32.427C44.5731 32.5181 44.6682 32.636 44.7445 32.7668C44.902 33.0353 44.8831 33.2939 44.683 33.5356C44.5007 33.7565 44.261 33.8893 43.9935 33.9785C43.6477 34.0944 43.2931 34.1063 42.9384 34.0438C42.6897 34.0002 42.446 33.9289 42.2013 33.8665C42.0249 33.8219 41.8506 33.7714 41.6752 33.7238C41.2403 33.6069 40.8133 33.6456 40.3923 33.7882C40.2654 33.8318 40.1426 33.8863 40.0178 33.9378C39.9662 33.9586 39.9187 33.9874 39.8662 34.0062C39.7483 34.0478 39.6839 34.0072 39.672 33.8804C39.6433 33.5733 39.6958 33.284 39.8612 33.0165C40.0663 32.6846 40.3506 32.4369 40.6815 32.2427C41.2264 31.9267 41.811 31.7513 42.4559 31.7533Z" fill="#3D2E2A"/>
<path d="M14.5188 31.7533C15.2519 31.7583 15.9187 31.9742 16.5181 32.3953C16.7677 32.5707 16.9718 32.7876 17.1284 33.0502C17.2849 33.3117 17.3305 33.596 17.2958 33.8952C17.2829 34.0072 17.2195 34.0458 17.1135 34.0092C17.054 33.9894 16.9976 33.9586 16.9401 33.9319C16.7023 33.8209 16.4557 33.7397 16.1981 33.6892C15.8236 33.6159 15.458 33.6694 15.0964 33.7714C14.8913 33.8289 14.6862 33.8913 14.4812 33.9497C14.1443 34.0458 13.8015 34.0973 13.4498 34.0716C13.1368 34.0488 12.8445 33.9596 12.579 33.7912C12.4571 33.7139 12.3492 33.6218 12.264 33.5059C12.0916 33.2721 12.0708 33.0284 12.2214 32.7747C12.3155 32.6162 12.4373 32.4835 12.584 32.3715C12.9158 32.1159 13.2963 31.9633 13.6955 31.8573C13.965 31.786 14.2394 31.7513 14.5188 31.7533Z" fill="#3D2E2A"/>
<path d="M44.8643 33.7763C44.9426 33.8754 44.9287 33.9646 44.9228 34.0498C44.894 34.4669 44.7286 34.8295 44.47 35.1505C44.149 35.5497 43.7359 35.8202 43.2584 35.9936C42.4014 36.3056 41.5514 36.2818 40.7162 35.9163C40.3546 35.7578 40.0534 35.517 39.8404 35.1772C39.7374 35.0137 39.67 34.8404 39.67 34.6422C39.669 34.3945 39.778 34.2182 39.9989 34.1102C40.2763 33.9745 40.5696 33.9329 40.8757 33.9596C41.2819 33.9953 41.6614 34.134 42.0467 34.2499C42.2657 34.3163 42.4866 34.3797 42.7095 34.4302C43.2425 34.5501 43.7478 34.4609 44.2223 34.2004C44.3878 34.1092 44.5404 33.9943 44.6989 33.8903C44.7504 33.8556 44.8009 33.8199 44.8643 33.7763Z" fill="#3D2E2A"/>
<path d="M12.1025 33.7744C12.1708 33.8209 12.2214 33.8556 12.2729 33.8903C12.4106 33.9824 12.5433 34.0825 12.687 34.1657C13.2408 34.4896 13.8303 34.563 14.4475 34.3906C14.7675 34.3014 15.0835 34.2023 15.4005 34.1023C15.6353 34.028 15.8751 33.9804 16.1198 33.9566C16.4091 33.9289 16.6885 33.9765 16.951 34.0983C17.2076 34.2162 17.3126 34.4035 17.2997 34.6878C17.2918 34.8582 17.2324 35.0118 17.1452 35.1554C16.9986 35.3961 16.8024 35.5883 16.5686 35.7429C16.3219 35.9064 16.0534 36.0193 15.7681 36.0916C14.921 36.3086 14.1047 36.2244 13.328 35.8212C12.8762 35.5864 12.5126 35.2525 12.2699 34.7987C12.1421 34.559 12.0589 34.3054 12.0519 34.03C12.049 33.9537 12.0391 33.8744 12.1025 33.7744Z" fill="#3D2E2A"/>
<path d="M17.2522 37.7243C17.3305 37.7471 17.3899 37.764 17.4493 37.7838C17.7753 37.8898 18.1092 37.9492 18.4529 37.9453C18.8651 37.9403 19.2534 37.8472 19.6002 37.6154C19.7775 37.4965 19.9549 37.3766 20.1302 37.2548C20.2927 37.1418 20.4522 37.0239 20.6167 36.9139C20.8207 36.7762 21.0407 36.6673 21.2735 36.586C21.5023 36.5058 21.7381 36.4879 21.9759 36.5127C22.2315 36.5404 22.4098 36.7039 22.4703 36.9565C22.5466 37.2756 22.4614 37.5688 22.3118 37.8472C22.1255 38.1969 21.857 38.4753 21.5311 38.6952C20.8445 39.1589 20.0886 39.3739 19.2594 39.2936C18.8116 39.251 18.3905 39.1203 18.015 38.8647C17.6881 38.6417 17.4275 38.3594 17.2809 37.9849C17.2462 37.8948 17.2462 37.8948 17.2522 37.7243Z" fill="#3D2E2A"/>
<path d="M39.7513 37.7303C39.7324 37.8214 39.7265 37.8829 39.7067 37.9393C39.5928 38.2613 39.3857 38.5179 39.1271 38.7349C38.8626 38.9568 38.5585 39.1113 38.2256 39.1946C37.0744 39.4829 36.049 39.2174 35.1484 38.4595C34.8601 38.2167 34.6471 37.9126 34.5322 37.547C34.4767 37.3707 34.4619 37.1904 34.4896 37.0081C34.5332 36.7237 34.7264 36.5355 35.0097 36.5087C35.2564 36.485 35.4991 36.5087 35.7339 36.5959C35.9796 36.6871 36.2105 36.8079 36.4245 36.9585C36.6444 37.1131 36.8624 37.2706 37.0823 37.4242C37.1724 37.4876 37.2676 37.546 37.3597 37.6065C37.8481 37.9274 38.3871 37.9958 38.9518 37.9116C39.1776 37.8779 39.4055 37.8422 39.6175 37.7471C39.6463 37.7362 39.6799 37.7392 39.7513 37.7303Z" fill="#3D2E2A"/>
<path d="M47.3441 29.5282C47.0974 29.5074 46.9161 29.4955 46.7358 29.4777C46.175 29.4222 45.6718 29.5708 45.218 29.8977C45.1407 29.9532 45.0664 30.0126 44.9862 30.0622C44.9139 30.1068 44.8455 30.081 44.8168 29.9978C44.7316 29.7511 44.7336 29.5014 44.8009 29.2518C44.8772 28.9714 45.0268 28.7287 45.2259 28.5216C46.0849 27.629 47.1212 27.3377 48.3199 27.6379C48.5429 27.6934 48.7549 27.7855 48.9322 27.9391C48.9976 27.9956 49.062 28.057 49.1125 28.1263C49.2264 28.2829 49.2522 28.4572 49.1908 28.6435C49.1502 28.7653 49.0828 28.8704 48.9976 28.9665C48.7103 29.2924 48.3348 29.443 47.9177 29.5044C47.7067 29.5341 47.4927 29.55 47.3441 29.5282Z" fill="#3D2E2A"/>
<path d="M9.59895 29.5292C9.24527 29.546 8.87177 29.5074 8.51511 29.3538C8.30904 29.2656 8.12774 29.1408 7.98013 28.9704C7.95437 28.9407 7.92861 28.911 7.90483 28.8783C7.6631 28.5454 7.70074 28.2264 8.01282 27.9559C8.1961 27.7964 8.41208 27.6973 8.64192 27.6369C9.63858 27.3754 10.554 27.5458 11.3743 28.1739C11.619 28.3621 11.835 28.583 11.9965 28.8515C12.1738 29.1458 12.2541 29.4618 12.2016 29.8046C12.1897 29.8819 12.1629 29.9571 12.1362 30.0305C12.1203 30.0731 12.0569 30.0939 12.0143 30.0721C11.9658 30.0473 11.9192 30.0156 11.8736 29.9849C11.7686 29.9145 11.6676 29.8373 11.5596 29.7719C11.1692 29.5351 10.7442 29.436 10.2895 29.4717C10.0705 29.4905 9.8496 29.5084 9.59895 29.5292Z" fill="#3D2E2A"/>
<path d="M50.6976 21.2151C50.6897 20.9545 50.7412 20.7386 50.8334 20.5355C51.2019 19.7251 51.8013 19.1534 52.6464 18.8671C53.0674 18.7245 53.5113 18.6759 53.9571 18.7353C54.1196 18.7571 54.283 18.8037 54.4346 18.8681C54.7279 18.9929 54.8487 19.2773 54.7586 19.5973C54.6991 19.8063 54.5852 19.9866 54.4376 20.1441C54.2404 20.3562 54.0007 20.5058 53.7332 20.6147C53.4974 20.7108 53.2517 20.7683 53.003 20.8139C52.8475 20.8426 52.6929 20.8723 52.5374 20.902C52.0262 20.9991 51.615 21.2617 51.2851 21.6579C51.2197 21.7372 51.1573 21.8194 51.087 21.8937C51.0147 21.971 50.9513 21.9651 50.8938 21.8779C50.7739 21.6956 50.7095 21.4945 50.7006 21.2765C50.6966 21.2428 50.6976 21.2111 50.6976 21.2151Z" fill="#3D2E2A"/>
<path d="M6.0086 21.9463C5.90556 21.9413 5.86296 21.87 5.81144 21.8115C5.70247 21.6867 5.59844 21.5569 5.48055 21.44C5.19819 21.1596 4.85442 20.9882 4.46606 20.907C4.21045 20.8535 3.95287 20.8129 3.69826 20.7564C3.34754 20.6781 3.01863 20.5494 2.73231 20.3255C2.55596 20.1868 2.40934 20.0223 2.30631 19.8222C2.26668 19.7449 2.23299 19.6637 2.2112 19.5804C2.12005 19.2307 2.27559 18.9602 2.61541 18.8324C2.99089 18.6918 3.37727 18.6918 3.76166 18.7433C4.79299 18.881 5.53801 19.4407 6.04228 20.3354C6.2216 20.6524 6.30383 20.9952 6.2642 21.3617C6.24538 21.5381 6.18692 21.7006 6.09578 21.8511C6.07497 21.8898 6.03535 21.9185 6.0086 21.9463Z" fill="#3D2E2A"/>
<path d="M50.9899 23.3659C51.3248 23.3689 51.6517 23.4095 51.9628 23.5433C51.9915 23.5562 52.0232 23.5631 52.0509 23.578C52.4175 23.7741 52.578 24.0931 52.3521 24.5072C52.1698 24.8421 51.8795 25.0531 51.5328 25.1948C51.2514 25.3097 50.9552 25.3573 50.654 25.3731C50.4093 25.386 50.1646 25.3999 49.9199 25.4147C49.4939 25.4415 49.1254 25.6099 48.7955 25.8724C48.7023 25.9458 48.6171 26.029 48.529 26.1082C48.5052 26.129 48.4834 26.1528 48.4586 26.1716C48.3576 26.2489 48.2932 26.2331 48.2397 26.1102C48.1386 25.8794 48.1148 25.6376 48.1565 25.39C48.205 25.1027 48.3288 24.848 48.5002 24.6172C48.8163 24.1902 49.2116 23.8504 49.699 23.6364C50.1072 23.4561 50.5401 23.363 50.9899 23.3659Z" fill="#3D2E2A"/>
<path d="M6.00759 23.365C6.94381 23.3778 7.75422 23.7385 8.37837 24.4934C8.5666 24.7212 8.71422 24.9729 8.78753 25.2622C8.8549 25.5287 8.85391 25.7942 8.75385 26.0547C8.73998 26.0914 8.72412 26.1281 8.70431 26.1627C8.67162 26.2192 8.61416 26.236 8.56264 26.2004C8.50518 26.1598 8.45069 26.1122 8.40016 26.0637C8.12672 25.8051 7.82258 25.5951 7.45799 25.4861C7.1905 25.4058 6.9131 25.3969 6.63669 25.3811C6.4871 25.3721 6.33552 25.3751 6.18592 25.3632C5.81143 25.3315 5.45378 25.2414 5.13081 25.0383C4.9406 24.9184 4.77911 24.7678 4.66121 24.5766C4.61168 24.4964 4.57205 24.4092 4.54332 24.319C4.47001 24.0931 4.53242 23.898 4.69985 23.7355C4.78505 23.6523 4.88511 23.5908 4.99707 23.5453C5.31013 23.4175 5.63607 23.3679 6.00759 23.365Z" fill="#3D2E2A"/>
<path d="M49.3513 28.9407C49.4305 29.0249 49.4394 29.119 49.4493 29.2111C49.4781 29.4757 49.4345 29.7313 49.3433 29.9789C49.1541 30.4892 48.8074 30.8696 48.3556 31.1559C47.6859 31.5809 46.9557 31.7216 46.175 31.5898C45.858 31.5363 45.5707 31.4056 45.3201 31.2035C45.1833 31.0935 45.0674 30.9647 44.9941 30.8022C44.8614 30.51 44.9297 30.2573 45.1942 30.079C45.4578 29.9017 45.752 29.8244 46.0671 29.8115C46.3603 29.7996 46.6506 29.8383 46.9419 29.864C47.1539 29.8819 47.3669 29.8967 47.5799 29.9017C48.0336 29.9126 48.4358 29.761 48.7856 29.4806C48.9451 29.3528 49.0828 29.1983 49.2294 29.0556C49.2671 29.0199 49.3057 28.9833 49.3513 28.9407Z" fill="#3D2E2A"/>
<path d="M7.6195 28.9328C7.67498 28.9912 7.71956 29.0338 7.75919 29.0794C7.96526 29.3112 8.19015 29.5203 8.46557 29.6689C8.74891 29.8214 9.0491 29.9007 9.37306 29.9056C9.71486 29.9106 10.0507 29.8601 10.3895 29.8304C10.658 29.8066 10.9265 29.7957 11.193 29.8462C11.405 29.8868 11.6032 29.9611 11.7825 30.084C12.041 30.2613 12.1094 30.4991 11.9856 30.7864C11.9251 30.9271 11.832 31.044 11.7191 31.146C11.4536 31.3858 11.1405 31.5354 10.7908 31.5918C9.86643 31.7414 9.03126 31.5274 8.30705 30.9291C7.88402 30.5793 7.61356 30.1345 7.52637 29.5856C7.49764 29.4024 7.50953 29.223 7.55312 29.0447C7.56303 29.01 7.59077 28.9813 7.6195 28.9328Z" fill="#3D2E2A"/>
<path d="M1.93281 19.6864C2.02395 19.7201 2.03089 19.8004 2.06061 19.8598C2.18643 20.1075 2.33405 20.3393 2.52624 20.5424C2.85615 20.8911 3.27027 21.0675 3.73293 21.1487C4.02123 21.1992 4.30953 21.2478 4.59683 21.2993C4.80785 21.3379 5.00996 21.4073 5.20414 21.4975C5.40129 21.5896 5.56773 21.7214 5.70544 21.8878C5.8798 22.0988 5.88872 22.3396 5.73615 22.5654C5.65491 22.6863 5.54494 22.7755 5.4211 22.8488C5.11101 23.0321 4.7712 23.0994 4.4185 23.0757C3.71609 23.0301 3.10185 22.7666 2.57479 22.2979C2.19336 21.9591 1.912 21.5549 1.7733 21.0615C1.66432 20.6732 1.65442 20.2818 1.80203 19.8975C1.83374 19.8192 1.86247 19.737 1.93281 19.6864Z" fill="#3D2E2A"/>
<path d="M55.0151 19.6567C55.0627 19.7142 55.0924 19.7399 55.1093 19.7716C55.1846 19.9202 55.2381 20.0758 55.2589 20.2432C55.3312 20.8327 55.1638 21.3558 54.822 21.8274C54.4078 22.398 53.854 22.7735 53.1784 22.9696C52.8326 23.0697 52.4829 23.1113 52.1233 23.0529C51.8934 23.0152 51.6804 22.937 51.4862 22.8092C51.3723 22.7348 51.2772 22.6407 51.2068 22.5228C51.084 22.3168 51.0929 22.1157 51.2366 21.9254C51.3773 21.7392 51.5566 21.5975 51.7676 21.4984C51.9618 21.4073 52.1639 21.3389 52.3749 21.3003C52.6553 21.2498 52.9356 21.2052 53.215 21.1517C53.3626 21.124 53.5103 21.0913 53.6519 21.0447C54.0234 20.9248 54.3306 20.7049 54.5683 20.3968C54.6882 20.2412 54.7833 20.0669 54.8873 19.8984C54.928 19.8321 54.9607 19.7607 55.0151 19.6567Z" fill="#3D2E2A"/>
<path d="M4.32142 24.535C4.36501 24.5815 4.39771 24.6122 4.42446 24.6469C4.54136 24.7955 4.64737 24.956 4.77517 25.0937C5.11597 25.4613 5.53603 25.6832 6.04031 25.7238C6.28402 25.7436 6.52972 25.7526 6.77442 25.7595C7.02012 25.7664 7.26483 25.7714 7.50755 25.814C7.8008 25.8655 8.07127 25.9685 8.30309 26.1597C8.58346 26.3916 8.62408 26.6818 8.40415 26.9741C8.32984 27.0732 8.23275 27.1614 8.13269 27.2357C7.87907 27.4239 7.58681 27.5279 7.27374 27.5507C6.20476 27.627 5.3161 27.2614 4.63548 26.4272C4.32142 26.0418 4.15201 25.5931 4.16984 25.0888C4.1748 24.9481 4.21343 24.8084 4.24415 24.6707C4.25504 24.6281 4.28873 24.5914 4.32142 24.535Z" fill="#3D2E2A"/>
<path d="M52.6424 24.5181C52.686 24.5994 52.7167 24.643 52.7336 24.6925C52.8326 24.9867 52.8227 25.2839 52.7514 25.5822C52.6424 26.0349 52.4046 26.4144 52.0678 26.7284C51.4218 27.3318 50.6521 27.6082 49.7693 27.5586C49.489 27.5428 49.2244 27.4655 48.9788 27.3278C48.8539 27.2584 48.736 27.1772 48.6429 27.0672C48.5914 27.0078 48.5418 26.9444 48.5052 26.875C48.3675 26.6165 48.4111 26.3876 48.631 26.1924C48.8688 25.9814 49.1521 25.8685 49.4622 25.815C49.7049 25.7734 49.9496 25.7664 50.1953 25.7595C50.448 25.7526 50.7016 25.7436 50.9532 25.7218C51.4218 25.6812 51.8181 25.4781 52.1461 25.1462C52.2788 25.0115 52.3888 24.855 52.5077 24.7074C52.5453 24.6588 52.579 24.6063 52.6424 24.5181Z" fill="#3D2E2A"/>
<path d="M4.01924 17.5623C3.93999 17.5287 3.9172 17.4702 3.89045 17.4118C3.83794 17.2968 3.78742 17.1799 3.72698 17.069C3.54469 16.7331 3.28413 16.4735 2.94531 16.2962C2.74915 16.1942 2.54804 16.1 2.34989 16.001C2.0933 15.8732 1.85751 15.7147 1.65739 15.5076C1.4424 15.2857 1.30073 15.0261 1.24822 14.72C1.2294 14.609 1.23039 14.5 1.2611 14.3911C1.30271 14.2444 1.38098 14.1513 1.5385 14.1008C1.78915 14.0205 2.03386 14.0136 2.28649 14.0661C2.39448 14.0889 2.50444 14.1028 2.61144 14.1256C2.66494 14.1365 2.71844 14.1543 2.76896 14.1761C3.73293 14.607 4.29664 15.3501 4.47398 16.3854C4.52748 16.6984 4.47002 17.0006 4.30556 17.277C4.22531 17.4167 4.17478 17.4652 4.01924 17.5623Z" fill="#3D2E2A"/>
<path d="M52.9624 17.5772C52.9069 17.5396 52.8574 17.5148 52.8207 17.4772C52.6424 17.2978 52.5394 17.0789 52.5017 16.8282C52.4621 16.5578 52.4869 16.2903 52.5671 16.0307C52.8286 15.1846 53.3468 14.5575 54.1631 14.192C54.2503 14.1533 54.3375 14.1216 54.4356 14.1186C54.5049 14.1167 54.5743 14.0919 54.6436 14.075C54.9191 14.0097 55.1885 14.0156 55.461 14.1107C55.5808 14.1523 55.6452 14.2256 55.6888 14.3306C55.7483 14.4753 55.7423 14.6259 55.7116 14.7745C55.6561 15.045 55.5283 15.2788 55.3401 15.4789C55.1766 15.6533 54.9904 15.7999 54.7804 15.9138C54.6417 15.9891 54.499 16.0575 54.3573 16.1288C54.2582 16.1783 54.1582 16.2259 54.0601 16.2764C53.648 16.4845 53.3577 16.8084 53.1625 17.2225C53.1288 17.2939 53.1031 17.3702 53.0664 17.4395C53.0417 17.4871 53.002 17.5257 52.9624 17.5772Z" fill="#3D2E2A"/>
<path d="M55.989 14.5724C56.1515 14.6933 56.2367 14.824 56.3041 14.9677C56.4378 15.253 56.4903 15.5552 56.4676 15.8682C56.4487 16.1149 56.3952 16.3547 56.2981 16.5816C55.9881 17.3068 55.4689 17.8249 54.7398 18.13C54.4485 18.2519 54.1443 18.2846 53.8323 18.2499C53.6886 18.2341 53.5539 18.1905 53.43 18.1162C53.1516 17.9497 53.0763 17.6971 53.218 17.4058C53.3131 17.2097 53.4528 17.0511 53.6242 16.9174C53.8253 16.7599 54.0522 16.6489 54.2811 16.5399C54.5238 16.424 54.7695 16.3131 55.0043 16.1833C55.3788 15.9762 55.6383 15.6622 55.7899 15.2639C55.8513 15.1024 55.888 14.931 55.9355 14.7636C55.9494 14.7101 55.9643 14.6576 55.989 14.5724Z" fill="#3D2E2A"/>
<path d="M0.97972 14.5833C0.999535 14.6417 1.01638 14.6833 1.02926 14.7269C1.07681 14.8944 1.11248 15.0658 1.17093 15.2282C1.31953 15.6473 1.59 15.9723 1.97836 16.1882C2.19235 16.3071 2.41823 16.4052 2.63718 16.5142C2.79966 16.5954 2.96709 16.6697 3.12164 16.7648C3.25539 16.8471 3.37923 16.9481 3.49811 17.0511C3.61898 17.1562 3.70418 17.2909 3.76957 17.4365C3.8835 17.6911 3.82207 17.923 3.59322 18.0825C3.45452 18.1796 3.297 18.2321 3.12857 18.2499C2.82443 18.2816 2.52721 18.2509 2.24288 18.133C1.46319 17.8081 0.918296 17.2523 0.628018 16.4577C0.477429 16.0466 0.455634 15.6225 0.576501 15.1975C0.63099 15.0053 0.720154 14.829 0.855881 14.6794C0.887584 14.6467 0.928203 14.6229 0.97972 14.5833Z" fill="#3D2E2A"/>
<path d="M3.41788 12.8139C3.37627 12.7673 3.33961 12.7366 3.31682 12.6979C3.28017 12.6375 3.25342 12.5711 3.21973 12.5077C3.01268 12.1184 2.71942 11.8192 2.30927 11.6438C2.12004 11.5636 1.93082 11.4833 1.74159 11.4021C1.53651 11.3149 1.3463 11.202 1.17589 11.0593C0.95992 10.879 0.792489 10.662 0.699362 10.3926C0.657752 10.2707 0.64091 10.1469 0.649827 10.0191C0.663697 9.81795 0.766731 9.67826 0.951994 9.60296C1.14716 9.52371 1.35026 9.50389 1.55732 9.53758C2.46184 9.68519 3.1276 10.1677 3.55856 10.9741C3.69726 11.2347 3.7884 11.5111 3.81713 11.8063C3.84388 12.0906 3.79435 12.3581 3.63781 12.5999C3.5863 12.6821 3.53082 12.7584 3.41788 12.8139Z" fill="#3D2E2A"/>
<path d="M53.1467 11.9311C53.1526 11.7142 53.1912 11.5051 53.2695 11.305C53.6549 10.3203 54.3613 9.72186 55.4095 9.53957C55.5917 9.50787 55.7721 9.52174 55.9484 9.57722C56.2169 9.66242 56.3457 9.85164 56.3249 10.133C56.312 10.3094 56.2555 10.4718 56.1673 10.6254C55.9781 10.9523 55.6938 11.1723 55.3639 11.3397C55.245 11.4001 55.1182 11.4477 54.9953 11.5012C54.8646 11.5576 54.7338 11.6141 54.605 11.6726C54.2127 11.8489 53.9432 12.1501 53.7441 12.5226C53.7064 12.592 53.6747 12.6653 53.6341 12.7316C53.5875 12.8069 53.5192 12.8149 53.4568 12.7515C53.3072 12.6019 53.216 12.4196 53.1774 12.2125C53.1586 12.1214 53.1556 12.0253 53.1467 11.9311Z" fill="#3D2E2A"/>
<path d="M0.40215 10.133C0.432862 10.2222 0.448713 10.2648 0.462583 10.3084C0.498249 10.4213 0.526979 10.5372 0.568589 10.6472C0.743945 11.1029 1.0471 11.4437 1.49391 11.6478C1.68809 11.736 1.88921 11.8073 2.08537 11.8925C2.26667 11.9708 2.44896 12.049 2.62234 12.1422C2.84128 12.2601 3.02258 12.4235 3.15138 12.6405C3.33069 12.9427 3.26531 13.2082 2.95819 13.3805C2.71645 13.5163 2.45292 13.5579 2.1785 13.5252C1.73466 13.4727 1.34333 13.2904 0.994595 13.0179C0.454657 12.5959 0.114843 12.051 0.0157719 11.3674C-0.039708 10.986 0.0425211 10.6284 0.24958 10.3024C0.282273 10.2509 0.330818 10.2113 0.40215 10.133Z" fill="#3D2E2A"/>
<path d="M56.5835 10.1607C56.742 10.2796 56.8143 10.4362 56.8708 10.5996C57.0134 11.0127 56.9946 11.4279 56.843 11.8311C56.526 12.6712 55.9276 13.2181 55.0677 13.4727C54.7655 13.5619 54.4594 13.5599 54.1592 13.4489C54.0462 13.4073 53.9432 13.3498 53.859 13.2636C53.7124 13.1121 53.6777 12.9327 53.7659 12.7406C53.8818 12.4869 54.071 12.2977 54.3108 12.164C54.497 12.0609 54.6942 11.9767 54.8884 11.8905C55.0399 11.8232 55.1965 11.7667 55.35 11.7053C55.9544 11.4645 56.316 11.0137 56.4864 10.3965C56.5032 10.3361 56.5191 10.2747 56.5369 10.2142C56.5418 10.2023 56.5567 10.1924 56.5835 10.1607Z" fill="#3D2E2A"/>
<path d="M53.8213 8.12285C53.7084 8.12285 53.6351 8.05945 53.5638 7.99902C53.4142 7.87319 53.3101 7.71171 53.2656 7.52347C53.2269 7.36298 53.1922 7.19555 53.1962 7.03208C53.215 6.18998 53.5717 5.52521 54.2751 5.05462C54.4405 4.94366 54.6228 4.86638 54.821 4.83171C55.141 4.77623 55.3659 4.94465 55.4005 5.26564C55.4312 5.55196 55.3629 5.81549 55.2113 6.05821C55.1053 6.22762 54.9795 6.3792 54.8309 6.51196C54.713 6.61697 54.5941 6.72199 54.4742 6.82502C54.1602 7.0935 53.9739 7.43233 53.9095 7.83951C53.8976 7.91778 53.8798 7.99505 53.862 8.07134C53.859 8.0862 53.8431 8.0961 53.8213 8.12285Z" fill="#3D2E2A"/>
<path d="M3.14346 8.13374C3.12068 8.07529 3.09591 8.02773 3.08402 7.97622C3.06321 7.88408 3.05529 7.78798 3.03349 7.69584C2.95325 7.36296 2.78581 7.0816 2.52922 6.85374C2.39845 6.73882 2.26668 6.62389 2.1369 6.50897C1.9873 6.37721 1.86247 6.22464 1.75746 6.05522C1.62173 5.8343 1.54842 5.59454 1.56427 5.333C1.56724 5.28544 1.5712 5.23789 1.5821 5.19231C1.64253 4.93077 1.84068 4.79108 2.10817 4.82575C2.28253 4.84854 2.44699 4.906 2.59857 4.99615C3.22569 5.37064 3.61009 5.91454 3.74185 6.63578C3.7904 6.90426 3.79832 7.17077 3.73393 7.43628C3.66854 7.70773 3.53677 7.93659 3.2891 8.08222C3.24947 8.10501 3.20191 8.11293 3.14346 8.13374Z" fill="#3D2E2A"/>
<path d="M3.42877 3.49426C3.42084 3.4467 3.40697 3.40906 3.40895 3.3724C3.41291 3.28522 3.42381 3.19903 3.43273 3.11283C3.4674 2.77203 3.40598 2.45104 3.2326 2.15481C3.14047 1.99828 3.04536 1.84373 2.95025 1.68918C2.83335 1.49896 2.73923 1.29983 2.68771 1.08286C2.63025 0.84014 2.62629 0.597416 2.71149 0.358654C2.7323 0.299211 2.76103 0.24175 2.79372 0.189242C2.86901 0.0673846 2.97205 0.00794187 3.12561 0.00298831C3.32078 -0.00295597 3.48127 0.0584682 3.6279 0.176363C3.9053 0.399273 4.10344 0.684598 4.24412 1.00658C4.47793 1.54156 4.50072 2.0924 4.33626 2.65215C4.27087 2.87506 4.16387 3.07519 4.00041 3.24361C3.87558 3.3724 3.72598 3.45562 3.5526 3.49525C3.51595 3.50119 3.47731 3.49426 3.42877 3.49426Z" fill="#3D2E2A"/>
<path d="M54.3226 0.707377C54.3217 1.02639 54.2424 1.27307 54.1205 1.50688C54.0591 1.62577 53.9858 1.7397 53.9174 1.85462C53.8808 1.91605 53.8421 1.97549 53.8035 2.03493C53.5747 2.38762 53.4904 2.77301 53.543 3.18911C53.5489 3.23567 53.5548 3.28323 53.5598 3.33078C53.5766 3.49326 53.534 3.52694 53.3706 3.48038C53.1645 3.42193 53.005 3.29908 52.8752 3.13165C52.7058 2.91369 52.6147 2.66007 52.5711 2.39357C52.4532 1.66936 52.6047 1.01053 53.0783 0.437903C53.1536 0.346758 53.2398 0.264528 53.329 0.186262C53.4835 0.0505346 53.6608 -0.0148524 53.8738 0.00198975C53.9878 0.0109062 54.069 0.0535068 54.1384 0.134745C54.2275 0.239761 54.2741 0.366572 54.2989 0.499327C54.3157 0.584528 54.3187 0.671711 54.3226 0.707377Z" fill="#3D2E2A"/>
<path d="M1.38098 5.12793C1.38098 5.21313 1.38296 5.27456 1.38098 5.33499C1.37206 5.5579 1.39089 5.77685 1.45528 5.99084C1.52166 6.21474 1.63757 6.4109 1.80302 6.57635C1.91497 6.68731 2.03386 6.79233 2.15175 6.89635C2.27559 7.00632 2.40538 7.11034 2.52822 7.2223C2.68178 7.36199 2.80859 7.52248 2.89677 7.71171C2.95126 7.82762 2.98296 7.94849 2.98494 8.07728C2.98593 8.22589 2.91955 8.33486 2.79274 8.40719C2.66494 8.4805 2.52426 8.49932 2.38061 8.48843C2.15572 8.47158 1.94271 8.40818 1.75745 8.28137C1.0372 7.787 0.677573 7.10341 0.711257 6.22663C0.722155 5.92743 0.829152 5.65598 1.00649 5.41425C1.11051 5.27257 1.19175 5.21016 1.38098 5.12793Z" fill="#3D2E2A"/>
<path d="M55.5908 5.12C55.67 5.16061 55.7215 5.17647 55.7622 5.20916C56.0425 5.43306 56.202 5.73424 56.2417 6.08198C56.3477 7.01919 55.9811 7.74736 55.2153 8.28136C55.031 8.41015 54.817 8.47157 54.5911 8.48941C54.4623 8.49931 54.3375 8.48346 54.2206 8.42897C54.0423 8.34674 53.961 8.20111 53.9888 8.00594C54.0106 7.84743 54.068 7.7008 54.1552 7.56507C54.2464 7.42439 54.3553 7.29956 54.4802 7.18959C54.5872 7.09547 54.6961 7.00433 54.8041 6.9112C54.8765 6.84978 54.9478 6.78736 55.0201 6.72594C55.4253 6.37721 55.6116 5.93436 55.5918 5.40235C55.5878 5.32309 55.5908 5.24482 55.5908 5.12Z" fill="#3D2E2A"/>
<path d="M2.59956 0.102051C2.58371 0.159512 2.57578 0.196168 2.56389 0.231834C2.53615 0.321989 2.50346 0.411153 2.47869 0.503289C2.36872 0.902546 2.40439 1.28793 2.60649 1.65053C2.70655 1.82985 2.82544 1.99827 2.92847 2.17561C3.03151 2.35295 3.13256 2.53128 3.22073 2.71654C3.299 2.88298 3.32476 3.06428 3.3099 3.24855C3.2881 3.52892 3.14247 3.66168 2.86507 3.66069C2.70953 3.66069 2.57083 3.6062 2.43708 3.53685C2.26668 3.44769 2.12203 3.32385 2.00612 3.17128C1.52563 2.53722 1.38395 1.83481 1.59993 1.068C1.67819 0.788614 1.83176 0.549853 2.04575 0.352701C2.16364 0.243723 2.29739 0.161494 2.44996 0.111958C2.49058 0.0990786 2.53714 0.106014 2.59956 0.102051Z" fill="#3D2E2A"/>
<path d="M54.3673 0.0980835C54.4406 0.106009 54.496 0.102046 54.5436 0.118888C54.7497 0.192201 54.9171 0.321984 55.0578 0.488424C55.2619 0.730158 55.3877 1.01053 55.4362 1.32062C55.5412 1.98539 55.3986 2.59468 54.9934 3.13561C54.8289 3.35554 54.6209 3.52099 54.3593 3.61511C54.2523 3.65375 54.1443 3.66663 54.0324 3.65771C53.8442 3.64384 53.7282 3.54477 53.6787 3.36248C53.6193 3.14551 53.6619 2.93449 53.7431 2.73635C53.8144 2.56198 53.9105 2.39654 54.0056 2.23307C54.1087 2.05573 54.2276 1.88731 54.3316 1.70997C54.496 1.43059 54.5842 1.12743 54.5436 0.80248C54.5238 0.639012 54.4743 0.478517 54.4346 0.318022C54.4198 0.250653 54.395 0.186257 54.3673 0.0980835Z" fill="#3D2E2A"/>
<path d="M35.0097 17.6545C34.9473 17.604 34.8987 17.5762 34.866 17.5356C34.6847 17.3167 34.5639 17.069 34.556 16.7807C34.5351 16.0783 34.8017 15.5116 35.3971 15.1272C35.7022 14.93 36.043 14.823 36.4145 14.9231C36.4591 14.935 36.4997 14.9588 36.5473 14.9786C36.5364 15.0767 36.4908 15.151 36.4522 15.2262C36.3026 15.5245 36.1183 15.7999 35.9033 16.0555C35.6537 16.3537 35.4397 16.6757 35.296 17.0412C35.2187 17.2414 35.1167 17.4296 35.0097 17.6545Z" fill="#3D2E2A"/>
<path d="M36.5176 19.3991C36.4175 19.2912 36.3848 19.1752 36.364 19.0603C36.1996 18.135 36.6543 17.4375 37.3181 17.068C37.6103 16.9055 37.9313 16.86 38.2593 16.9125C38.4188 16.9382 38.5793 16.9887 38.6991 17.1284C38.6496 17.17 38.61 17.2087 38.5664 17.2414C38.3613 17.392 38.179 17.5673 38.0245 17.7684C37.7679 18.1013 37.4766 18.4015 37.1744 18.6908C36.9684 18.8869 36.7821 19.1 36.5968 19.3159C36.577 19.3387 36.5552 19.3595 36.5176 19.3991Z" fill="#3D2E2A"/>
<path d="M38.8259 17.2909C38.9062 17.3602 38.9428 17.4484 38.9696 17.5376C39.037 17.7605 39.0518 17.9824 38.9874 18.2142C38.8576 18.6779 38.5773 19.0296 38.2008 19.311C37.9462 19.5022 37.6668 19.6478 37.3448 19.6963C37.1011 19.733 36.8772 19.6914 36.6622 19.5735C36.686 19.4685 36.7514 19.4071 36.8079 19.3436C36.9178 19.2188 37.0258 19.09 37.1546 18.987C37.5598 18.662 37.8758 18.2578 38.2048 17.8615C38.3355 17.704 38.4822 17.5594 38.6258 17.4118C38.6803 17.3563 38.7457 17.3117 38.8259 17.2909Z" fill="#3D2E2A"/>
<path d="M35.2128 17.7328C35.2366 17.6159 35.297 17.5237 35.3446 17.4266C35.41 17.2919 35.4902 17.1631 35.5457 17.0244C35.6398 16.7856 35.7745 16.5726 35.939 16.3794C36.26 16.003 36.5106 15.5869 36.6969 15.1292C36.6999 15.1222 36.7078 15.1183 36.7266 15.1004C36.7593 15.1222 36.8029 15.1411 36.8306 15.1728C36.9535 15.3115 37.0337 15.4779 37.0684 15.6572C37.1239 15.9396 37.1199 16.2199 37.0199 16.4983C36.893 16.848 36.6949 17.1472 36.4165 17.392C36.1599 17.6168 35.8617 17.7516 35.5189 17.7803C35.4169 17.7892 35.3148 17.7912 35.2128 17.7328Z" fill="#3D2E2A"/>
<path d="M35.8052 19.3436C35.7389 19.303 35.6824 19.2753 35.6339 19.2376C35.4565 19.1019 35.2584 19.0068 35.0513 18.9266C34.9344 18.881 34.8155 18.8374 34.7016 18.7859C34.6154 18.7472 34.5332 18.6997 34.4529 18.6492C34.3727 18.5986 34.2964 18.5422 34.2211 18.4847C33.9873 18.3054 33.7366 18.1597 33.4474 18.0884C33.4018 18.0775 33.3592 18.0577 33.3077 18.0399C33.3483 17.8972 33.4563 17.8338 33.5801 17.8021C33.694 17.7724 33.8139 17.7506 33.9298 17.7526C34.446 17.7615 34.9275 17.8903 35.3525 18.1964C35.5764 18.3579 35.7389 18.5669 35.8449 18.8196C35.9202 18.9959 35.9113 19.1178 35.8052 19.3436Z" fill="#3D2E2A"/>
<path d="M35.6864 19.5061C35.5704 19.6428 35.4218 19.6894 35.2693 19.7241C34.9017 19.8073 34.547 19.7389 34.1993 19.6181C34.0051 19.5507 33.8189 19.4655 33.6564 19.3337C33.4741 19.1861 33.3334 19.0088 33.2343 18.7988C33.1541 18.6293 33.1531 18.451 33.1997 18.2568C33.2443 18.2618 33.2839 18.2608 33.3186 18.2717C33.5821 18.3579 33.8387 18.4599 34.0636 18.6274C34.3826 18.8661 34.7402 19.0316 35.1088 19.1752C35.3148 19.2555 35.5041 19.3615 35.6864 19.5061Z" fill="#3D2E2A"/>
<path d="M23.3797 17.5941C23.2945 17.6743 23.1994 17.7407 23.0924 17.7902C22.9696 17.8467 22.8606 17.923 22.7516 18.0022C22.4772 18.2034 22.2008 18.4005 21.8986 18.56C21.6331 18.6997 21.3854 18.8721 21.1754 19.092C21.0783 19.1941 20.9664 19.2813 20.8613 19.3754C20.7256 19.2248 20.6741 19.1049 20.6751 18.9038C20.6761 18.5947 20.7692 18.3113 20.9465 18.0587C21.2428 17.6357 21.6638 17.3939 22.1532 17.2751C22.4158 17.2117 22.6892 17.2275 22.9527 17.3018C23.1122 17.3484 23.2688 17.4573 23.3797 17.5941Z" fill="#3D2E2A"/>
<path d="M20.9832 19.5487C21.01 19.516 21.0377 19.4774 21.0704 19.4447C21.3329 19.1802 21.6133 18.9444 21.9511 18.776C22.2186 18.6422 22.4762 18.4926 22.6971 18.2806C22.931 18.0557 23.2163 17.9032 23.5016 17.7565C23.6136 17.9141 23.6641 18.0617 23.6601 18.2281C23.6562 18.3708 23.6324 18.5085 23.5739 18.6422C23.4332 18.9622 23.2173 19.2168 22.93 19.412C22.6516 19.6012 22.3484 19.7409 22.0165 19.7806C21.6866 19.8202 21.3528 19.8123 21.0545 19.624C21.0347 19.6111 21.0179 19.5953 21.001 19.5794C20.9941 19.5735 20.9921 19.5646 20.9832 19.5487Z" fill="#3D2E2A"/>
<path d="M21.7966 15.1133C21.7154 15.1827 21.6619 15.2411 21.5965 15.2827C21.1526 15.572 20.8435 15.9762 20.5978 16.4369C20.478 16.6628 20.3204 16.8599 20.1451 17.0442C20.042 17.1522 19.9321 17.2532 19.8399 17.3464C19.7458 17.3464 19.722 17.2919 19.6963 17.2443C19.5625 16.9966 19.5467 16.7282 19.5843 16.4577C19.6676 15.8682 19.9866 15.4363 20.4968 15.142C20.7058 15.0212 20.9396 14.9617 21.1764 14.9459C21.3825 14.932 21.5826 14.9895 21.7966 15.1133Z" fill="#3D2E2A"/>
<path d="M21.9432 15.2996C22.1255 15.6186 22.1582 15.9336 22.073 16.2586C21.9482 16.7351 21.6846 17.1195 21.2695 17.391C21.0466 17.5366 20.8029 17.6129 20.5334 17.6188C20.3501 17.6228 20.1698 17.6347 20.0083 17.5168C20.0173 17.497 20.0222 17.4722 20.0361 17.4563C20.0995 17.386 20.1629 17.3157 20.2303 17.2483C20.4888 16.9897 20.7078 16.7024 20.8802 16.3784C21.108 15.9495 21.4518 15.6275 21.8451 15.3531C21.8689 15.3352 21.8976 15.3233 21.9432 15.2996Z" fill="#3D2E2A"/>
<path d="M20.0945 19.3942C19.7052 19.1643 19.406 18.8641 19.1742 18.5006C18.9146 18.0954 18.5916 17.7565 18.1854 17.497C18.1597 17.4801 18.1389 17.4563 18.1042 17.4266C18.1854 17.3275 18.2835 17.2701 18.3984 17.2404C18.5619 17.1988 18.7293 17.1928 18.8918 17.2324C19.3386 17.3444 19.6953 17.5871 19.9449 17.9814C20.1302 18.2747 20.2491 18.5858 20.261 18.9355C20.2649 19.1019 20.2213 19.2436 20.0945 19.3942Z" fill="#3D2E2A"/>
<path d="M19.9439 19.5626C19.6873 19.7023 19.4426 19.7181 19.188 19.6557C18.7214 19.5408 18.3657 19.2674 18.0715 18.8958C17.8624 18.6313 17.7852 18.3361 17.8198 18.0072C17.8307 17.9061 17.8605 17.8061 17.8912 17.708C17.9041 17.6664 17.9417 17.6327 17.9704 17.5921C18.3538 17.8328 18.66 18.135 18.9076 18.4996C19.0275 18.6759 19.1603 18.8443 19.297 19.0088C19.403 19.1366 19.5258 19.2495 19.6754 19.3298C19.7735 19.3833 19.8567 19.4526 19.9439 19.5626Z" fill="#3D2E2A"/>
</g>
<defs>
<clipPath id="clip0_62_827">
<rect width="56.9679" height="40" fill="white"/>
</clipPath>
</defs>
</svg>
