<svg width="98" height="6" viewBox="0 0 98 6" fill="none" xmlns="http://www.w3.org/2000/svg">
<path d="M2.04528 5.92774C2.42045 5.92774 2.6545 5.77973 2.75775 5.48717C2.82315 5.30475 2.85413 4.91237 2.85069 4.31004L2.8438 1.29147C2.8438 1.14346 2.83004 1.0471 2.8025 1.00236C2.79218 0.981704 2.75432 0.961052 2.6958 0.936958C2.63385 0.916307 2.51338 0.895658 2.33096 0.875006C2.14854 0.854355 1.94202 0.84402 1.70797 0.84402V0.771732L4.87454 0.764862V0.837129C4.43053 0.837129 4.1242 0.871562 3.95555 0.936958L3.88326 0.967924C3.8454 1.00578 3.82819 1.11248 3.82819 1.28802L3.83508 4.24119C3.83508 4.75748 3.67331 5.18084 3.34977 5.50782C3.02622 5.8348 2.59254 5.99657 2.04872 6.00001C1.81811 6.00001 1.6116 5.93118 1.42573 5.79006C1.23987 5.64894 1.11596 5.4975 1.05745 5.33917C0.998937 5.18084 0.967957 5.03628 0.967957 4.90893C0.967957 4.56129 1.09531 4.31691 1.34657 4.17235C1.43606 4.12072 1.53587 4.09319 1.63913 4.09319C1.79402 4.09319 1.92481 4.14826 2.03495 4.2584C2.1451 4.37198 2.20361 4.51655 2.20361 4.69898C2.20361 4.86419 2.14165 4.99842 2.01774 5.10167C1.89383 5.20493 1.75616 5.26001 1.60127 5.26001C1.53244 5.26001 1.47048 5.24967 1.41197 5.22558C1.35345 5.20148 1.29838 5.16707 1.24331 5.12577C1.23299 5.1774 1.2261 5.21869 1.2261 5.24623C1.2261 5.42865 1.31215 5.58698 1.4808 5.72466C1.64946 5.8589 1.83876 5.92774 2.04528 5.92774Z" fill="black"/>
<path d="M9.37317 4.37543C9.37317 4.95023 9.16322 5.38735 8.7433 5.68335C8.45074 5.88643 8.1444 5.98969 7.8243 5.98969C7.22197 5.98969 6.71945 5.86577 6.3133 5.61796C5.86585 5.3426 5.63869 4.95712 5.63869 4.46492L5.6318 1.28459C5.6318 1.13659 5.62148 1.0402 5.60083 0.995458C5.5905 0.974807 5.55608 0.954155 5.50445 0.930061C5.33236 0.868107 5.03979 0.833681 4.62332 0.837123V0.764856L7.70039 0.757965V0.830253C7.45602 0.830253 7.25639 0.840581 7.10494 0.854349C6.9535 0.871559 6.84336 0.892211 6.77452 0.919746C6.70568 0.947282 6.66438 0.971362 6.65405 0.992013C6.62652 1.0402 6.61275 1.13658 6.61619 1.28114L6.62308 4.29627C6.62308 4.82977 6.70568 5.21182 6.86401 5.43899C7.05676 5.71434 7.40439 5.852 7.90347 5.852C8.17883 5.852 8.45074 5.75219 8.70888 5.556C9.07717 5.27721 9.25959 4.88139 9.25959 4.37198L9.25614 2.28618C9.25614 1.73891 9.1701 1.35686 8.998 1.1469C8.8259 0.936947 8.54711 0.830256 8.15817 0.833698V0.76141L10.3094 0.757965V0.830253C9.91011 0.830253 9.64164 0.94383 9.51085 1.16755C9.41447 1.32588 9.36629 1.59779 9.36973 1.9764L9.37317 4.37543Z" fill="black"/>
<path d="M13.1145 1.14001C13.4243 0.8681 13.5964 0.71667 13.6342 0.682251L13.6377 2.42386L13.5723 2.39977C13.4965 1.93166 13.3003 1.54272 12.9871 1.22606C12.6705 0.912845 12.316 0.754518 11.9133 0.754518C11.6345 0.754518 11.397 0.819914 11.1939 0.947265C10.9426 1.10215 10.8187 1.32933 10.8187 1.62533C10.8187 1.91101 10.9564 2.14506 11.2283 2.32748C11.4589 2.48236 11.8238 2.6166 12.3297 2.73362C12.9837 2.89195 13.4105 3.0434 13.6136 3.18796C13.944 3.42545 14.1092 3.82471 14.1092 4.38574C14.1092 4.91235 13.9405 5.31852 13.5998 5.60764C13.3141 5.85202 12.963 5.97593 12.5535 5.97593C12.2402 5.97593 11.958 5.92774 11.7102 5.82448C11.4624 5.72467 11.2455 5.556 11.0665 5.32195C10.7464 5.74531 10.5812 5.96214 10.564 5.97935L10.5606 3.77309L10.626 3.7662C10.7292 4.22397 10.8428 4.59226 10.9736 4.86762C11.0803 5.10167 11.2077 5.29786 11.3522 5.4493C11.6345 5.75219 12.0475 5.90364 12.5844 5.90364C12.8357 5.90364 13.0629 5.82102 13.2728 5.65581C13.5137 5.46306 13.6308 5.22558 13.6308 4.93646C13.6308 4.58538 13.4656 4.31002 13.142 4.10695C12.9183 3.96927 12.5294 3.82473 11.9718 3.67328C11.4142 3.52184 11.0287 3.36694 10.8118 3.20861C10.4917 2.96767 10.3334 2.62005 10.33 2.16227C10.33 1.75268 10.4745 1.40159 10.7637 1.11592C11.0528 0.830236 11.4004 0.685675 11.7997 0.685675C12.1404 0.685675 12.4227 0.733863 12.6429 0.837121C12.7118 0.868098 12.8701 0.971357 13.1145 1.14001Z" fill="black"/>
<path d="M19.2652 0.737335L19.2686 3.01589H19.155C19.0311 2.14508 18.8349 1.5462 18.5665 1.21921C18.3462 0.947301 18.0261 0.809626 17.5993 0.813068C17.4926 0.813068 17.4341 0.819948 17.4237 0.830274C17.4031 0.847483 17.3928 0.916317 17.3928 1.04023L17.3997 5.37017C17.3997 5.52505 17.41 5.62487 17.4306 5.66617C17.441 5.68682 17.4788 5.71092 17.5442 5.73501C17.6096 5.7591 17.7301 5.77975 17.9125 5.79352C18.0949 5.80729 18.3393 5.81761 18.6491 5.81761V5.89677L15.1727 5.90366V5.8245C15.4756 5.8245 15.72 5.81418 15.899 5.80041C16.0814 5.7832 16.2019 5.76255 16.2673 5.73846C16.3327 5.71436 16.374 5.68338 16.3912 5.64896C16.4084 5.61454 16.4187 5.52162 16.4187 5.37361L16.4118 1.05056C16.4118 0.912885 16.3946 0.837154 16.3636 0.826829C16.3464 0.819945 16.2914 0.819938 16.195 0.819938C15.7785 0.819938 15.4619 0.954188 15.245 1.22266C14.98 1.55308 14.7803 2.15196 14.6496 3.01244H14.536L14.5325 0.751095L19.2652 0.737335Z" fill="black"/>
<path d="M21.4784 1.23642L21.4853 5.35983C21.4853 5.51472 21.4956 5.61453 21.5162 5.65583C21.5266 5.67648 21.5576 5.69714 21.6126 5.72123C21.7675 5.77974 22.0842 5.80728 22.5626 5.80728V5.88646L19.4132 5.89333V5.81417C19.6438 5.81417 19.84 5.80384 20.0087 5.79007C20.1773 5.77286 20.2909 5.75221 20.3529 5.72812C20.4148 5.70403 20.4527 5.67305 20.4733 5.63863C20.4906 5.60421 20.5009 5.51128 20.5009 5.36328L20.494 1.23986C20.494 1.08842 20.4837 0.995484 20.463 0.957623C20.4527 0.936972 20.4183 0.912877 20.3598 0.892226C20.2049 0.833713 19.8882 0.806178 19.4098 0.806178V0.73389L22.566 0.72702V0.799287C22.3354 0.799287 22.1392 0.809615 21.9706 0.823383C21.8019 0.840593 21.6849 0.861245 21.6161 0.88878L21.5369 0.919767C21.499 0.957628 21.4784 1.06088 21.4784 1.23642Z" fill="black"/>
<path d="M26.8891 3.73523C26.8891 4.50966 26.7445 5.07068 26.4485 5.42176C26.1525 5.77284 25.7257 5.95183 25.1647 5.95183C24.5314 5.95183 23.9944 5.76251 23.5573 5.38046C23.0341 4.92268 22.7725 4.26528 22.7691 3.40824C22.7691 2.57186 23.0307 1.8869 23.5573 1.35341C24.0116 0.895631 24.4969 0.66504 25.0132 0.661598C25.2645 0.661598 25.4848 0.706327 25.6706 0.795817C25.9116 0.912843 26.1319 1.10561 26.328 1.37063L26.7204 0.616852H26.7617L26.7652 2.9367L26.6998 2.8954C26.6998 2.21046 26.507 1.66318 26.1284 1.24671C25.8118 0.902516 25.4813 0.73042 25.1337 0.73042C24.669 0.73042 24.3352 0.947259 24.1321 1.37406C23.929 1.8043 23.8292 2.44794 23.8327 3.31186C23.8327 4.15857 23.9462 4.79878 24.1665 5.23246C24.3868 5.66614 24.7207 5.88298 25.1681 5.87954C25.6775 5.87954 26.0665 5.7281 26.3384 5.42865C26.6654 5.07757 26.8271 4.50966 26.8237 3.73179L26.8891 3.73523Z" fill="black"/>
<path d="M29.1676 3.19486L29.171 5.33572C29.171 5.48717 29.1779 5.5801 29.1951 5.61796C29.2123 5.65583 29.2605 5.69026 29.3466 5.71779C29.4326 5.74533 29.529 5.76253 29.6426 5.76941C29.7527 5.77285 29.9523 5.7763 30.2415 5.7763C30.8472 5.7763 31.305 5.59387 31.6148 5.23247C31.9246 4.87107 32.1208 4.29283 32.1965 3.4943H32.2997L32.3032 5.86924L27.1059 5.87955V5.8004C27.5809 5.8004 27.8941 5.76942 28.049 5.7109C28.1006 5.69025 28.1385 5.66272 28.1557 5.62485C28.1729 5.59044 28.1832 5.49751 28.1832 5.3495L28.1763 1.2433C28.1763 1.08841 28.166 0.992026 28.1453 0.954165C28.135 0.933513 28.1006 0.912861 28.0421 0.888768C27.9836 0.864674 27.8631 0.847467 27.6807 0.826816C27.4983 0.806164 27.3055 0.795829 27.0956 0.795829V0.723562L32.0278 0.713226L32.0313 2.71298H31.928C31.928 2.29995 31.8213 1.90757 31.6148 1.53241C31.336 1.03677 30.9471 0.785518 30.4411 0.78896C30.238 0.78896 30.035 0.792387 29.8319 0.795829C29.6288 0.799271 29.4464 0.823375 29.2846 0.871562C29.2364 0.892214 29.2055 0.919749 29.1848 0.95761C29.1676 0.992029 29.1573 1.08841 29.1573 1.2433L29.1607 3.11913C29.7114 3.11913 30.0522 3.06062 30.1864 2.95047C30.386 2.77838 30.5271 2.3206 30.6063 1.57371H30.7027L30.7096 4.72307H30.6132C30.5306 3.99339 30.3929 3.5425 30.1967 3.37385C30.0625 3.25338 29.7183 3.19486 29.1676 3.19486Z" fill="black"/>
<path d="M38.3472 5.85545L34.6231 5.86234V5.78319C35.1841 5.78319 35.518 5.75909 35.6315 5.71779C35.6832 5.69714 35.721 5.66615 35.7417 5.62485C35.7623 5.58355 35.7727 5.48716 35.7727 5.33227L35.7658 1.2192C35.7658 1.07119 35.7555 0.974811 35.7348 0.930066C35.7245 0.909414 35.6901 0.88532 35.6315 0.864668C35.4767 0.806156 35.1394 0.77862 34.6162 0.77862V0.706353L37.886 0.699463C38.4608 0.699463 38.9186 0.850896 39.2628 1.16067C39.5347 1.40504 39.6724 1.65975 39.6724 1.9179C39.6724 2.23799 39.5898 2.47894 39.428 2.63727C39.2111 2.85755 38.7981 3.01243 38.1958 3.10192C38.8325 3.18108 39.3006 3.36351 39.6001 3.64919C39.8445 3.88324 39.9684 4.18269 39.9684 4.55097C39.9684 4.85042 39.8307 5.12922 39.5553 5.3908C39.2284 5.70058 38.8291 5.85545 38.3472 5.85545ZM36.7536 3.07782H37.4936C37.8826 3.07782 38.1682 3.00556 38.3541 2.85755C38.5778 2.68546 38.688 2.39978 38.688 1.99707C38.688 1.54618 38.595 1.22952 38.4161 1.0471C38.2336 0.864678 37.9307 0.775175 37.5005 0.775175H37.1185C37.0083 0.775175 36.9257 0.782061 36.8706 0.799271C36.8156 0.816481 36.7846 0.850899 36.7708 0.90597C36.7571 0.96104 36.7502 1.06431 36.7502 1.2192L36.7536 3.07782ZM37.7001 3.14666L36.7536 3.15011L36.7571 5.33227C36.7571 5.49405 36.7674 5.59387 36.7846 5.63861C36.8018 5.68336 36.8431 5.71435 36.9051 5.73844C36.967 5.76253 37.0462 5.7763 37.146 5.78319C37.2458 5.78663 37.4764 5.79006 37.8413 5.79006C38.2199 5.79006 38.5055 5.67303 38.6914 5.44242C38.8635 5.23246 38.9461 4.94335 38.9461 4.56818C38.9461 4.12417 38.8463 3.78343 38.6467 3.54249C38.4333 3.27747 38.1166 3.14666 37.7001 3.14666Z" fill="black"/>
<path d="M45.6854 4.68863V4.95366C45.6854 5.26688 45.6579 5.48717 45.5994 5.61108C45.503 5.81415 45.3137 5.91395 45.028 5.9174C44.6597 5.9174 44.4153 5.77972 44.2949 5.50436C44.1985 5.28064 44.1503 4.85385 44.1469 4.22742V4.05877C44.1469 4.00714 44.1503 3.94863 44.1538 3.89012C44.1538 3.60788 44.0849 3.41857 43.9541 3.31875C43.8199 3.21893 43.6306 3.17075 43.3793 3.17075H42.4397L42.4431 5.31851C42.4431 5.48028 42.4534 5.5801 42.4707 5.62484C42.4879 5.66959 42.5292 5.70056 42.5911 5.72465C42.6531 5.74874 42.777 5.76251 42.9663 5.7694C43.1556 5.77284 43.3552 5.77629 43.5617 5.77629V5.84855L40.3091 5.85544V5.77629C40.8702 5.77629 41.204 5.75219 41.3176 5.71089C41.3692 5.69024 41.4071 5.65925 41.4278 5.61795C41.4484 5.57665 41.4587 5.48028 41.4587 5.3254L41.4518 1.20196C41.4518 1.05052 41.4415 0.957602 41.4209 0.919741C41.4105 0.89909 41.3761 0.874995 41.3176 0.854344C41.1627 0.795831 40.8254 0.768296 40.3022 0.768296V0.696008L43.5721 0.689117C44.1469 0.689117 44.6046 0.840571 44.9488 1.15034C45.2208 1.39472 45.3584 1.64943 45.3584 1.91102C45.3584 2.22079 45.2517 2.47548 45.0383 2.67167C44.7802 2.9126 44.374 3.06405 43.8199 3.12945C44.3878 3.23959 44.763 3.55625 44.9488 4.07598C45.0418 4.33756 45.0865 4.72994 45.09 5.25655C45.09 5.41144 45.1037 5.52157 45.1313 5.59041C45.1588 5.65925 45.2242 5.69368 45.324 5.69368C45.4376 5.69368 45.5168 5.60418 45.5581 5.4252C45.5994 5.24622 45.6234 4.99842 45.62 4.6852H45.6854V4.68863ZM42.4431 3.08126H43.1831C43.5721 3.08126 43.8577 3.00897 44.0436 2.86097C44.2673 2.68887 44.3775 2.39976 44.3775 1.99017C44.3775 1.53928 44.2845 1.22262 44.1021 1.03675C43.9197 0.850891 43.6134 0.761405 43.19 0.761405H42.808C42.6978 0.761405 42.6152 0.768292 42.5601 0.785501C42.5085 0.802711 42.4741 0.837123 42.4603 0.885309C42.4466 0.936938 42.4397 1.0402 42.4397 1.19509L42.4431 3.08126Z" fill="black"/>
<path d="M47.8951 3.15699L47.8986 5.29785C47.8986 5.4493 47.9054 5.54223 47.9226 5.58009C47.9399 5.61796 47.988 5.65237 48.0741 5.6799C48.1601 5.70744 48.2565 5.72466 48.3701 5.73154C48.4802 5.73498 48.6799 5.73843 48.969 5.73843C49.5748 5.73843 50.0325 5.556 50.3423 5.1946C50.6521 4.8332 50.8483 4.25496 50.924 3.45644H51.0273L51.0307 5.83135L45.8334 5.84168V5.76251C46.3084 5.76251 46.6216 5.73155 46.7765 5.67303C46.8316 5.65238 46.866 5.62485 46.8832 5.58699C46.9004 5.55257 46.9107 5.45962 46.9107 5.31161L46.9038 1.20541C46.9038 1.05052 46.8935 0.954157 46.8694 0.916296C46.8591 0.895644 46.8247 0.874995 46.7662 0.854344C46.7077 0.833692 46.5872 0.813043 46.4048 0.792392C46.2223 0.77174 46.0296 0.761405 45.8196 0.761405V0.689117L50.7519 0.678802L50.7554 2.67856H50.6521C50.6521 2.26553 50.5488 1.87315 50.3389 1.49798C50.0635 1.00234 49.6712 0.751073 49.1652 0.754515C48.9621 0.754515 48.759 0.757963 48.556 0.761405C48.3529 0.764847 48.1705 0.788931 48.0087 0.837117C47.9605 0.857769 47.9261 0.888746 47.9089 0.923165C47.8917 0.957585 47.8813 1.05396 47.8813 1.20885L47.8848 3.0847C48.4355 3.0847 48.7762 3.02619 48.9105 2.91605C49.1101 2.74396 49.2512 2.28618 49.3304 1.53928H49.4268L49.4337 4.68863H49.3373C49.2547 3.95894 49.117 3.50805 48.9208 3.3394C48.7935 3.21549 48.4493 3.15699 47.8951 3.15699Z" fill="black"/>
<path d="M55.2677 1.95921L54.2661 5.85547H53.9942L52.225 1.19167C52.1459 0.974828 52.0633 0.844034 51.9807 0.802731C51.8981 0.761428 51.6743 0.744224 51.3061 0.744224V0.671936L54.0321 0.665045V0.737333C53.7085 0.737333 53.4814 0.754555 53.3574 0.792416C53.2335 0.826835 53.1716 0.895662 53.1716 0.995477C53.1716 1.05055 53.1888 1.1125 53.2198 1.18822L54.4829 4.5441L55.2058 1.75959L55.0337 1.18822C54.9683 0.974825 54.8891 0.844034 54.7996 0.802731C54.7067 0.761428 54.4726 0.737337 54.0975 0.740779V0.668491L56.8372 0.661621V0.733888C56.5137 0.733888 56.29 0.751109 56.1626 0.788971C56.0387 0.82339 55.9767 0.899096 55.9767 1.00924C55.9767 1.06775 55.9871 1.12627 56.0077 1.18478L57.0472 4.54754L57.9214 2.05559C58.0109 1.79401 58.0557 1.58061 58.0557 1.4154C58.0557 0.961069 57.7356 0.733891 57.0954 0.737333V0.665045L59.1571 0.661621V0.733888C58.7785 0.733888 58.4997 0.930082 58.3207 1.31902C58.2932 1.37753 58.1968 1.63913 58.0247 2.10379L56.7202 5.85202H56.4552L55.2677 1.95921Z" fill="black"/>
<path d="M61.174 3.13291L61.1774 5.27378C61.1774 5.42522 61.1843 5.51816 61.2015 5.55602C61.2187 5.59388 61.2669 5.62829 61.353 5.65582C61.439 5.6868 61.5354 5.70058 61.649 5.70746C61.7591 5.7109 61.9587 5.71435 62.2479 5.71435C62.8536 5.71435 63.3114 5.53192 63.6212 5.17052C63.931 4.80912 64.1272 4.23088 64.2029 3.43236H64.3061L64.3096 5.80727L59.1123 5.81761V5.73845C59.5873 5.73845 59.9005 5.70747 60.0554 5.64895C60.1104 5.6283 60.1449 5.60077 60.1621 5.56291C60.1793 5.52849 60.1896 5.43556 60.1896 5.28756L60.1827 1.18133C60.1827 1.02644 60.1724 0.930079 60.1483 0.892218C60.138 0.871566 60.1036 0.850917 60.045 0.830265C59.9865 0.809614 59.8661 0.788965 59.6836 0.768313C59.5012 0.747662 59.3085 0.737327 59.0985 0.737327V0.665039L64.0308 0.654724L64.0342 2.65448H63.931C63.931 2.24145 63.8277 1.84907 63.6178 1.4739C63.3424 0.978266 62.95 0.726994 62.4441 0.730436C62.241 0.730436 62.0379 0.733882 61.8348 0.733882C61.6318 0.737324 61.4493 0.761431 61.2876 0.81306C61.2394 0.833712 61.205 0.861247 61.1878 0.899108C61.1705 0.936969 61.1602 1.02989 61.1602 1.18477L61.1637 3.06062C61.7144 3.06062 62.0551 3.00211 62.1894 2.89197C62.389 2.71988 62.5301 2.2621 62.6093 1.5152H62.7056L62.7125 4.66457H62.6162C62.5335 3.93488 62.3959 3.48398 62.1997 3.31532C62.0723 3.18797 61.7281 3.12947 61.174 3.13291Z" fill="black"/>
<path d="M67.8169 5.79695L64.7054 5.80384V5.72466C64.9463 5.72466 65.1494 5.71434 65.3215 5.70057C65.4902 5.68336 65.6072 5.66271 65.6726 5.63862C65.738 5.61452 65.7724 5.59042 65.7862 5.56977C65.8068 5.53191 65.8172 5.4321 65.8172 5.27377L65.8103 1.16756C65.8103 1.01956 65.7999 0.923199 65.7793 0.878454C65.769 0.857803 65.7345 0.83715 65.676 0.813057C65.5039 0.751102 65.1804 0.716676 64.702 0.720118V0.64783L67.8203 0.640961C68.4227 0.640961 68.9665 0.861238 69.4518 1.3018C70.0129 1.80777 70.2916 2.45485 70.2951 3.24305C70.2951 4.02093 70.0507 4.64734 69.5551 5.12233C69.0801 5.56978 68.5053 5.79695 67.8169 5.79695ZM67.8203 5.71779C68.3297 5.71779 68.698 5.51126 68.9286 5.09823C69.1593 4.6852 69.2763 4.06911 69.2728 3.24305C69.2728 2.46174 69.1524 1.85252 68.9149 1.41539C68.6636 0.94385 68.2919 0.709786 67.8066 0.713228C67.5484 0.713228 67.3522 0.716683 67.218 0.727009C67.0803 0.733893 66.984 0.751083 66.9289 0.771734C66.8738 0.792386 66.836 0.82337 66.8153 0.864673C66.7981 0.905976 66.7878 1.00579 66.7878 1.16412L66.7947 5.27033C66.7947 5.42521 66.805 5.52848 66.8222 5.57666C66.8394 5.62485 66.8773 5.65927 66.9323 5.67992C66.9874 5.70057 67.101 5.71435 67.2765 5.71435C67.4589 5.71435 67.6379 5.71779 67.8203 5.71779Z" fill="black"/>
<path d="M77.8157 4.6267V4.89174C77.8157 5.20495 77.7882 5.42525 77.7297 5.54571C77.6333 5.74879 77.444 5.84859 77.1583 5.85203C76.79 5.85203 76.5456 5.71437 76.4252 5.43901C76.3288 5.21529 76.2806 4.78848 76.2772 4.16205V3.9934C76.2772 3.94177 76.2806 3.88327 76.284 3.82475C76.284 3.54251 76.2152 3.3532 76.0844 3.25338C75.9502 3.15357 75.7609 3.10538 75.5096 3.10538H74.57L74.5734 5.25314C74.5734 5.41491 74.5837 5.51473 74.6009 5.55947C74.6182 5.60078 74.6595 5.63519 74.7214 5.65928C74.7834 5.68337 74.9073 5.69714 75.0966 5.70403C75.2859 5.70747 75.4855 5.71092 75.692 5.71092V5.78321L72.4394 5.79008V5.71092C73.0005 5.71092 73.3343 5.68682 73.4479 5.64552C73.4995 5.62487 73.5374 5.59389 73.5615 5.55258C73.5821 5.51128 73.5925 5.41491 73.5925 5.26003L73.5856 1.13661C73.5856 0.985168 73.5753 0.892234 73.5546 0.854373C73.5443 0.833721 73.5099 0.809627 73.4513 0.788975C73.2965 0.730463 72.9591 0.702927 72.436 0.702927V0.630639L75.7058 0.623749C76.2806 0.623749 76.7384 0.775203 77.0826 1.08498C77.3545 1.32935 77.4922 1.58406 77.4922 1.84565C77.4922 2.15542 77.3855 2.41011 77.1721 2.6063C76.9174 2.84723 76.5078 2.99868 75.9536 3.06408C76.5215 3.17422 76.8967 3.49088 77.0826 4.01061C77.1755 4.27219 77.2202 4.66457 77.2237 5.19118C77.2237 5.34607 77.2375 5.45622 77.265 5.52506C77.2925 5.5939 77.3579 5.62832 77.4577 5.62832C77.5713 5.62832 77.6505 5.53882 77.6918 5.35984C77.7331 5.18086 77.7572 4.93305 77.7537 4.61984H77.8157V4.6267ZM74.5734 3.01589H75.3134C75.7024 3.01589 75.988 2.9436 76.1739 2.7956C76.3976 2.6235 76.5078 2.33439 76.5078 1.92481C76.5078 1.47391 76.4148 1.15725 76.2324 0.971386C76.05 0.785522 75.7437 0.696037 75.3203 0.696037H74.9383C74.8281 0.696037 74.7455 0.702923 74.6904 0.720133C74.6388 0.737342 74.6044 0.771754 74.5906 0.819941C74.5769 0.87157 74.57 0.974836 74.57 1.12972L74.5734 3.01589Z" fill="black"/>
<path d="M80.0289 1.12283L80.0358 5.24625C80.0358 5.40113 80.0461 5.50096 80.0667 5.54227C80.0771 5.56292 80.108 5.58357 80.1631 5.60766C80.318 5.66618 80.6346 5.69371 81.1165 5.69371V5.77287L77.9672 5.77976V5.70058C78.1978 5.70058 78.394 5.69025 78.5626 5.67649C78.7313 5.65928 78.8449 5.63863 78.9068 5.61453C78.9688 5.59044 79.0066 5.55948 79.0273 5.52506C79.0445 5.49064 79.0548 5.39769 79.0548 5.24969L79.0479 1.12628C79.0479 0.974832 79.0376 0.881898 79.0169 0.844037C79.0066 0.823385 78.9722 0.799291 78.9137 0.778639C78.7588 0.720127 78.4421 0.692591 77.9637 0.692591V0.620324L81.12 0.613434V0.685701C80.8894 0.685701 80.6932 0.696029 80.5245 0.709797C80.3559 0.727006 80.2388 0.747659 80.17 0.775194L80.0908 0.806181C80.0495 0.8406 80.0289 0.943852 80.0289 1.12283Z" fill="black"/>
<path d="M85.6839 5.76253H85.6185C85.6185 5.55257 85.5841 5.39769 85.5153 5.29443C85.4464 5.19118 85.3604 5.13954 85.2537 5.13954C85.0713 5.13954 84.9198 5.19462 84.7994 5.30132C84.7409 5.35639 84.6858 5.40801 84.6307 5.46308C84.4276 5.61797 84.2624 5.72123 84.1316 5.76942C84.0008 5.81761 83.8184 5.84171 83.5844 5.84171C82.982 5.84171 82.4761 5.65584 82.0665 5.27723C81.5708 4.82634 81.323 4.16892 81.3196 3.31188C81.3196 2.47894 81.5881 1.794 82.1284 1.24673C82.5897 0.782071 83.0681 0.548031 83.5568 0.548031C83.8873 0.548031 84.1523 0.596209 84.3554 0.689141C84.6101 0.81305 84.8648 1.04367 85.116 1.38442L85.5669 0.544586L85.5704 2.79904H85.4981C85.3845 2.09345 85.1573 1.54618 84.8166 1.16068C84.4965 0.799281 84.1213 0.620319 83.6876 0.620319C83.278 0.620319 82.9545 0.847479 82.717 1.30181C82.4795 1.7527 82.3625 2.3929 82.3659 3.21897C82.3659 4.03814 82.4795 4.66801 82.6998 5.10858C82.9201 5.54914 83.223 5.76942 83.6119 5.76942C83.9733 5.76942 84.2521 5.67306 84.4517 5.48031C84.6514 5.28756 84.7546 5.00532 84.7512 4.63704V3.66641C84.7512 3.52185 84.7408 3.43237 84.7271 3.39451C84.7099 3.35665 84.6755 3.32911 84.6238 3.30501C84.5688 3.28436 84.4621 3.2637 84.3003 3.24993C84.1385 3.23616 83.9974 3.22584 83.8804 3.22584V3.15357L86.6374 3.14668V3.21897C86.5203 3.21897 86.3723 3.22928 86.1968 3.24993C86.0212 3.27058 85.9008 3.2878 85.8423 3.29812C85.7803 3.30845 85.7425 3.32909 85.7252 3.35318C85.6943 3.40826 85.6771 3.50808 85.6771 3.65952L85.6839 5.76253Z" fill="black"/>
<path d="M91.0224 5.22216L91.0189 3.15356L88.7404 3.15701L88.7438 5.22558C88.7438 5.38047 88.7541 5.4803 88.7748 5.5216C88.7851 5.54225 88.823 5.56633 88.8815 5.59043C88.94 5.61452 89.057 5.63519 89.2222 5.64895C89.3875 5.66272 89.5802 5.67305 89.8074 5.67305V5.75221L86.6752 5.7591V5.67992C86.9058 5.67992 87.102 5.66959 87.2707 5.65582C87.4393 5.63861 87.5529 5.61796 87.6149 5.59387C87.6768 5.56978 87.7147 5.5388 87.7353 5.50438C87.7525 5.46996 87.7629 5.37703 87.7629 5.22903L87.756 1.12282C87.756 0.967932 87.7457 0.87157 87.725 0.833709C87.7147 0.813057 87.6768 0.792387 87.6183 0.771736C87.5564 0.751084 87.4359 0.730435 87.2569 0.709784C87.0779 0.689132 86.8817 0.678818 86.6683 0.678818V0.60653L89.8108 0.59964V0.671928C89.3565 0.671928 89.0467 0.706339 88.8746 0.771736C88.8195 0.792387 88.7886 0.816482 88.7782 0.837133C88.7507 0.88532 88.7369 0.981703 88.7404 1.12626L88.7438 3.02621L91.0224 3.02277L91.0189 1.12282C91.0189 0.971374 91.0052 0.878454 90.9776 0.833709C90.9673 0.813057 90.9329 0.792387 90.8744 0.771736C90.8159 0.751084 90.6954 0.730435 90.513 0.709784C90.3305 0.689132 90.1412 0.678818 89.9382 0.678818V0.60653L93.0806 0.59964V0.671928C92.8397 0.671928 92.6435 0.682256 92.4886 0.696024C92.3337 0.713233 92.2133 0.737334 92.1307 0.768312L92.0584 0.799277C92.0205 0.837138 92.0033 0.943835 92.0033 1.11937L92.0102 5.22558C92.0102 5.38047 92.0205 5.4803 92.0412 5.5216C92.0515 5.54225 92.0825 5.56291 92.1375 5.587C92.2924 5.64551 92.6091 5.67305 93.091 5.67305V5.75221L89.9554 5.7591V5.67992C90.4235 5.67992 90.7367 5.64894 90.8916 5.59043C90.9501 5.56977 90.9845 5.5457 90.9948 5.52505C91.012 5.4803 91.0224 5.38049 91.0224 5.22216Z" fill="black"/>
<path d="M97.8959 0.578979L97.8993 2.85755H97.7857C97.6618 1.98674 97.4656 1.38784 97.1971 1.06086C96.9769 0.788945 96.6568 0.651271 96.23 0.654713C96.1233 0.654713 96.0647 0.661592 96.0544 0.671918C96.0338 0.689128 96.0234 0.757961 96.0234 0.88187L96.0338 5.21181C96.0338 5.3667 96.0441 5.46651 96.0682 5.50781C96.0785 5.52846 96.1164 5.55256 96.1818 5.57666C96.2472 5.60075 96.3676 5.62139 96.5501 5.63516C96.7325 5.64893 96.9769 5.65926 97.2866 5.65926V5.73844L93.8103 5.74531V5.66615C94.1132 5.66615 94.3576 5.65582 94.5365 5.64205C94.719 5.62484 94.8394 5.60419 94.9048 5.5801C94.9702 5.55601 95.0115 5.52503 95.0287 5.49061C95.0459 5.45619 95.0563 5.36326 95.0563 5.21526L95.0459 0.892206C95.0459 0.754529 95.0287 0.678799 94.9978 0.668473C94.9806 0.661589 94.9255 0.661603 94.8291 0.661603C94.4126 0.661603 94.096 0.795832 93.8791 1.0643C93.6141 1.39473 93.4145 1.99363 93.2837 2.85411H93.1701L93.1667 0.592761L97.8959 0.578979Z" fill="black"/>
</svg>
