<svg width="135" height="19" viewBox="0 0 135 19" fill="none" xmlns="http://www.w3.org/2000/svg">
<path d="M5.92747 10.4896H4.5125V15.2954C4.5125 16.3299 4.65836 17.0517 4.95157 17.4592C5.24479 17.8667 5.76357 18.0712 6.50789 18.0712V18.5779H0.222473V18.0712C0.996873 18.0712 1.52016 17.8682 1.79383 17.4607C2.0675 17.0532 2.20283 16.3329 2.20283 15.2984V4.341C2.20283 3.30797 2.069 2.59372 1.80135 2.20125C1.53369 1.80879 1.0059 1.61331 0.222473 1.61331V1.10657H7.38605C9.15288 1.10657 10.5663 1.53662 11.6234 2.39523C12.6805 3.25383 13.2098 4.34852 13.2098 5.67928C13.2098 7.82354 12.0084 9.25355 9.60549 9.96931C10.1333 10.3076 10.6475 10.7708 11.1513 11.3617C11.6535 11.9527 12.3136 12.9346 13.1286 14.3059C14.0429 15.8277 14.7571 16.8261 15.2714 17.2998C15.7857 17.7735 16.3195 18.0306 16.8743 18.0712V18.5779H13.2986C12.5632 17.6938 11.6746 16.3961 10.6325 14.6849C9.51978 12.8835 8.64915 11.7346 8.0191 11.2384C7.38905 10.7377 6.69134 10.4896 5.92747 10.4896ZM6.34399 1.77721H4.5125V9.75879H6.65676C7.9379 9.75879 8.94236 9.39189 9.67316 8.65659C10.4039 7.92128 10.7678 6.9484 10.7678 5.73793C10.7678 4.55603 10.3634 3.60119 9.55437 2.87039C8.74388 2.14111 7.67476 1.77721 6.34399 1.77721Z" fill="black"/>
<path d="M29.4136 7.71979H29.9354V11.9647H29.4136C29.2256 11.2204 28.9971 10.7527 28.7279 10.5648C28.4602 10.3768 27.8738 10.2821 26.9701 10.2821H22.6365V16.5374C22.6365 16.975 22.7327 17.2817 22.9267 17.4607C23.1206 17.6396 23.45 17.7283 23.9176 17.7283H26.9701C28.0618 17.7283 28.8166 17.6682 29.2346 17.5494C29.6512 17.4306 30.0045 17.2096 30.2917 16.8863C30.5789 16.5645 30.8872 16.0397 31.215 15.3149H31.7368L30.9323 18.5764H18.3464V18.0697C19.1299 18.0697 19.6577 17.8682 19.9253 17.4667C20.193 17.0637 20.3268 16.351 20.3268 15.327V4.39965C20.3268 3.33654 20.1885 2.60575 19.9103 2.20877C19.6321 1.8118 19.1103 1.61181 18.3464 1.61181V1.10657H30.9323V4.02523H30.6045C30.4256 3.19068 30.1699 2.63732 29.8376 2.36515C29.5053 2.09148 28.782 1.95615 27.6708 1.95615H22.6365V9.43249H27.5219C28.1866 9.43249 28.6407 9.3137 28.8843 9.07461C29.1294 8.83553 29.3053 8.38442 29.4136 7.71979Z" fill="black"/>
<path d="M43.2204 0.852467H43.7122V4.94852H43.1904C43.0716 3.81624 42.6611 2.93357 41.9619 2.29751C41.2611 1.66296 40.38 1.34417 39.3184 1.34417C38.3756 1.34417 37.6147 1.58176 37.0403 2.05843C36.4644 2.53509 36.1757 3.17116 36.1757 3.9651C36.1757 4.70041 36.4132 5.36955 36.8899 5.97554C37.3666 6.58152 38.3996 7.36043 39.9875 8.31377C41.834 9.41597 43.0761 10.3798 43.7106 11.2039C44.3452 12.0279 44.664 12.9707 44.664 14.0338C44.664 15.4037 44.1783 16.575 43.2069 17.5494C42.2355 18.5223 41.0657 19.0095 39.6973 19.0095C38.9049 19.0095 37.8929 18.7915 36.6629 18.3539C36.1576 18.175 35.8358 18.0862 35.696 18.0862C35.4088 18.0862 35.1847 18.3103 35.0268 18.7569H34.5051V14.0353H35.0268C35.0374 15.336 35.4599 16.3781 36.2975 17.163C37.135 17.9479 38.1139 18.3404 39.2327 18.3404C40.2928 18.3404 41.1423 18.0577 41.7814 17.4908C42.4205 16.9239 42.7408 16.169 42.7408 15.2247C42.7408 14.5195 42.4776 13.8443 41.9528 13.1978C41.428 12.5512 40.3304 11.7196 38.6598 10.7001C37.2974 9.85956 36.3892 9.19493 35.9321 8.70924C35.4764 8.22205 35.1381 7.68824 34.9201 7.10781C34.702 6.52739 34.5923 5.88832 34.5923 5.19211C34.5923 3.85082 35.0314 2.76366 35.911 1.92911C36.7907 1.09456 37.9335 0.67804 39.3439 0.67804C40.1183 0.67804 40.9619 0.831416 41.8761 1.13967C42.3032 1.27801 42.6009 1.34868 42.7693 1.34868C42.9077 1.34868 43.0024 1.31861 43.052 1.25997C43.1062 1.19531 43.1618 1.06148 43.2204 0.852467Z" fill="black"/>
<path d="M57.9205 1.95462H55.2695V15.3856C55.2695 16.4396 55.3988 17.1494 55.6574 17.5178C55.9161 17.8862 56.4168 18.0696 57.1611 18.0696V18.5764H50.9795V18.0696C51.7479 18.0696 52.2696 17.8591 52.5463 17.4366C52.8215 17.0141 52.9598 16.3013 52.9598 15.2968V1.95462H50.4276C49.2156 1.95462 48.3345 2.14859 47.7841 2.53504C47.2323 2.92149 46.9225 3.56206 46.8533 4.45675H46.3316V0.450928H46.8533C47.3195 0.888501 48.1931 1.10654 49.4743 1.10654H58.6348C59.955 1.10654 60.8783 0.888501 61.4045 0.450928H61.9564V4.45675H61.6136C61.3955 3.49439 61.0046 2.83578 60.4437 2.48241C59.8843 2.13205 59.0423 1.95462 57.9205 1.95462Z" fill="black"/>
<path d="M71.6086 18.5764V18.0697C72.61 18.0697 73.1108 17.7208 73.1108 17.0246C73.1108 16.8246 73.0656 16.6021 72.9769 16.3525L71.3545 11.5016H65.7457L64.5533 15.0097C64.2555 15.8954 64.1067 16.5374 64.1067 16.9344C64.1067 17.6712 64.5668 18.0486 65.4871 18.0682V18.5749H60.9745V18.0682C61.6211 17.9795 62.1218 17.7644 62.4797 17.4261C62.8376 17.0878 63.1999 16.3856 63.5684 15.3209L68.3997 0.912598H70.1981L75.2701 15.966C75.5678 16.8517 75.8791 17.4246 76.2023 17.6832C76.5256 17.9419 77.0444 18.0712 77.7602 18.0712V18.5779H71.6086V18.5764ZM66.069 10.4294H70.9951L68.5185 3.02678L66.069 10.4294Z" fill="black"/>
<path d="M91.4768 14.9134V4.39814C91.4768 3.37563 91.34 2.66289 91.0678 2.2614C90.7942 1.85992 90.31 1.64338 89.6153 1.61331V1.10657H95.7819V1.61331C95.0376 1.61331 94.5203 1.81781 94.2331 2.22531C93.9444 2.63281 93.8015 3.35759 93.8015 4.40115V15.2984C93.8015 16.3224 93.9429 17.0397 94.2256 17.4532C94.5083 17.8667 95.027 18.0712 95.7819 18.0712V18.5779H91.4768V16.1344C89.8378 18.0516 87.8965 19.0095 85.653 19.0095C83.8065 19.0095 82.3539 18.4576 81.2968 17.3569C80.2398 16.2547 79.7105 14.8007 79.7105 12.9932V4.39814C79.7105 3.35609 79.5736 2.63131 79.3015 2.22381C79.0278 1.81631 78.5045 1.61331 77.7301 1.61331V1.10657H84.0456V1.61331C83.2607 1.61331 82.7299 1.8118 82.4517 2.20877C82.1735 2.60574 82.0352 3.32601 82.0352 4.36807V13.2143C82.0352 14.6443 82.4276 15.769 83.2125 16.587C83.9975 17.4066 85.0892 17.8156 86.4891 17.8156C88.5627 17.8171 90.2258 16.8487 91.4768 14.9134Z" fill="black"/>
<path d="M103.69 10.4896H102.275V15.2954C102.275 16.3299 102.421 17.0517 102.714 17.4592C103.007 17.8667 103.526 18.0712 104.27 18.0712V18.5779H97.9848V18.0712C98.7592 18.0712 99.2825 17.8682 99.5561 17.4607C99.8298 17.0532 99.9652 16.3329 99.9652 15.2984V4.341C99.9652 3.30797 99.8313 2.59372 99.5637 2.20125C99.296 1.80879 98.7697 1.61181 97.9848 1.61181V1.10657H105.148C106.915 1.10657 108.329 1.53662 109.386 2.39523C110.443 3.25383 110.972 4.34852 110.972 5.67928C110.972 7.82354 109.771 9.25355 107.368 9.96931C107.896 10.3076 108.41 10.7708 108.914 11.3617C109.416 11.9527 110.076 12.9346 110.891 14.3059C111.805 15.8277 112.519 16.8261 113.034 17.2998C113.548 17.7735 114.082 18.0306 114.637 18.0712V18.5779H111.062C110.327 17.6938 109.438 16.3961 108.396 14.6849C107.284 12.8835 106.413 11.7346 105.783 11.2384C105.151 10.7377 104.454 10.4896 103.69 10.4896ZM104.106 1.77721H102.275V9.75879H104.419C105.7 9.75879 106.705 9.39189 107.435 8.65659C108.166 7.92128 108.53 6.9484 108.53 5.73793C108.53 4.55603 108.126 3.60119 107.317 2.87039C106.506 2.14111 105.437 1.77721 104.106 1.77721Z" fill="black"/>
<path d="M115.649 9.75877C115.649 7.16792 116.542 5.00561 118.33 3.27336C120.118 1.54111 122.346 0.674988 125.017 0.674988C127.607 0.674988 129.8 1.55314 131.592 3.31095C133.385 5.06877 134.281 7.21754 134.281 9.75877C134.281 12.3496 133.377 14.539 131.57 16.3269C129.762 18.1133 127.553 19.008 124.941 19.008C122.34 19.008 120.14 18.1148 118.343 16.3269C116.548 14.5405 115.649 12.3511 115.649 9.75877ZM118.33 9.78884C118.33 12.3406 118.936 14.4037 120.146 15.9765C121.358 17.5509 122.946 18.3373 124.913 18.3373C126.899 18.3373 128.51 17.5328 129.746 15.9239C130.982 14.3149 131.6 12.3105 131.6 9.90613C131.6 7.3243 130.994 5.25222 129.783 3.68838C128.571 2.12454 127.003 1.34263 125.077 1.34263C123.032 1.34263 121.396 2.11251 120.169 3.65079C118.943 5.19207 118.33 7.23708 118.33 9.78884Z" fill="black"/>
</svg>
