<svg width="43" height="40" viewBox="0 0 43 40" fill="none" xmlns="http://www.w3.org/2000/svg">
<path d="M12.3571 20.5881C13.7232 20.5881 14.8306 19.4807 14.8306 18.1146C14.8306 16.7486 13.7232 15.6412 12.3571 15.6412C10.991 15.6412 9.88364 16.7486 9.88364 18.1146C9.88364 19.4807 10.991 20.5881 12.3571 20.5881Z" fill="#7E4E1D"/>
<path d="M29.8237 20.5881C31.1898 20.5881 32.2972 19.4807 32.2972 18.1146C32.2972 16.7486 31.1898 15.6412 29.8237 15.6412C28.4577 15.6412 27.3503 16.7486 27.3503 18.1146C27.3503 19.4807 28.4577 20.5881 29.8237 20.5881Z" fill="#592D10"/>
<path d="M21.0767 18.5065C22.6648 18.5065 23.9522 17.2191 23.9522 15.6309C23.9522 14.0428 22.6648 12.7554 21.0767 12.7554C19.4885 12.7554 18.2011 14.0428 18.2011 15.6309C18.2011 17.2191 19.4885 18.5065 21.0767 18.5065Z" fill="#E3BA6F"/>
<path d="M21.0767 18.5065C22.6648 18.5065 23.9522 17.2191 23.9522 15.6309C23.9522 14.0428 22.6648 12.7554 21.0767 12.7554C19.4885 12.7554 18.2011 14.0428 18.2011 15.6309C18.2011 17.2191 19.4885 18.5065 21.0767 18.5065Z" stroke="black" stroke-width="0.320149" stroke-miterlimit="10"/>
<path d="M29.8237 20.5881C31.1898 20.5881 32.2972 19.4807 32.2972 18.1146C32.2972 16.7486 31.1898 15.6412 29.8237 15.6412C28.4577 15.6412 27.3503 16.7486 27.3503 18.1146C27.3503 19.4807 28.4577 20.5881 29.8237 20.5881Z" stroke="black" stroke-width="0.320149" stroke-miterlimit="10"/>
<path d="M12.3571 20.5881C13.7232 20.5881 14.8306 19.4807 14.8306 18.1146C14.8306 16.7486 13.7232 15.6412 12.3571 15.6412C10.991 15.6412 9.88364 16.7486 9.88364 18.1146C9.88364 19.4807 10.991 20.5881 12.3571 20.5881Z" stroke="black" stroke-width="0.320149" stroke-miterlimit="10"/>
<path d="M32.3337 28.232V32.7602C32.3337 33.1412 32.0219 33.453 31.6409 33.453H29.8423H29.7713H27.9727C27.5911 33.453 27.2792 33.1412 27.2792 32.7602V28.2269V25.4902H27.2914L27.2792 28.2051C27.2792 28.2121 27.2792 28.2198 27.2786 28.2269C27.2703 28.6719 26.9789 29.0733 26.5486 29.1905C26.3559 29.243 26.1619 29.2353 25.991 29.1816C25.5856 29.0554 25.2898 28.6764 25.2898 28.2314V24.2365C25.2898 23.999 25.3231 23.7685 25.3846 23.5501C25.4973 23.1512 25.7067 22.7914 25.9845 22.4981C26.2266 22.242 26.5218 22.0365 26.8509 21.8995C26.9879 21.8425 27.1307 21.7964 27.2786 21.7644C27.4534 21.7259 27.6352 21.7054 27.8203 21.7054H31.7908C31.9764 21.7054 32.1577 21.7259 32.3325 21.7644C32.4804 21.797 32.6225 21.8425 32.7595 21.8995C33.5266 22.2196 34.1054 22.9079 34.2726 23.7403C34.3052 23.901 34.3219 24.0662 34.3219 24.2365V28.2314C34.3219 28.7788 33.8736 29.2257 33.3275 29.2257C33.3185 29.2257 33.3095 29.2257 33.3006 29.2251C32.7666 29.2123 32.3337 28.7698 32.3337 28.232V25.4934V25.4909V28.232Z" fill="#592D10"/>
<path d="M9.88427 28.232V32.7602C9.88427 33.1412 10.1961 33.453 10.5771 33.453H12.3757H12.4467H14.2453C14.627 33.453 14.9388 33.1412 14.9388 32.7602V28.2269V25.4902H14.9266L14.9388 28.2051C14.9388 28.2121 14.9388 28.2198 14.9394 28.2269C14.9477 28.6719 15.2391 29.0733 15.6694 29.1905C15.8621 29.243 16.0561 29.2353 16.2271 29.1816C16.6324 29.0554 16.9282 28.6764 16.9282 28.2314V24.2365C16.9282 23.999 16.8949 23.7685 16.8334 23.5501C16.7207 23.1512 16.5113 22.7914 16.2335 22.4981C15.9914 22.242 15.6962 22.0365 15.3671 21.8995C15.2301 21.8425 15.0873 21.7964 14.9394 21.7644C14.7646 21.7259 14.5828 21.7054 14.3977 21.7054H10.4272C10.2416 21.7054 10.0604 21.7259 9.88555 21.7644C9.73764 21.797 9.5955 21.8425 9.45847 21.8995C8.6914 22.2196 8.11257 22.9079 7.94545 23.7403C7.9128 23.901 7.89615 24.0662 7.89615 24.2365V28.2314C7.89615 28.7788 8.34436 29.2257 8.89053 29.2257C8.89949 29.2257 8.90846 29.2257 8.91742 29.2251C9.45143 29.2123 9.88427 28.7698 9.88427 28.232V25.4934V25.4909V28.232Z" fill="#7E4E1D"/>
<path d="M32.3337 28.232V32.7602C32.3337 33.1412 32.0219 33.453 31.6409 33.453H29.8423H29.7713H27.9727C27.5911 33.453 27.2792 33.1412 27.2792 32.7602V28.2269V25.4902H27.2914L27.2792 28.2051C27.2792 28.2121 27.2792 28.2198 27.2786 28.2269C27.2703 28.6719 26.9789 29.0733 26.5486 29.1905C26.3559 29.243 26.1619 29.2353 25.991 29.1816C25.5856 29.0554 25.2898 28.6764 25.2898 28.2314V24.2365C25.2898 23.999 25.3231 23.7685 25.3846 23.5501C25.4973 23.1512 25.7067 22.7914 25.9845 22.4981C26.2266 22.242 26.5218 22.0365 26.8509 21.8995C26.9879 21.8425 27.1307 21.7964 27.2786 21.7644C27.4534 21.7259 27.6352 21.7054 27.8203 21.7054H31.7908C31.9764 21.7054 32.1577 21.7259 32.3325 21.7644C32.4804 21.797 32.6225 21.8425 32.7595 21.8995C33.5266 22.2196 34.1054 22.9079 34.2726 23.7403C34.3052 23.901 34.3219 24.0662 34.3219 24.2365V28.2314C34.3219 28.7788 33.8736 29.2257 33.3275 29.2257C33.3185 29.2257 33.3095 29.2257 33.3006 29.2251C32.7666 29.2123 32.3337 28.7698 32.3337 28.232ZM32.3337 28.232V25.4934V25.4909V28.232Z" stroke="black" stroke-width="0.320149" stroke-miterlimit="10"/>
<path d="M9.88427 28.232V32.7602C9.88427 33.1412 10.1961 33.453 10.5771 33.453H12.3757H12.4467H14.2453C14.627 33.453 14.9388 33.1412 14.9388 32.7602V28.2269V25.4902H14.9266L14.9388 28.2051C14.9388 28.2121 14.9388 28.2198 14.9394 28.2269C14.9477 28.6719 15.2391 29.0733 15.6694 29.1905C15.8621 29.243 16.0561 29.2353 16.2271 29.1816C16.6324 29.0554 16.9282 28.6764 16.9282 28.2314V24.2365C16.9282 23.999 16.8949 23.7685 16.8334 23.5501C16.7207 23.1512 16.5113 22.7914 16.2335 22.4981C15.9914 22.242 15.6962 22.0365 15.3671 21.8995C15.2301 21.8425 15.0873 21.7964 14.9394 21.7644C14.7646 21.7259 14.5828 21.7054 14.3977 21.7054H10.4272C10.2416 21.7054 10.0604 21.7259 9.88555 21.7644C9.73764 21.797 9.5955 21.8425 9.45847 21.8995C8.6914 22.2196 8.11257 22.9079 7.94545 23.7403C7.9128 23.901 7.89615 24.0662 7.89615 24.2365V28.2314C7.89615 28.7788 8.34436 29.2257 8.89053 29.2257C8.89949 29.2257 8.90846 29.2257 8.91742 29.2251C9.45143 29.2123 9.88427 28.7698 9.88427 28.232ZM9.88427 28.232V25.4934V25.4909V28.232Z" stroke="black" stroke-width="0.320149" stroke-miterlimit="10"/>
<path d="M24.0925 27.2223V32.6264C24.0925 33.081 23.7198 33.453 23.2658 33.453H21.1196H21.0344H18.8881C18.4329 33.453 18.0609 33.081 18.0609 32.6264V27.2159V23.9503H18.0756L18.0615 27.1902C18.0615 27.1986 18.0615 27.2075 18.0609 27.2159C18.0506 27.7467 17.7029 28.2262 17.1894 28.3665C16.9596 28.4286 16.7284 28.4196 16.5235 28.3556C16.0394 28.2051 15.6873 27.7524 15.6873 27.2223V22.4546C15.6873 22.171 15.727 21.8963 15.8006 21.6357C15.9351 21.1593 16.1848 20.7303 16.5165 20.3807C16.8052 20.0753 17.1574 19.83 17.5506 19.6661C17.7138 19.5976 17.8848 19.5432 18.0609 19.5048C18.2696 19.4593 18.486 19.4343 18.7076 19.4343H23.4458C23.668 19.4343 23.8837 19.4587 24.0925 19.5048C24.2685 19.5432 24.4389 19.5982 24.6021 19.6661C25.5178 20.0484 26.2086 20.8699 26.4084 21.863C26.4468 22.0544 26.4667 22.2523 26.4667 22.4546V27.2223C26.4667 27.8754 25.932 28.4094 25.2796 28.4094C25.2687 28.4094 25.2584 28.4094 25.2476 28.4087C24.6092 28.3914 24.0925 27.8638 24.0925 27.2223V23.9535V23.9503V27.2223Z" fill="#E3BA6F"/>
<path d="M24.0925 27.2223V32.6264C24.0925 33.081 23.7198 33.453 23.2658 33.453H21.1196H21.0344H18.8881C18.4329 33.453 18.0609 33.081 18.0609 32.6264V27.2159M24.0925 27.2223C24.0925 27.8638 24.6092 28.3914 25.2476 28.4087C25.2584 28.4094 25.2687 28.4094 25.2796 28.4094C25.932 28.4094 26.4667 27.8754 26.4667 27.2223V22.4546C26.4667 22.2523 26.4468 22.0544 26.4084 21.863C26.2086 20.8699 25.5178 20.0484 24.6021 19.6661C24.4389 19.5982 24.2685 19.5432 24.0925 19.5048C23.8837 19.4587 23.668 19.4343 23.4458 19.4343H18.7076C18.486 19.4343 18.2696 19.4593 18.0609 19.5048C17.8848 19.5432 17.7138 19.5976 17.5506 19.6661C17.1574 19.83 16.8052 20.0753 16.5165 20.3807C16.1848 20.7303 15.9351 21.1593 15.8006 21.6357C15.727 21.8963 15.6873 22.171 15.6873 22.4546V27.2223C15.6873 27.7524 16.0394 28.2051 16.5235 28.3556C16.7284 28.4196 16.9596 28.4286 17.1894 28.3665C17.7029 28.2262 18.0506 27.7467 18.0609 27.2159M24.0925 27.2223V23.9535V23.9503V27.2223ZM18.0609 27.2159V23.9503H18.0756L18.0615 27.1902C18.0615 27.1986 18.0615 27.2075 18.0609 27.2159Z" stroke="black" stroke-width="0.320149" stroke-miterlimit="10"/>
<path d="M21.1196 28.5528V33.453H21.0344V28.5528C21.0344 28.5297 21.0536 28.5099 21.0773 28.5099C21.101 28.5099 21.1196 28.5297 21.1196 28.5528Z" stroke="black" stroke-width="0.320149" stroke-miterlimit="10"/>
<path d="M12.3737 29.3166V33.4529H12.3193V29.3166C12.3193 29.2968 12.3315 29.2808 12.3462 29.2808C12.3616 29.2808 12.3737 29.2968 12.3737 29.3166Z" stroke="black" stroke-width="0.320149" stroke-miterlimit="10"/>
<path d="M29.834 29.3166V33.4529H29.7796V29.3166C29.7796 29.2968 29.7917 29.2808 29.8065 29.2808C29.8212 29.2808 29.834 29.2968 29.834 29.3166Z" stroke="black" stroke-width="0.320149" stroke-miterlimit="10"/>
<path d="M37.1244 33.6681V34.843C37.1244 34.9083 37.0713 34.9615 37.006 34.9615H5.148C5.08269 34.9615 5.02954 34.9083 5.02954 34.843V33.6681C5.02954 33.6028 5.08269 33.5496 5.148 33.5496H37.006C37.0713 33.5496 37.1244 33.6028 37.1244 33.6681Z" fill="#B6AB8F"/>
<path d="M24.4466 34.9615V35.4206C24.4466 35.4859 24.3934 35.539 24.3281 35.539H17.8252C17.7599 35.539 17.7068 35.4859 17.7068 35.4206V34.9615H24.4466Z" fill="#B6AB8F"/>
<path d="M23.805 35.5391V36.3189C23.805 36.3843 23.7518 36.4374 23.6865 36.4374H18.4681C18.4028 36.4374 18.3496 36.3843 18.3496 36.3189V35.5391H23.805Z" fill="#B6AB8F"/>
<path d="M15.0751 35.5391V36.3189C15.0751 36.3843 15.022 36.4374 14.9567 36.4374H9.73827C9.67296 36.4374 9.61981 36.3843 9.61981 36.3189V35.5391H15.0751Z" fill="#B6AB8F"/>
<path d="M32.5348 35.5391V36.3189C32.5348 36.3843 32.4816 36.4374 32.4163 36.4374H27.1979C27.1326 36.4374 27.0794 36.3843 27.0794 36.3189V35.5391H32.5348Z" fill="#B6AB8F"/>
<path d="M15.7167 34.9615V35.4206C15.7167 35.4859 15.6636 35.539 15.5983 35.539H9.09541C9.0301 35.539 8.97696 35.4859 8.97696 35.4206V34.9615H15.7167Z" fill="#B6AB8F"/>
<path d="M33.177 34.9615V35.4206C33.177 35.4859 33.1238 35.539 33.0585 35.539H26.5557C26.4904 35.539 26.4372 35.4859 26.4372 35.4206V34.9615H33.177Z" fill="#B6AB8F"/>
<path d="M23.2588 36.438H18.8939V39.8399H23.2588V36.438Z" fill="#B6AB8F"/>
<path d="M20.3781 39.8399H20.3774C20.2852 39.8399 20.2103 39.765 20.2103 39.6728V37.5041C20.2103 37.4119 20.2852 37.337 20.3774 37.337H20.3781C20.4703 37.337 20.5452 37.4119 20.5452 37.5041V39.6728C20.5452 39.765 20.4703 39.8399 20.3781 39.8399Z" fill="#B6AB8F"/>
<path d="M21.7266 39.8399H21.7259C21.6337 39.8399 21.5588 39.765 21.5588 39.6728V37.5041C21.5588 37.4119 21.6337 37.337 21.7259 37.337H21.7266C21.8188 37.337 21.8937 37.4119 21.8937 37.5041V39.6728C21.8937 39.765 21.8188 39.8399 21.7266 39.8399Z" fill="#B6AB8F"/>
<path d="M31.9892 36.438H27.6243V39.8399H31.9892V36.438Z" fill="#B6AB8F"/>
<path d="M29.1079 39.8399H29.1073C29.0151 39.8399 28.9402 39.765 28.9402 39.6728V37.5041C28.9402 37.4119 29.0151 37.337 29.1073 37.337H29.1079C29.2001 37.337 29.275 37.4119 29.275 37.5041V39.6728C29.2757 39.765 29.2008 39.8399 29.1079 39.8399Z" fill="#B6AB8F"/>
<path d="M30.4564 39.8399H30.4557C30.3635 39.8399 30.2886 39.765 30.2886 39.6728V37.5041C30.2886 37.4119 30.3635 37.337 30.4557 37.337H30.4564C30.5486 37.337 30.6235 37.4119 30.6235 37.5041V39.6728C30.6235 39.765 30.5486 39.8399 30.4564 39.8399Z" fill="#B6AB8F"/>
<path d="M14.529 36.438H10.1641V39.8399H14.529V36.438Z" fill="#B6AB8F"/>
<path d="M11.6483 39.8399H11.6476C11.5554 39.8399 11.4805 39.765 11.4805 39.6728V37.5041C11.4805 37.4119 11.5554 37.337 11.6476 37.337H11.6483C11.7405 37.337 11.8154 37.4119 11.8154 37.5041V39.6728C11.8154 39.765 11.7405 39.8399 11.6483 39.8399Z" fill="#B6AB8F"/>
<path d="M12.9961 39.8399H12.9955C12.9033 39.8399 12.8284 39.765 12.8284 39.6728V37.5041C12.8284 37.4119 12.9033 37.337 12.9955 37.337H12.9961C13.0883 37.337 13.1632 37.4119 13.1632 37.5041V39.6728C13.1639 39.765 13.089 39.8399 12.9961 39.8399Z" fill="#B6AB8F"/>
<path d="M37.1244 33.6681V34.843C37.1244 34.9083 37.0713 34.9615 37.006 34.9615H5.148C5.08269 34.9615 5.02954 34.9083 5.02954 34.843V33.6681C5.02954 33.6028 5.08269 33.5496 5.148 33.5496H37.006C37.0713 33.5496 37.1244 33.6028 37.1244 33.6681Z" stroke="black" stroke-width="0.320149" stroke-miterlimit="10"/>
<path d="M24.4466 34.9615V35.4206C24.4466 35.4859 24.3934 35.539 24.3281 35.539H17.8252C17.7599 35.539 17.7068 35.4859 17.7068 35.4206V34.9615H24.4466Z" stroke="black" stroke-width="0.320149" stroke-miterlimit="10"/>
<path d="M23.805 35.5391V36.3189C23.805 36.3843 23.7518 36.4374 23.6865 36.4374H18.4681C18.4028 36.4374 18.3496 36.3843 18.3496 36.3189V35.5391H23.805Z" stroke="black" stroke-width="0.320149" stroke-miterlimit="10"/>
<path d="M15.0751 35.5391V36.3189C15.0751 36.3843 15.022 36.4374 14.9567 36.4374H9.73827C9.67296 36.4374 9.61981 36.3843 9.61981 36.3189V35.5391H15.0751Z" stroke="black" stroke-width="0.320149" stroke-miterlimit="10"/>
<path d="M32.5348 35.5391V36.3189C32.5348 36.3843 32.4816 36.4374 32.4163 36.4374H27.1979C27.1326 36.4374 27.0794 36.3843 27.0794 36.3189V35.5391H32.5348Z" stroke="black" stroke-width="0.320149" stroke-miterlimit="10"/>
<path d="M15.7167 34.9615V35.4206C15.7167 35.4859 15.6636 35.539 15.5983 35.539H9.09541C9.0301 35.539 8.97696 35.4859 8.97696 35.4206V34.9615H15.7167Z" stroke="black" stroke-width="0.320149" stroke-miterlimit="10"/>
<path d="M33.177 34.9615V35.4206C33.177 35.4859 33.1238 35.539 33.0585 35.539H26.5557C26.4904 35.539 26.4372 35.4859 26.4372 35.4206V34.9615H33.177Z" stroke="black" stroke-width="0.320149" stroke-miterlimit="10"/>
<path d="M23.2588 36.438H18.8939V39.8399H23.2588V36.438Z" stroke="black" stroke-width="0.320149" stroke-miterlimit="10"/>
<path d="M20.3781 39.8399H20.3774C20.2852 39.8399 20.2103 39.765 20.2103 39.6728V37.5041C20.2103 37.4119 20.2852 37.337 20.3774 37.337H20.3781C20.4703 37.337 20.5452 37.4119 20.5452 37.5041V39.6728C20.5452 39.765 20.4703 39.8399 20.3781 39.8399Z" stroke="black" stroke-width="0.256119" stroke-miterlimit="10"/>
<path d="M21.7266 39.8399H21.7259C21.6337 39.8399 21.5588 39.765 21.5588 39.6728V37.5041C21.5588 37.4119 21.6337 37.337 21.7259 37.337H21.7266C21.8188 37.337 21.8937 37.4119 21.8937 37.5041V39.6728C21.8937 39.765 21.8188 39.8399 21.7266 39.8399Z" stroke="black" stroke-width="0.256119" stroke-miterlimit="10"/>
<path d="M31.9892 36.438H27.6243V39.8399H31.9892V36.438Z" stroke="black" stroke-width="0.320149" stroke-miterlimit="10"/>
<path d="M29.1079 39.8399H29.1073C29.0151 39.8399 28.9402 39.765 28.9402 39.6728V37.5041C28.9402 37.4119 29.0151 37.337 29.1073 37.337H29.1079C29.2001 37.337 29.275 37.4119 29.275 37.5041V39.6728C29.2757 39.765 29.2008 39.8399 29.1079 39.8399Z" stroke="black" stroke-width="0.256119" stroke-miterlimit="10"/>
<path d="M30.4564 39.8399H30.4557C30.3635 39.8399 30.2886 39.765 30.2886 39.6728V37.5041C30.2886 37.4119 30.3635 37.337 30.4557 37.337H30.4564C30.5486 37.337 30.6235 37.4119 30.6235 37.5041V39.6728C30.6235 39.765 30.5486 39.8399 30.4564 39.8399Z" stroke="black" stroke-width="0.256119" stroke-miterlimit="10"/>
<path d="M14.529 36.438H10.1641V39.8399H14.529V36.438Z" stroke="black" stroke-width="0.320149" stroke-miterlimit="10"/>
<path d="M11.6483 39.8399H11.6476C11.5554 39.8399 11.4805 39.765 11.4805 39.6728V37.5041C11.4805 37.4119 11.5554 37.337 11.6476 37.337H11.6483C11.7405 37.337 11.8154 37.4119 11.8154 37.5041V39.6728C11.8154 39.765 11.7405 39.8399 11.6483 39.8399Z" stroke="black" stroke-width="0.256119" stroke-miterlimit="10"/>
<path d="M12.9961 39.8399H12.9955C12.9033 39.8399 12.8284 39.765 12.8284 39.6728V37.5041C12.8284 37.4119 12.9033 37.337 12.9955 37.337H12.9961C13.0883 37.337 13.1632 37.4119 13.1632 37.5041V39.6728C13.1639 39.765 13.089 39.8399 12.9961 39.8399Z" stroke="black" stroke-width="0.256119" stroke-miterlimit="10"/>
<path d="M40.324 27.3093C40.9118 26.8617 41.5393 26.5806 42.0822 26.4872C42.0118 27.0468 41.739 27.7088 41.2844 28.3299C40.9316 28.8134 40.5212 29.1982 40.1159 29.4569C39.8053 29.656 39.4974 29.7796 39.2182 29.8161C39.1484 29.8257 39.0799 29.8289 39.0139 29.8269C38.9966 29.8743 38.9787 29.9223 38.9608 29.971C38.8987 30.1375 38.8321 30.304 38.7623 30.4717C38.6445 30.7554 38.5158 31.0397 38.3762 31.3246C38.5446 31.2497 38.7226 31.1831 38.9102 31.1261C39.564 30.9276 40.1985 30.8866 40.6992 30.9795C40.4578 31.4424 40.0077 31.9284 39.4128 32.3203C38.7258 32.7736 38.0003 33.0003 37.4401 32.9804C37.3389 33.1386 37.2333 33.2954 37.1238 33.4523H35.2816C35.2816 33.4523 35.7996 33.0604 36.4752 32.2998C36.8196 31.9105 37.2064 31.427 37.5848 30.8476V30.8469C37.6456 30.7547 37.7065 30.6587 37.7666 30.5614C37.6943 30.5133 37.6239 30.4544 37.5579 30.3846C37.1494 29.9563 36.8715 29.1373 36.8689 28.1961C36.867 27.5129 37.0104 26.8937 37.2435 26.4411C37.6168 26.8054 37.953 27.3759 38.1572 28.0572C38.1745 28.1142 38.1899 28.1711 38.2046 28.2281C38.3199 28.6725 38.3634 29.1021 38.3416 29.4825C38.341 29.4972 38.3397 29.5119 38.3391 29.5266C38.3435 29.517 38.348 29.5081 38.3525 29.4985C38.6618 28.8659 38.9384 28.1596 39.1484 27.3823C39.1881 27.235 39.2252 27.0858 39.2598 26.9334C39.1356 26.8905 39.0088 26.824 38.8846 26.7356C38.5696 26.5134 38.2622 26.1574 38.0074 25.7092C37.887 25.4953 37.7775 25.2603 37.686 25.0087C37.4484 24.3582 37.3703 23.7179 37.435 23.2037C37.5547 23.2748 37.6751 23.3382 37.7935 23.392C38.1681 23.6327 38.5459 23.9868 38.8737 24.4286C38.907 24.4734 38.939 24.5182 38.9698 24.5637C39.1983 24.8941 39.3725 25.2335 39.4871 25.5581C39.5627 24.8486 39.5768 24.0931 39.5134 23.2946C39.5063 23.2088 39.4986 23.1211 39.4903 23.034C39.4455 23.034 39.3988 23.0302 39.3514 23.0225C38.9281 22.961 38.4402 22.655 38.0029 22.1754C37.8006 21.9539 37.6085 21.6952 37.4394 21.4064C37.0854 20.8039 36.892 20.1815 36.8651 19.6603C37.3837 19.7896 37.9747 20.1207 38.5075 20.6188C38.5228 20.6329 38.5376 20.647 38.5523 20.6611V20.6617C38.8327 20.9294 39.0664 21.2169 39.247 21.5031C39.1343 20.9793 38.987 20.4395 38.8014 19.8844C38.7335 19.6782 38.6592 19.4701 38.5805 19.2601C38.5798 19.2601 38.5798 19.2595 38.5798 19.2595C38.3596 19.0584 38.154 18.7735 37.9863 18.4297C37.8595 18.1697 37.7526 17.8764 37.677 17.5601C37.5265 16.9339 37.5233 16.334 37.6399 15.8672C38.0618 16.1207 38.4934 16.5715 38.8295 17.1529C38.9646 17.3866 39.0735 17.6229 39.1554 17.854C39.3443 18.3823 39.3956 18.8836 39.3059 19.2608C39.3059 19.2608 39.3059 19.2608 39.3059 19.2614C39.3078 19.2659 39.3238 19.3126 39.3501 19.3991C39.3501 19.3991 39.3501 19.3991 39.3507 19.3997C39.3648 19.4471 39.3827 19.506 39.4026 19.5777C39.4878 19.8761 39.6158 20.3774 39.7311 21.0357C39.733 20.7488 39.7695 20.4395 39.8425 20.12C39.8694 20.0029 39.9014 19.8838 39.9385 19.7647C40.146 19.0975 40.4764 18.5366 40.8445 18.1665C41.0975 18.6371 41.2499 19.2973 41.2396 20.0259C41.2338 20.4543 41.173 20.8564 41.0693 21.2098C40.9015 21.7861 40.6217 22.2311 40.2875 22.4418C40.2651 22.4558 40.242 22.4693 40.2183 22.4815C40.1261 22.5295 40.0294 22.5596 39.9308 22.5698C39.9411 22.6787 39.9494 22.7901 39.9571 22.9034C39.9705 23.1019 39.9814 23.3068 39.9885 23.5168C40 23.8594 40.0019 24.2173 39.9923 24.588C40.0576 24.4228 40.1396 24.2538 40.2375 24.0841C40.3765 23.844 40.5468 23.6033 40.7479 23.3715C41.2044 22.8451 41.7301 22.4642 42.2135 22.2734C42.2558 22.8042 42.1315 23.4675 41.8319 24.1289C41.6571 24.5125 41.4439 24.8525 41.2121 25.1316C40.9861 25.4044 40.7421 25.6208 40.4994 25.763V25.7636C40.3009 25.8808 40.105 25.9499 39.92 25.9621H39.9193C39.9136 25.9628 39.9084 25.9634 39.9027 25.9634C39.8681 26.2919 39.8233 26.628 39.765 26.9693C39.7061 27.3215 39.6344 27.68 39.5479 28.0431C39.7631 27.7876 40.0237 27.5379 40.324 27.3093Z" fill="#333F2B"/>
<path d="M1.89849 27.2895C1.3107 26.8419 0.683206 26.5608 0.140234 26.4673C0.210667 27.0269 0.483433 27.689 0.938044 28.3101C1.29085 28.7935 1.70128 29.1783 2.10659 29.437C2.41713 29.6361 2.72511 29.7597 3.00428 29.7962C3.07408 29.8058 3.14259 29.809 3.20854 29.8071C3.22583 29.8545 3.24375 29.9025 3.26168 29.9512C3.32379 30.1177 3.39038 30.2841 3.46017 30.4519C3.57799 30.7355 3.70669 31.0198 3.84627 31.3048C3.67788 31.2298 3.49987 31.1633 3.31227 31.1063C2.65852 30.9078 2.02399 30.8668 1.52328 30.9596C1.76467 31.4226 2.2148 31.9086 2.80963 32.3004C3.49667 32.7538 4.22213 32.9804 4.78239 32.9606C4.88355 33.1187 4.9892 33.2756 5.09869 33.4325H6.94083C6.94083 33.4325 6.42283 33.0406 5.74732 32.2799C5.40284 31.8906 5.0161 31.4072 4.63768 30.8277V30.8271C4.57685 30.7349 4.51602 30.6389 4.45584 30.5415C4.52819 30.4935 4.59862 30.4346 4.66457 30.3648C5.07308 29.9364 5.35097 29.1175 5.35353 28.1763C5.35545 27.4931 5.21203 26.8739 4.97896 26.4212C4.60567 26.7855 4.26951 27.3561 4.06526 28.0373C4.04797 28.0943 4.0326 28.1513 4.01787 28.2083C3.90262 28.6527 3.85908 29.0823 3.88085 29.4626C3.88149 29.4774 3.88277 29.4921 3.88341 29.5068C3.87893 29.4972 3.87445 29.4882 3.86996 29.4786C3.5607 28.846 3.28409 28.1398 3.07408 27.3625C3.03438 27.2152 2.99724 27.066 2.96266 26.9136C3.08688 26.8707 3.21366 26.8041 3.33788 26.7158C3.6529 26.4936 3.96025 26.1376 4.21509 25.6894C4.33546 25.4755 4.44495 25.2405 4.53651 24.9889C4.77406 24.3383 4.85218 23.698 4.78751 23.1839C4.66777 23.2549 4.5474 23.3183 4.42894 23.3721C4.05437 23.6129 3.6766 23.967 3.34876 24.4088C3.31547 24.4536 3.28345 24.4984 3.25272 24.5439C3.02413 24.8743 2.84997 25.2136 2.73536 25.5382C2.6598 24.8288 2.64572 24.0732 2.70911 23.2748C2.71615 23.189 2.72383 23.1013 2.73216 23.0142C2.77698 23.0142 2.82372 23.0104 2.8711 23.0027C3.29434 22.9412 3.78224 22.6351 4.21957 22.1556C4.4219 21.934 4.61399 21.6753 4.78303 21.3866C5.13711 20.784 5.33048 20.1617 5.35737 19.6405C4.83873 19.7698 4.24774 20.1008 3.71501 20.599C3.69965 20.6131 3.68492 20.6272 3.67019 20.6413V20.6419C3.38974 20.9095 3.15603 21.197 2.97547 21.4832C3.08816 20.9595 3.23543 20.4197 3.42112 19.8646C3.48899 19.6584 3.56326 19.4503 3.64202 19.2403C3.64266 19.2403 3.64266 19.2396 3.64266 19.2396C3.86292 19.0386 4.06846 18.7537 4.23621 18.4098C4.36299 18.1499 4.46992 17.8566 4.54548 17.5403C4.69595 16.9141 4.69915 16.3141 4.58262 15.8474C4.16066 16.1009 3.7291 16.5517 3.39294 17.1331C3.25784 17.3668 3.14899 17.603 3.06703 17.8342C2.87814 18.3624 2.82692 18.8638 2.91656 19.2409C2.91656 19.2409 2.91656 19.2409 2.91656 19.2416C2.91464 19.246 2.89863 19.2928 2.87238 19.3792C2.87238 19.3792 2.87238 19.3792 2.87174 19.3799C2.85766 19.4273 2.83973 19.4862 2.81988 19.5579C2.73472 19.8563 2.60666 20.3576 2.49141 21.0158C2.48948 20.729 2.45299 20.4197 2.37999 20.1002C2.3531 19.983 2.32109 19.8639 2.28395 19.7448C2.07649 19.0776 1.7461 18.5167 1.37793 18.1467C1.12501 18.6173 0.97262 19.2774 0.982865 20.0061C0.988628 20.4344 1.04946 20.8365 1.15318 21.19C1.32094 21.7663 1.60075 22.2113 1.93499 22.4219C1.9574 22.436 1.98045 22.4495 2.00414 22.4616C2.09634 22.5096 2.19303 22.5397 2.29163 22.55C2.28139 22.6588 2.27306 22.7702 2.26538 22.8836C2.25193 23.0821 2.24105 23.287 2.23401 23.497C2.22248 23.8395 2.22056 24.1975 2.23016 24.5682C2.16485 24.403 2.0829 24.234 1.98493 24.0643C1.84599 23.8242 1.67567 23.5834 1.47461 23.3516C1.01808 22.8253 0.492398 22.4443 0.00897339 22.2535C-0.0332862 22.7843 0.0909314 23.4477 0.39059 24.1091C0.565392 24.4926 0.77861 24.8326 1.0104 25.1118C1.23642 25.3846 1.48038 25.601 1.72305 25.7431V25.7438C1.92154 25.861 2.11747 25.9301 2.30252 25.9423H2.30316C2.30892 25.9429 2.31404 25.9436 2.31981 25.9436C2.35438 26.272 2.3992 26.6082 2.45747 26.9495C2.51638 27.3016 2.58809 27.6602 2.67453 28.0232C2.45875 27.7678 2.19815 27.518 1.89849 27.2895Z" fill="#333F2B"/>
<path d="M31.5987 10.1743L29.1284 4.46479C29.4204 4.37771 29.633 4.10815 29.633 3.78736C29.633 3.66314 29.601 3.54597 29.5446 3.4448C29.5017 3.36796 29.4447 3.29881 29.3768 3.2431C29.2712 3.15602 29.1393 3.09776 28.9952 3.08431C28.9728 3.08239 28.9504 3.08111 28.9274 3.08111C28.7974 3.08111 28.6764 3.11569 28.572 3.17651C28.4804 3.2303 28.401 3.30457 28.3421 3.39229C28.3421 3.39229 28.3421 3.39293 28.3408 3.39357C28.3396 3.39614 28.3357 3.40318 28.3287 3.41342C28.3261 3.41663 28.3236 3.41983 28.3216 3.42367C28.2115 3.5671 27.6327 4.11391 25.6542 3.20917C23.7032 2.31723 22.3714 2.21927 22.055 2.20902C22.0583 2.17893 22.0595 2.14884 22.0595 2.1181C22.0595 1.76786 21.8713 1.45988 21.5908 1.29212V1.05137C21.683 0.940596 21.7387 0.79781 21.7387 0.641578C21.7387 0.485986 21.6837 0.343199 21.5908 0.231788C21.4724 0.0902819 21.295 0 21.0959 0C20.989 0 20.8871 0.0262522 20.7988 0.0729939C20.7962 0.0742745 20.793 0.0755551 20.7898 0.077476C20.7002 0.122297 20.6221 0.187607 20.5632 0.267644C20.4825 0.374574 20.4345 0.507756 20.4345 0.651822C20.4345 0.79717 20.4818 0.930352 20.5632 1.03728V1.31517C20.2936 1.48485 20.1137 1.78579 20.1137 2.12835C20.1137 2.15908 20.1149 2.18918 20.1181 2.21927C19.8018 2.22951 18.47 2.32684 16.519 3.21941C14.5399 4.12415 13.9617 3.5767 13.8516 3.43391C13.8496 3.43007 13.8471 3.42687 13.8445 3.42367C13.8375 3.41342 13.8336 3.40638 13.8324 3.40382C13.8311 3.40318 13.8311 3.40254 13.8311 3.40254C13.7722 3.31482 13.6928 3.24054 13.6012 3.18676C13.4968 3.12593 13.3752 3.09135 13.2458 3.09135C13.2228 3.09135 13.2004 3.09264 13.178 3.09456C13.0333 3.108 12.902 3.16563 12.7964 3.25335C12.7291 3.30906 12.6721 3.37757 12.6286 3.45504C12.5722 3.55621 12.5402 3.67338 12.5402 3.7976C12.5402 4.11775 12.7528 4.38732 13.0448 4.47504L10.5745 10.1846H9.51227C9.68323 10.5451 9.89581 10.8793 10.1442 11.1789C10.2396 11.2955 10.3427 11.4075 10.4497 11.5132C11.227 12.2822 12.2655 12.7522 13.4066 12.7522C14.5495 12.7522 15.59 12.2803 16.3673 11.5087C16.4749 11.4031 16.5773 11.2904 16.6727 11.1738C16.9199 10.8754 17.1318 10.5438 17.3008 10.1846H16.2444L13.8311 4.60566C13.8311 4.60566 15.3095 4.88867 16.4921 4.24709C17.6748 3.60487 19.4068 3.45056 20.4338 3.97689H20.4345C20.4735 4.01722 20.5164 4.05308 20.5632 4.0851V11.6099C20.7303 11.5804 20.9012 11.565 21.0767 11.565C21.2521 11.565 21.4231 11.5804 21.5902 11.6099V4.08702C21.644 4.05308 21.6933 4.0121 21.7381 3.96664H21.7387C22.7658 3.44032 24.4984 3.59527 25.6804 4.23685C26.8637 4.87906 28.3415 4.59541 28.3415 4.59541L25.9282 10.1743H24.8724C25.042 10.5329 25.2533 10.8652 25.5005 11.1636C25.5959 11.2801 25.6983 11.3928 25.8059 11.4985C26.5832 12.27 27.6231 12.7419 28.7666 12.7419C29.907 12.7419 30.9462 12.2719 31.7235 11.5029C31.8305 11.3973 31.9336 11.2852 32.029 11.1687C32.278 10.869 32.4906 10.5354 32.6609 10.1743H31.5987ZM15.7936 10.1839H11.024L13.4085 4.67097L15.7936 10.1839ZM26.379 10.1743L28.7634 4.66136L31.1479 10.1743H26.379Z" fill="#333F2B"/>
</svg>
