<svg width="151" height="11" viewBox="0 0 151 11" fill="none" xmlns="http://www.w3.org/2000/svg">
<path d="M10.7051 0.282257L10.7155 4.97015H10.4849C10.2302 3.17691 9.82745 1.94471 9.27674 1.27353C8.82585 0.712499 8.16156 0.433706 7.28387 0.437148C7.06359 0.437148 6.94312 0.447476 6.92247 0.471569C6.87772 0.505988 6.85707 0.647107 6.85707 0.901809L6.87428 9.81294C6.87428 10.133 6.89837 10.3361 6.93968 10.4222C6.96033 10.4669 7.03949 10.5116 7.17028 10.5633C7.30108 10.6115 7.55578 10.6528 7.92751 10.6872C8.29923 10.7182 8.8052 10.7354 9.44195 10.7319V10.8971L2.2862 10.9109V10.7457C2.91263 10.7457 3.41171 10.7285 3.78343 10.6941C4.15516 10.6596 4.40986 10.6183 4.54066 10.5667C4.67145 10.5185 4.7575 10.4566 4.79536 10.3843C4.83322 10.312 4.85387 10.1227 4.85043 9.81294L4.83322 0.915569C4.83322 0.62989 4.7988 0.475005 4.7334 0.454353C4.69898 0.444027 4.5854 0.437148 4.38921 0.437148C3.53217 0.437148 2.88165 0.715945 2.4342 1.26665C1.88693 1.95159 1.47735 3.17692 1.20888 4.95295H0.978269L0.967941 0.296028L10.7051 0.282257Z" fill="black"/>
<path d="M19.9708 9.78539L19.9639 5.52774L15.276 5.53806L15.2829 9.79572C15.2829 10.1158 15.307 10.3189 15.3483 10.4049C15.3689 10.4497 15.4446 10.4944 15.572 10.5461C15.6993 10.5942 15.9299 10.6355 16.2707 10.67C16.6114 10.7009 17.0107 10.7182 17.4719 10.7182V10.8834L11.0218 10.8971V10.7319C11.4933 10.7319 11.9029 10.7147 12.2471 10.6803C12.5913 10.6459 12.8288 10.6046 12.9527 10.5529C13.08 10.5047 13.1592 10.4428 13.2005 10.3705C13.2384 10.2982 13.259 10.1089 13.2556 9.8026L13.2384 1.35269C13.2384 1.03259 13.2143 0.836395 13.173 0.757231C13.1523 0.712486 13.0766 0.671181 12.9492 0.626436C12.8219 0.581691 12.5775 0.540387 12.2092 0.495642C11.8409 0.450897 11.4382 0.430248 11.0011 0.43369V0.285689L17.465 0.271919V0.419919C16.5323 0.419919 15.8921 0.488767 15.541 0.623001C15.4309 0.667746 15.3655 0.712483 15.3448 0.753786C15.2897 0.853601 15.2622 1.04979 15.2622 1.34924L15.2691 5.2627L19.957 5.25238L19.9501 1.33892C19.9501 1.03259 19.9226 0.83295 19.8675 0.74346C19.8469 0.698715 19.7746 0.657421 19.6541 0.612676C19.5336 0.567931 19.2858 0.526626 18.9141 0.481881C18.5424 0.437136 18.1465 0.416477 17.7301 0.419919V0.271919L24.194 0.258148V0.406159C23.7018 0.406159 23.2957 0.423366 22.9756 0.457785C22.6589 0.492205 22.4111 0.540392 22.2355 0.609231L22.0875 0.674628C22.0118 0.753792 21.974 0.970627 21.974 1.33547L21.9912 9.78539C21.9912 10.1055 22.0153 10.3086 22.0566 10.3946C22.0772 10.4394 22.1461 10.4807 22.2528 10.5254C22.5694 10.6459 23.2234 10.7044 24.2112 10.7044V10.8696L17.761 10.8834V10.7182C18.7248 10.7147 19.3684 10.6528 19.6851 10.5323C19.8055 10.4875 19.8778 10.4428 19.8985 10.3981C19.9501 10.3223 19.9708 10.1158 19.9708 9.78539Z" fill="black"/>
<path d="M28.6341 5.34875L28.6444 9.75441C28.6444 10.0642 28.6616 10.2569 28.6961 10.3327C28.7305 10.4084 28.8337 10.4772 29.0093 10.5392C29.1848 10.5977 29.3879 10.6355 29.6151 10.6459C29.8457 10.6562 30.2552 10.6596 30.8473 10.6596C32.0932 10.6562 33.0363 10.2845 33.6765 9.54101C34.3133 8.79755 34.716 7.60321 34.8743 5.96486H35.0877L35.098 10.8524L24.404 10.873V10.7078C25.3815 10.7044 26.0251 10.6424 26.3452 10.522C26.4554 10.4772 26.5277 10.4187 26.5655 10.3499C26.6034 10.2776 26.624 10.0883 26.6206 9.78194L26.6034 1.33203C26.6034 1.01193 26.5793 0.815741 26.538 0.736577C26.5173 0.691832 26.445 0.650527 26.3246 0.605782C26.2041 0.561037 25.9563 0.519733 25.5846 0.474988C25.2128 0.430243 24.8101 0.409594 24.3833 0.413036V0.265035L34.5336 0.244385L34.5404 4.35747H34.327C34.327 3.51076 34.1102 2.69847 33.6834 1.93092C33.112 0.908673 32.3066 0.395823 31.2706 0.399265C30.8541 0.399265 30.4377 0.402706 30.0143 0.40959C29.5944 0.416474 29.2192 0.46811 28.8922 0.567926C28.7924 0.612671 28.727 0.671177 28.6892 0.743457C28.6513 0.815737 28.6307 1.01193 28.6341 1.33203L28.641 5.19042C29.7734 5.18698 30.479 5.06996 30.7509 4.83935C31.1639 4.48828 31.453 3.54519 31.6114 2.00665H31.8076L31.8213 8.48778H31.6251C31.4599 6.9871 31.1742 6.06123 30.7681 5.71016C30.4755 5.46578 29.7665 5.34531 28.6341 5.34875Z" fill="black"/>
<path d="M46.3221 10.6252C47.6438 10.6218 48.6557 10.2156 49.3544 9.40678C50.0532 8.59793 50.4008 7.3726 50.3973 5.73081H50.6107L50.6211 10.8145L39.8616 10.8352V10.67C40.3435 10.67 40.7565 10.6527 41.0938 10.6183C41.4346 10.5839 41.6652 10.5426 41.7925 10.4944C41.9199 10.4462 41.9991 10.3843 42.0404 10.312C42.0782 10.2397 42.0989 10.0504 42.0954 9.74409L42.0782 1.29417C42.0782 0.974068 42.0541 0.777886 42.0128 0.698722C41.9922 0.653977 41.9165 0.612672 41.7891 0.567927C41.6618 0.523182 41.4174 0.481877 41.0491 0.437132C40.6808 0.392387 40.2781 0.371738 39.841 0.37518V0.22717L46.6043 0.213409V0.36141C45.9882 0.36141 45.5098 0.378617 45.1656 0.413036C44.8214 0.447455 44.5771 0.492205 44.4325 0.547276C44.2914 0.602347 44.2088 0.650531 44.1847 0.695276C44.1296 0.795092 44.1021 0.991275 44.1021 1.29072L44.1193 9.72343C44.1193 10.0435 44.1434 10.2466 44.1847 10.3327C44.2053 10.3774 44.2707 10.4187 44.3809 10.4634C44.756 10.5736 45.4031 10.6287 46.3221 10.6252Z" fill="black"/>
<path d="M55.2505 5.29369L55.2609 9.69936C55.2609 10.0091 55.2781 10.2019 55.3125 10.2776C55.3469 10.3533 55.4502 10.4222 55.6257 10.4841C55.8012 10.5426 56.0043 10.5805 56.2315 10.5908C56.4621 10.6011 56.8717 10.6046 57.4637 10.6046C58.7097 10.6011 59.6527 10.2294 60.2929 9.48596C60.9297 8.74251 61.3324 7.54816 61.4907 5.9098H61.7041L61.7145 10.7973L51.0204 10.818V10.6528C51.9979 10.6528 52.6416 10.5908 52.9616 10.4669C53.0718 10.4222 53.1441 10.3636 53.1819 10.2948C53.2198 10.2225 53.2404 10.0332 53.237 9.72345L53.2198 1.27353C53.2198 0.953435 53.1957 0.757245 53.1544 0.681523C53.1338 0.636778 53.0615 0.592032 52.941 0.550729C52.8205 0.505984 52.5727 0.464679 52.201 0.419934C51.8293 0.375189 51.4266 0.35454 50.9998 0.357982V0.209982L61.15 0.189331L61.1569 4.30242H60.9435C60.9435 3.45571 60.7266 2.64342 60.2998 1.87587C59.7285 0.85362 58.9231 0.340769 57.8836 0.344211C57.4671 0.344211 57.0507 0.347663 56.6273 0.354547C56.2074 0.361431 55.8322 0.413057 55.5052 0.512872C55.4054 0.557617 55.34 0.616123 55.3022 0.688403C55.2643 0.760684 55.2436 0.956881 55.2471 1.27698L55.254 5.13537C56.3864 5.13193 57.092 5.01491 57.3639 4.7843C57.7769 4.43322 58.066 3.49013 58.2243 1.95159H58.4205L58.4343 8.43272H58.2381C58.0729 6.93205 57.7872 6.00274 57.3811 5.6551C57.0954 5.41073 56.3864 5.29025 55.2505 5.29369Z" fill="black"/>
<path d="M71.4826 10.7732H71.3518C71.3518 10.343 71.2795 10.0229 71.1384 9.80948C70.9973 9.59608 70.8183 9.48938 70.6015 9.48938C70.2298 9.48938 69.9165 9.59953 69.6653 9.81981C69.5448 9.92995 69.4312 10.0401 69.3211 10.1502C68.9046 10.4703 68.5639 10.6803 68.2954 10.7801C68.0269 10.8799 67.6518 10.9315 67.1699 10.9315C65.9308 10.935 64.8913 10.5461 64.0446 9.76818C63.0224 8.83886 62.513 7.48962 62.5095 5.72392C62.5061 4.01328 63.0602 2.59866 64.1789 1.47659C65.1288 0.519736 66.1098 0.0413144 67.1183 0.0413144C67.7963 0.0413144 68.3436 0.13768 68.7635 0.333869C69.2901 0.585129 69.8099 1.06012 70.3261 1.76227L71.2555 0.0344238L71.2658 4.67414H71.1178C70.8837 3.22165 70.4156 2.09614 69.7135 1.30106C69.0526 0.561046 68.2782 0.189314 67.3902 0.189314C66.5469 0.189314 65.8792 0.657418 65.3939 1.59018C64.9086 2.52294 64.6676 3.83775 64.6711 5.53462C64.6745 7.22116 64.9017 8.51876 65.356 9.42743C65.8103 10.3361 66.4333 10.787 67.2284 10.787C67.9684 10.787 68.5467 10.5874 68.9597 10.1881C69.3727 9.79227 69.5792 9.21403 69.5758 8.45337L69.5724 6.45705C69.5724 6.16104 69.5552 5.97174 69.5207 5.89601C69.4863 5.82029 69.4175 5.75834 69.3073 5.71359C69.1972 5.66885 68.9769 5.63099 68.6396 5.60001C68.3057 5.56904 68.0166 5.55182 67.7757 5.55182V5.40382L73.4514 5.3935V5.5415C73.2105 5.5415 72.9076 5.56559 72.5462 5.61034C72.1848 5.65508 71.9404 5.68951 71.8131 5.71016C71.6857 5.73425 71.6065 5.77211 71.5756 5.82718C71.5102 5.93732 71.4792 6.14727 71.4792 6.4536L71.4826 10.7732Z" fill="black"/>
<path d="M79.8224 7.05596L76.6524 7.06285L76.1499 8.51878C76.0191 8.88362 75.9537 9.19684 75.9537 9.46187C75.9537 9.86802 76.1086 10.1606 76.4149 10.3361C76.7212 10.5117 77.1549 10.5977 77.7159 10.5977V10.7629L73.5374 10.7698V10.6046C74.2947 10.6046 74.8798 10.3155 75.2963 9.74411C75.5269 9.42401 75.8194 8.76661 76.1808 7.76501L78.9447 0.0137939H79.2751L82.8478 9.6615C83.0131 10.1124 83.1783 10.3774 83.3435 10.46C83.5087 10.5426 84.0009 10.5839 84.8235 10.5805V10.7457L78.752 10.7595V10.5943C79.5746 10.5943 80.1391 10.5598 80.4454 10.5013C80.7517 10.4394 80.9066 10.3155 80.9066 10.1296L80.8722 9.96439L79.8224 7.05596ZM79.7398 6.87354L78.2288 2.68817L76.735 6.88043L79.7398 6.87354Z" fill="black"/>
<path d="M91.3184 10.5357C92.64 10.5323 93.652 10.1262 94.3507 9.3173C95.0494 8.50845 95.397 7.28313 95.3936 5.64133H95.607L95.6173 10.725L84.8579 10.7457V10.5805C85.3397 10.5805 85.7528 10.5633 86.0901 10.5289C86.4308 10.4944 86.6614 10.4531 86.7888 10.4049C86.9161 10.3568 86.9953 10.2948 87.0366 10.2225C87.0745 10.1502 87.0951 9.96094 87.0917 9.65461L87.0745 1.20469C87.0745 0.884591 87.0504 0.688408 87.0091 0.609244C86.9884 0.564499 86.9127 0.523194 86.7853 0.478449C86.658 0.433704 86.4136 0.3924 86.0453 0.347655C85.677 0.30291 85.2743 0.282261 84.8372 0.285703V0.137703L91.5971 0.123932V0.271932C90.9845 0.271932 90.5026 0.289139 90.1584 0.323559C89.8142 0.357978 89.5699 0.402728 89.4253 0.457799C89.2807 0.512869 89.2016 0.561054 89.1775 0.605799C89.1224 0.705614 89.0949 0.901808 89.0949 1.20125L89.1121 9.63396C89.1121 9.95406 89.1362 10.1571 89.1775 10.2432C89.1981 10.2879 89.2635 10.3292 89.3737 10.374C89.7523 10.4841 90.3994 10.5392 91.3184 10.5357Z" fill="black"/>
<path d="M107.726 10.701L100.061 10.7147V10.5495C101.214 10.5461 101.902 10.5013 102.133 10.4118C102.243 10.3671 102.319 10.3051 102.364 10.2225C102.408 10.1399 102.429 9.94028 102.429 9.62019L102.412 1.15306C102.412 0.846727 102.388 0.647095 102.346 0.561047C102.326 0.516302 102.253 0.471555 102.133 0.430252C101.813 0.309785 101.118 0.251276 100.044 0.251276V0.103276L106.773 0.0895053C107.957 0.0860634 108.9 0.402723 109.605 1.03948C110.166 1.542 110.445 2.06173 110.449 2.60211C110.449 3.25952 110.28 3.75515 109.943 4.08214C109.495 4.53303 108.648 4.85313 107.402 5.04244C108.714 5.20421 109.678 5.57937 110.29 6.17138C110.793 6.65325 111.047 7.2728 111.047 8.03002C111.047 8.64612 110.765 9.22092 110.194 9.75786C109.533 10.3843 108.714 10.6975 107.726 10.701ZM104.439 4.98392L105.964 4.98047C106.762 4.98047 107.351 4.82903 107.733 4.52958C108.191 4.17506 108.418 3.58306 108.418 2.75699C108.414 1.82768 108.229 1.17715 107.857 0.801986C107.485 0.426816 106.855 0.240951 105.971 0.240951H105.186C104.955 0.240951 104.787 0.258158 104.676 0.292577C104.566 0.326997 104.501 0.399279 104.473 0.50942C104.446 0.619562 104.432 0.836404 104.432 1.1565L104.439 4.98392ZM106.391 5.12848L104.442 5.13192L104.453 9.62019C104.453 9.95061 104.473 10.1606 104.511 10.2466C104.549 10.3361 104.632 10.4049 104.759 10.4531C104.886 10.5013 105.052 10.5323 105.255 10.5426C105.458 10.5529 105.933 10.5564 106.683 10.5564C107.464 10.5564 108.046 10.3189 108.432 9.84391C108.783 9.41367 108.958 8.81478 108.955 8.04379C108.955 7.13168 108.748 6.42609 108.339 5.93389C107.898 5.39351 107.248 5.12504 106.391 5.12848Z" fill="black"/>
<path d="M122.822 8.30192V8.84574C122.822 9.49282 122.764 9.94372 122.643 10.195C122.447 10.6115 122.055 10.8214 121.47 10.8214C120.709 10.8214 120.206 10.5392 119.962 9.96781C119.762 9.50659 119.663 8.63235 119.659 7.33474V6.99055C119.659 6.88041 119.663 6.76683 119.676 6.64636C119.676 6.06467 119.539 5.67229 119.263 5.47266C118.991 5.26959 118.596 5.16977 118.083 5.16977L116.152 5.17322L116.162 9.59608C116.162 9.9265 116.183 10.1365 116.221 10.2225C116.259 10.3086 116.341 10.3808 116.469 10.429C116.596 10.4772 116.854 10.5082 117.243 10.5185C117.632 10.5288 118.041 10.5323 118.468 10.5323V10.6803L111.774 10.6941V10.5288C112.927 10.5254 113.615 10.4806 113.846 10.3912C113.956 10.3464 114.032 10.2845 114.076 10.2019C114.121 10.1193 114.142 9.91962 114.142 9.59952L114.125 1.11519C114.125 0.808858 114.1 0.616113 114.059 0.536948C114.039 0.492203 113.966 0.450899 113.846 0.406154C113.526 0.285687 112.83 0.227167 111.757 0.227167V0.079167L118.485 0.0653964C119.67 0.0619545 120.613 0.378615 121.318 1.01537C121.879 1.51789 122.158 2.04107 122.161 2.57801C122.161 3.21476 121.945 3.73793 121.504 4.14408C120.977 4.63971 120.141 4.95293 118.995 5.08717C120.165 5.31434 120.94 5.96485 121.315 7.03873C121.504 7.57567 121.6 8.38452 121.604 9.46873C121.604 9.78538 121.631 10.016 121.69 10.1571C121.745 10.2982 121.879 10.3705 122.089 10.3705C122.323 10.3705 122.482 10.1847 122.571 9.81981C122.661 9.45152 122.702 8.94556 122.702 8.29848H122.822V8.30192ZM116.155 4.99079L117.68 4.98735C118.479 4.98735 119.067 4.83591 119.449 4.53646C119.907 4.18194 120.134 3.58648 120.134 2.74666C120.134 1.82078 119.941 1.16682 119.566 0.784767C119.188 0.402714 118.565 0.2134 117.69 0.216842H116.906C116.675 0.216842 116.506 0.23406 116.396 0.268479C116.286 0.302898 116.221 0.371728 116.193 0.474986C116.166 0.578243 116.152 0.791645 116.152 1.11174L116.155 4.99079Z" fill="black"/>
<path d="M127.372 5.14914L127.383 9.5548C127.383 9.86457 127.4 10.0539 127.434 10.133C127.469 10.2088 127.572 10.2776 127.748 10.3396C127.923 10.3981 128.126 10.4359 128.353 10.4463C128.581 10.4566 128.994 10.46 129.586 10.46C130.832 10.4566 131.775 10.0849 132.415 9.3414C133.055 8.59795 133.454 7.40359 133.613 5.76524H133.826L133.836 10.6528L123.142 10.6734V10.5082C124.12 10.5048 124.767 10.4428 125.084 10.3224C125.194 10.2776 125.266 10.2191 125.304 10.1503C125.342 10.078 125.362 9.88867 125.359 9.58234L125.342 1.13242C125.342 0.812319 125.318 0.616136 125.276 0.536972C125.256 0.492227 125.183 0.44748 125.063 0.406177C124.942 0.361432 124.695 0.320128 124.323 0.275383C123.951 0.230638 123.549 0.209989 123.122 0.213431V0.06542L133.272 0.0447693L133.279 4.15787H133.065C133.065 3.31116 132.849 2.49887 132.422 1.73132C131.85 0.709068 131.045 0.196218 130.009 0.19966C129.593 0.19966 129.176 0.203101 128.753 0.209985C128.333 0.216869 127.958 0.268495 127.631 0.368311C127.531 0.413056 127.465 0.471572 127.424 0.543852C127.386 0.616132 127.369 0.812319 127.369 1.13242L127.376 4.99081C128.508 4.98737 129.214 4.87034 129.486 4.63974C129.899 4.28866 130.188 3.34557 130.346 1.80703H130.542L130.556 8.28817H130.36C130.195 6.7875 129.909 5.86162 129.503 5.51054C129.217 5.26961 128.508 5.14914 127.372 5.14914Z" fill="black"/>
<path d="M142.544 2.6847L140.483 10.7009H139.922L136.284 1.10142C136.118 0.650527 135.95 0.385497 135.781 0.302891C135.609 0.220285 135.148 0.17899 134.391 0.182432V0.0344213L140.001 0.024096V0.172096C139.333 0.172096 138.868 0.20996 138.61 0.28224C138.352 0.35452 138.225 0.49564 138.225 0.702155C138.225 0.812296 138.259 0.943087 138.325 1.09797L140.92 7.99903L142.41 2.27167L142.056 1.09797C141.921 0.657408 141.76 0.392381 141.574 0.302891C141.385 0.213401 140.903 0.172096 140.128 0.172096V0.024096L145.766 0.0137706V0.161771C145.098 0.161771 144.637 0.199634 144.382 0.271915C144.124 0.344195 143.997 0.495642 143.997 0.726251C143.997 0.846718 144.021 0.967181 144.062 1.08765L146.2 8.00591L148.003 2.87401C148.186 2.33362 148.279 1.89651 148.279 1.55576C148.279 0.622994 147.618 0.154894 146.303 0.158336V0.0103358L150.547 0V0.148011C149.769 0.148011 149.194 0.550715 148.823 1.35268C148.767 1.47315 148.564 2.01353 148.217 2.96694L145.535 10.6837H144.992L142.544 2.6847Z" fill="black"/>
</svg>
