<svg width="96" height="9" viewBox="0 0 96 9" fill="none" xmlns="http://www.w3.org/2000/svg">
<path d="M6.37256 6.57162H6.61465L6.11543 8.34598H0.222473V8.1099C0.554788 8.1099 0.792371 8.00614 0.933718 7.79713C1.07506 7.58962 1.14574 7.23926 1.14574 6.74906V1.629C1.14574 1.18992 1.07958 0.883168 0.948755 0.70874C0.81643 0.535816 0.57584 0.448602 0.223977 0.448602V0.212524H3.13662V0.448602C2.81333 0.448602 2.58026 0.547845 2.44041 0.746332C2.29907 0.944819 2.22839 1.27262 2.22839 1.73125V7.16708C2.22839 7.46782 2.29155 7.67383 2.41936 7.7836C2.54567 7.89487 2.79077 7.95051 3.15015 7.95051H4.76361C5.26284 7.95051 5.61169 7.86329 5.81018 7.69037C6.00867 7.51744 6.19663 7.14453 6.37256 6.57162Z" fill="black"/>
<path d="M12.3482 3.29204H12.5903V5.26789H12.3482C12.261 4.92204 12.1542 4.704 12.0294 4.61679C11.9046 4.52958 11.6324 4.48446 11.2114 4.48446H9.19346V7.39711C9.19346 7.60011 9.23857 7.74296 9.32879 7.82717C9.41902 7.90987 9.57239 7.95197 9.79043 7.95197H11.2114C11.7197 7.95197 12.0715 7.9234 12.2655 7.86927C12.4595 7.81514 12.6234 7.71138 12.7572 7.56101C12.891 7.41064 13.0339 7.16705 13.1873 6.82872H13.4294L13.0549 8.34744H7.19656V8.11136C7.56196 8.11136 7.80706 8.01813 7.93187 7.83017C8.05667 7.64221 8.11983 7.3099 8.11983 6.83473V1.74775C8.11983 1.25304 8.05517 0.913204 7.92585 0.728251C7.79654 0.543297 7.55444 0.450069 7.19807 0.450069V0.213989H13.0564V1.57332H12.9046C12.8219 1.18537 12.7031 0.92824 12.5482 0.800427C12.3933 0.674117 12.0565 0.60946 11.5392 0.60946H9.19346V4.0905H11.467C11.7768 4.0905 11.9873 4.03486 12.1016 3.92359C12.2159 3.81232 12.2971 3.6018 12.3482 3.29204Z" fill="black"/>
<path d="M22.8394 4.82434V5.06042C22.4786 5.06042 22.2214 5.14312 22.0665 5.30702C21.9117 5.47092 21.835 5.75512 21.835 6.15811V8.34598C21.6455 8.3971 21.2906 8.44372 20.7704 8.48432C20.2501 8.52492 19.8471 8.54747 19.5599 8.54747C18.0577 8.54747 16.8878 8.17756 16.0488 7.43775C15.2097 6.69793 14.7902 5.72355 14.7902 4.51157C14.7902 3.665 14.9736 2.90262 15.342 2.22446C15.7089 1.54479 16.2232 1.00647 16.8818 0.6095C17.5404 0.212526 18.2397 0.0140381 18.9795 0.0140381C19.4231 0.0140381 19.9057 0.092231 20.429 0.250118C20.7613 0.347858 21.0155 0.395976 21.1914 0.395976C21.423 0.395976 21.5748 0.305755 21.6485 0.125312H21.9056V2.5237H21.6771C21.5839 1.85756 21.2831 1.32525 20.7719 0.925273C20.2606 0.525292 19.6636 0.325303 18.9795 0.325303C18.1194 0.325303 17.4141 0.668142 16.8653 1.35533C16.3164 2.04251 16.0398 2.92819 16.0398 4.01385C16.0398 5.20628 16.357 6.1957 16.9931 6.98213C17.6292 7.76706 18.4276 8.16103 19.3885 8.16103C20.2982 8.16103 20.7538 7.87081 20.7538 7.29189V6.40923C20.7538 5.9085 20.6877 5.55964 20.5568 5.35965C20.4245 5.16117 20.1929 5.06042 19.8606 5.06042H19.5494V4.82434H22.8394Z" fill="black"/>
<path d="M28.5234 8.34597V8.10989C28.9895 8.10989 29.2226 7.94749 29.2226 7.62269C29.2226 7.52946 29.2015 7.42571 29.1594 7.30992L28.4046 5.05138H25.7942L25.2393 6.68439C25.101 7.0964 25.0318 7.39563 25.0318 7.58059C25.0318 7.92343 25.2453 8.09936 25.6754 8.10838V8.34446H23.5747V8.10838C23.8755 8.06628 24.1085 7.96703 24.2755 7.80915C24.4424 7.65126 24.6108 7.32496 24.7822 6.82874L27.0317 0.120789H27.8693L30.2301 7.12798C30.3684 7.53999 30.5128 7.80614 30.6631 7.92643C30.8135 8.04673 31.0556 8.10688 31.3879 8.10688V8.34296H28.5234V8.34597ZM25.9461 4.55366H28.2392L27.0858 1.10721L25.9461 4.55366Z" fill="black"/>
<path d="M38.4598 6.57162H38.7019L38.2026 8.34598H32.3097V8.1099C32.642 8.1099 32.8796 8.00614 33.0209 7.79713C33.1623 7.58962 33.233 7.23926 33.233 6.74906V1.629C33.233 1.18992 33.1668 0.883168 33.036 0.70874C32.9036 0.535816 32.6631 0.448602 32.3112 0.448602V0.212524H35.2238V0.448602C34.9005 0.448602 34.6675 0.547845 34.5276 0.746332C34.3863 0.944819 34.3156 1.27262 34.3156 1.73125V7.16708C34.3156 7.46782 34.3788 7.67383 34.5066 7.7836C34.6329 7.89487 34.878 7.95051 35.2374 7.95051H36.8523C37.3516 7.95051 37.7004 7.86329 37.8989 7.69037C38.0974 7.51744 38.2838 7.14453 38.4598 6.57162Z" fill="black"/>
<path d="M46.8218 0.0967357H47.0503V2.00341H46.8082C46.7526 1.47712 46.5616 1.06511 46.2368 0.768885C45.9105 0.472658 45.5 0.325297 45.0068 0.325297C44.5678 0.325297 44.2144 0.436569 43.9467 0.657611C43.6791 0.880157 43.5452 1.17488 43.5452 1.54479C43.5452 1.88763 43.6565 2.19889 43.8776 2.48008C44.1001 2.76278 44.5798 3.12516 45.3196 3.56875C46.1797 4.08151 46.7571 4.52961 47.0534 4.91305C47.3496 5.29649 47.4969 5.73557 47.4969 6.23028C47.4969 6.86785 47.2714 7.41369 46.8188 7.8663C46.3662 8.31891 45.8218 8.54596 45.1858 8.54596C44.8159 8.54596 44.3452 8.44371 43.7738 8.24072C43.5377 8.15801 43.3889 8.11591 43.3242 8.11591C43.1904 8.11591 43.0866 8.21966 43.0129 8.42868H42.7708V6.23028H43.0129C43.0175 6.83627 43.2144 7.32046 43.6039 7.68585C43.9933 8.05125 44.449 8.2332 44.9707 8.2332C45.464 8.2332 45.8594 8.10087 46.1572 7.83773C46.4549 7.57458 46.6037 7.22272 46.6037 6.78214C46.6037 6.45433 46.482 6.14006 46.2368 5.83932C45.9917 5.53859 45.4805 5.15063 44.7031 4.67697C44.0685 4.28601 43.646 3.97625 43.434 3.74919C43.222 3.52214 43.0641 3.27403 42.9633 3.00337C42.8611 2.7327 42.8114 2.43497 42.8114 2.11168C42.8114 1.48765 43.0159 0.980905 43.4249 0.592954C43.834 0.205002 44.3663 0.00952148 45.0234 0.00952148C45.3843 0.00952148 45.7767 0.0816997 46.2023 0.22455C46.4007 0.289209 46.5391 0.320786 46.6188 0.320786C46.6834 0.320786 46.727 0.307253 46.7511 0.278683C46.7676 0.256128 46.7932 0.192972 46.8218 0.0967357Z" fill="black"/>
<path d="M53.5538 3.29204H53.7959V5.26789H53.5538C53.4666 4.92204 53.3598 4.704 53.235 4.61679C53.1102 4.52958 52.838 4.48446 52.417 4.48446H50.3991V7.39711C50.3991 7.60011 50.4442 7.74296 50.5344 7.82717C50.6246 7.90987 50.778 7.95197 50.996 7.95197H52.417C52.9253 7.95197 53.2771 7.9234 53.4711 7.86927C53.6651 7.81514 53.829 7.71138 53.9628 7.56101C54.0966 7.41064 54.2395 7.16705 54.3929 6.82872H54.6349L54.2605 8.34744H48.4022V8.11136C48.7676 8.11136 49.0127 8.01813 49.1375 7.83017C49.2623 7.64221 49.3254 7.3099 49.3254 6.83473V1.74775C49.3254 1.25304 49.2608 0.913204 49.1315 0.728251C49.0021 0.543297 48.76 0.450069 48.4037 0.450069V0.213989H54.262V1.57332H54.1102C54.0275 1.18537 53.9087 0.92824 53.7538 0.800427C53.5989 0.674117 53.2621 0.60946 52.7448 0.60946H50.4021V4.0905H52.6756C52.9854 4.0905 53.1959 4.03486 53.3102 3.92359C53.42 3.81232 53.5027 3.6018 53.5538 3.29204Z" fill="black"/>
<path d="M58.2964 4.58221H57.6378V6.8197C57.6378 7.30088 57.7055 7.6377 57.8423 7.82717C57.9791 8.01663 58.2197 8.11136 58.5671 8.11136V8.34744H55.6409V8.11136C56.0018 8.11136 56.2454 8.01663 56.3717 7.82717C56.498 7.6377 56.5627 7.30238 56.5627 6.8212V1.71918C56.5627 1.238 56.4995 0.905686 56.3747 0.72374C56.2499 0.54029 56.0048 0.45007 55.6394 0.45007V0.213989H58.9746C59.7971 0.213989 60.4542 0.413981 60.9474 0.813962C61.4391 1.21394 61.6857 1.72369 61.6857 2.34321C61.6857 3.34166 61.1264 4.0078 60.0076 4.34011C60.2527 4.4965 60.4933 4.71303 60.7279 4.9882C60.9625 5.26338 61.2692 5.7205 61.6481 6.35956C62.0737 7.0678 62.406 7.53244 62.6451 7.75349C62.8842 7.97453 63.1338 8.09332 63.3909 8.11287V8.34895H61.7263C61.3835 7.93694 60.97 7.33245 60.4858 6.537C59.9685 5.69945 59.5625 5.16413 59.2693 4.93257C58.9761 4.69799 58.6513 4.58221 58.2964 4.58221ZM58.4904 0.525254H57.6378V4.24087H58.6363C59.2332 4.24087 59.7009 4.06945 60.0407 3.72811C60.3805 3.38527 60.5505 2.93266 60.5505 2.36878C60.5505 1.81843 60.3625 1.37333 59.9851 1.0335C59.6076 0.695169 59.1099 0.525254 58.4904 0.525254Z" fill="black"/>
<path d="M70.4147 0.214007V0.463619C69.8177 0.463619 69.3245 0.98991 68.9365 2.044L66.5367 8.45723H66.3066L63.7879 1.85603C63.5518 1.24554 63.3488 0.860594 63.1774 0.701203C63.006 0.541812 62.7609 0.457604 62.4421 0.448582V0.212504H65.3954V0.448582C64.9202 0.448582 64.6841 0.630528 64.6841 0.995924C64.6841 1.11622 64.7142 1.25306 64.7743 1.40493L66.7652 6.6528L68.6538 1.58537C68.732 1.36734 68.7711 1.18088 68.7711 1.02299C68.7711 0.639551 68.529 0.447079 68.0433 0.447079V0.210999H70.4147V0.214007Z" fill="black"/>
<path d="M73.9167 0.214027V0.450107C73.5694 0.450107 73.3303 0.54484 73.195 0.734305C73.0596 0.923769 72.9935 1.2621 72.9935 1.74779V6.82124C72.9935 7.30693 73.0611 7.64375 73.195 7.83021C73.3288 8.01667 73.5694 8.1114 73.9167 8.1114V8.34748H70.9906V8.1114C71.3469 8.1114 71.589 8.01817 71.7184 7.83322C71.8477 7.64826 71.9123 7.30994 71.9123 6.81973V1.74629C71.9123 1.24706 71.8492 0.905725 71.7214 0.722275C71.5935 0.538825 71.35 0.448602 70.9906 0.448602V0.212524H73.9167V0.214027Z" fill="black"/>
<path d="M82.3058 0.0967414V2.52369H82.0637C81.8698 1.77035 81.5585 1.21548 81.1314 0.85911C80.7044 0.502736 80.1345 0.325303 79.4218 0.325303C78.497 0.325303 77.7647 0.657618 77.2234 1.32375C76.682 1.98989 76.4129 2.87706 76.4129 3.98678C76.4129 5.20327 76.6986 6.18067 77.2685 6.92349C77.8399 7.66481 78.5872 8.03622 79.512 8.03622C80.7916 8.03622 81.7374 7.44076 82.3479 6.24683L82.563 6.44832C82.2908 7.09491 81.8502 7.60767 81.2427 7.98359C80.6352 8.35951 79.942 8.54898 79.1661 8.54898C78.4308 8.54898 77.7512 8.37605 77.1241 8.0287C76.4971 7.68285 76.0144 7.20468 75.6746 6.59719C75.3347 5.9897 75.1648 5.29048 75.1648 4.49954C75.1648 3.20487 75.5618 2.13424 76.3572 1.28616C77.1527 0.438079 78.1556 0.0140381 79.3661 0.0140381C79.7736 0.0140381 80.2879 0.0862163 80.9119 0.229067C81.2638 0.31177 81.5059 0.353873 81.6397 0.353873C81.8472 0.353873 81.9931 0.268162 82.0758 0.0967414H82.3058Z" fill="black"/>
<path d="M88.6709 3.29204H88.913V5.26789H88.6709C88.5837 4.92204 88.477 4.704 88.3522 4.61679C88.2274 4.52958 87.9552 4.48446 87.5342 4.48446H85.5162V7.39711C85.5162 7.60011 85.5613 7.74296 85.6515 7.82717C85.7418 7.90987 85.8951 7.95197 86.1132 7.95197H87.5342C88.0424 7.95197 88.3943 7.9234 88.5882 7.86927C88.7822 7.81514 88.9461 7.71138 89.0799 7.56101C89.2138 7.41064 89.3566 7.16705 89.51 6.82872H89.7521L89.3777 8.34744H83.5193V8.11136C83.8847 8.11136 84.1298 8.01813 84.2546 7.83017C84.3794 7.64221 84.4426 7.3099 84.4426 6.83473V1.74775C84.4426 1.25304 84.3779 0.913204 84.2486 0.728251C84.1193 0.543297 83.8772 0.450069 83.5208 0.450069V0.213989H89.3792V1.57332H89.2273C89.1446 1.18537 89.0258 0.92824 88.8709 0.800427C88.716 0.674117 88.3792 0.60946 87.862 0.60946H85.5192V4.0905H87.7928C88.1025 4.0905 88.3131 4.03486 88.4273 3.92359C88.5371 3.81232 88.6198 3.6018 88.6709 3.29204Z" fill="black"/>
<path d="M95.0977 0.0967357H95.3263V2.00341H95.0842C95.0285 1.47712 94.8376 1.06511 94.5128 0.768885C94.1865 0.472658 93.776 0.325297 93.2828 0.325297C92.8437 0.325297 92.4903 0.436569 92.2227 0.657611C91.955 0.880157 91.8212 1.17488 91.8212 1.54479C91.8212 1.88763 91.9324 2.19889 92.1535 2.48008C92.376 2.76278 92.8557 3.12516 93.5955 3.56875C94.4556 4.08151 95.033 4.52961 95.3293 4.91305C95.6255 5.29649 95.7729 5.73557 95.7729 6.23028C95.7729 6.86785 95.5473 7.41369 95.0947 7.8663C94.6421 8.31891 94.0978 8.54596 93.4617 8.54596C93.0918 8.54596 92.6211 8.44371 92.0497 8.24072C91.8136 8.15801 91.6648 8.11591 91.6001 8.11591C91.4663 8.11591 91.3625 8.21966 91.2889 8.42868H91.0468V6.23028H91.2889C91.2934 6.83627 91.4904 7.32046 91.8798 7.68585C92.2693 8.05125 92.7249 8.2332 93.2467 8.2332C93.7399 8.2332 94.1353 8.10087 94.4331 7.83773C94.7308 7.57458 94.8797 7.22272 94.8797 6.78214C94.8797 6.45433 94.7579 6.14006 94.5128 5.83932C94.2677 5.53859 93.7564 5.15063 92.979 4.67697C92.3444 4.28601 91.9219 3.97625 91.7099 3.74919C91.4979 3.52214 91.34 3.27403 91.2392 3.00337C91.137 2.7327 91.0874 2.43497 91.0874 2.11168C91.0874 1.48765 91.2919 0.980905 91.7009 0.592954C92.1099 0.205002 92.6422 0.00952148 93.2993 0.00952148C93.6602 0.00952148 94.0526 0.0816997 94.4782 0.22455C94.6767 0.289209 94.815 0.320786 94.8947 0.320786C94.9594 0.320786 95.003 0.307253 95.027 0.278683C95.0451 0.256128 95.0706 0.192972 95.0977 0.0967357Z" fill="black"/>
</svg>
