<svg width="32" height="33" viewBox="0 0 32 33" fill="none" xmlns="http://www.w3.org/2000/svg">
<path d="M26.6667 21.1667C25.0667 21.1667 23.3333 20.9 21.8667 20.3667H21.4667C21.0667 20.3667 20.8 20.5 20.5333 20.7667L17.6 23.7C13.8667 21.7 10.6667 18.6333 8.8 14.9L11.7333 11.9667C12.1333 11.5667 12.2667 11.0333 12 10.6333C11.6 9.16667 11.3333 7.43333 11.3333 5.83333C11.3333 5.16667 10.6667 4.5 10 4.5H5.33333C4.66667 4.5 4 5.16667 4 5.83333C4 18.3667 14.1333 28.5 26.6667 28.5C27.3333 28.5 28 27.8333 28 27.1667V22.5C28 21.8333 27.3333 21.1667 26.6667 21.1667ZM6.66667 7.16667H8.66667C8.8 8.36667 9.06667 9.56667 9.33333 10.6333L7.73333 12.2333C7.2 10.6333 6.8 8.9 6.66667 7.16667ZM25.3333 25.8333C23.6 25.7 21.8667 25.3 20.2667 24.7667L21.8667 23.1667C22.9333 23.4333 24.1333 23.7 25.3333 23.7V25.8333Z" fill="#3A1F09"/>
</svg>
