<svg width="1000" height="1000" viewBox="0 0 1000 1000" fill="none" xmlns="http://www.w3.org/2000/svg">
<g clip-path="url(#clip0_20128_1464)">
<path d="M1000 0H0V1000H1000V0Z" fill="white"/>
<path fill-rule="evenodd" clip-rule="evenodd" d="M401.026 34H549.979V71.2383H512.741V108.477H438.264V182.953H401.026V145.715H363.788V108.477H326.549V71.2383H401.026V34ZM587.218 34H624.456V108.477H661.694V182.953H624.456V145.715H587.218V34ZM549.979 145.715H587.218V182.953H549.979V145.715ZM475.503 182.953H512.741V220.192H549.979V369.145H512.741V331.906H475.503V369.145H438.264V443.621H512.741V480.86H475.503V592.575H512.741V555.336H549.979V629.813H438.264V667.051H289.311V629.813H326.549V592.575H363.788V555.336H438.264V518.098H401.026V480.86H363.788V406.383H401.026V369.145H363.788V331.906H401.026V294.668H438.264V257.43H401.026V220.192H475.503V182.953ZM475.503 257.43H512.741V294.668H475.503V257.43ZM326.549 220.192H363.788V257.43H326.549V220.192ZM587.218 220.192H624.456V443.621H587.218V406.383H549.979V369.145H587.218V220.192ZM363.788 257.43H401.026V294.668H363.788V257.43ZM326.549 294.668H363.788V331.906H326.549V294.668ZM177.596 331.906H252.073V369.145H289.311V406.383H252.073V443.621H214.835V369.145H177.596V331.906ZM289.311 331.906H326.549V369.145H289.311V331.906ZM698.933 331.906H773.409V369.145H885.124V406.383H922.362V369.145H959.601V480.86H885.124V443.621H810.647V406.383H698.933V480.86H661.694V518.098H587.218V480.86H624.456V443.621H661.694V369.145H698.933V331.906ZM885.124 331.906H922.362V369.145H885.124V331.906ZM28.6431 369.145H140.358V406.383H65.8814V592.575H28.6431V369.145ZM289.311 406.383H326.549V443.621H289.311V406.383ZM512.741 406.383H549.979V443.621H512.741V406.383ZM177.596 443.621H214.835V518.098H177.596V555.336H214.835V592.575H140.358V555.336H103.12V518.098H140.358V480.86H177.596V443.621ZM252.073 443.621H289.311V480.86H252.073V443.621ZM773.409 443.621H810.647V480.86H773.409V443.621ZM810.647 480.86H847.886V518.098H922.362V555.336H847.886V592.575H922.362V629.813H810.647V480.86ZM252.073 518.098H289.311V555.336H252.073V518.098ZM661.694 518.098H698.933V555.336H773.409V592.575H661.694V629.813H624.456V741.528H587.218V704.289H512.741V741.528H401.026V778.766H363.788V816.004H326.549V704.289H475.503V667.051H587.218V555.336H661.694V518.098ZM289.311 555.336H326.549V592.575H289.311V555.336ZM922.362 555.336H959.601V592.575H922.362V555.336ZM65.8814 592.575H103.12V629.813H214.835V592.575H289.311V629.813H252.073V667.051H28.6431V629.813H65.8814V592.575ZM661.694 667.051H773.409V778.766H661.694V667.051ZM698.933 704.289H736.171V741.528H698.933V704.289ZM810.647 667.051H847.886V741.528H885.124V816.004H847.886V778.766H810.647V667.051ZM885.124 667.051H922.362V704.289H885.124V667.051ZM512.741 741.528H587.218V778.766H512.741V741.528ZM922.362 741.528H959.601V778.766H922.362V741.528ZM401.026 778.766H475.503V816.004H438.264V927.719H401.026V853.243H363.788V816.004H401.026V778.766ZM587.218 778.766H624.456V816.004H661.694V853.243H587.218V890.481H549.979V816.004H587.218V778.766ZM736.171 816.004H773.409V927.719H736.171V964.958H624.456V927.719H587.218V890.481H661.694V853.243H698.933V890.481H736.171V816.004ZM475.503 853.243H512.741V890.481H475.503V853.243ZM810.647 853.243H847.886V927.719H810.647V853.243ZM922.362 853.243H959.601V927.719H885.124V890.481H922.362V853.243ZM438.264 927.719H512.741V964.958H438.264V927.719Z" fill="black"/>
<path fill-rule="evenodd" clip-rule="evenodd" d="M28.6431 34H289.311V294.668H28.6431V34ZM65.8814 71.2383H252.073V257.43H65.8814V71.2383ZM103.12 108.477H214.835V220.192H103.12V108.477ZM698.933 34H959.601V294.668H698.933V34ZM736.171 71.2383H922.362V257.43H736.171V71.2383ZM773.409 108.477H885.124V220.192H773.409V108.477ZM28.6431 704.289H289.311V964.958H28.6431V704.289ZM65.8814 741.528H252.073V927.719H65.8814V741.528ZM103.12 778.766H214.835V890.481H103.12V778.766Z" fill="black"/>
<rect x="698" y="890" width="273" height="76" fill="white"/>
<path d="M759.337 937.065H749.863C749.175 937.065 748.617 937.623 748.617 938.312V947.786C748.617 948.474 749.175 949.032 749.863 949.032H759.337C760.025 949.032 760.583 948.474 760.583 947.786V938.312C760.583 937.623 760.025 937.065 759.337 937.065Z" fill="#060606"/>
<path opacity="0.91" d="M767.239 918.458L727.77 955.826L710.54 938.596L748.959 900.423L767.239 918.458Z" fill="url(#paint0_linear_20128_1464)"/>
<path d="M756.35 940.308H752.85C752.303 940.308 751.859 940.752 751.859 941.299V944.799C751.859 945.346 752.303 945.789 752.85 945.789H756.35C756.897 945.789 757.341 945.346 757.341 944.799V941.299C757.341 940.752 756.897 940.308 756.35 940.308Z" fill="white"/>
<path d="M765.963 900H750.033C749.155 900 748.443 900.712 748.443 901.589V917.519C748.443 918.397 749.155 919.109 750.033 919.109H765.963C766.841 919.109 767.552 918.397 767.552 917.519V901.589C767.552 900.712 766.841 900 765.963 900Z" fill="#060606"/>
<path d="M763.153 902.81H752.843C751.965 902.81 751.254 903.521 751.254 904.399V914.709C751.254 915.587 751.965 916.298 752.843 916.298H763.153C764.031 916.298 764.743 915.587 764.743 914.709V904.399C764.743 903.521 764.031 902.81 763.153 902.81Z" fill="#F5F5F5"/>
<path d="M760.764 905.254H755.428C754.55 905.254 753.839 905.966 753.839 906.844V912.179C753.839 913.057 754.55 913.769 755.428 913.769H760.764C761.642 913.769 762.353 913.057 762.353 912.179V906.844C762.353 905.966 761.642 905.254 760.764 905.254Z" fill="#060606"/>
<path d="M727.519 900H711.589C710.712 900 710 900.712 710 901.589V917.519C710 918.397 710.712 919.109 711.589 919.109H727.519C728.397 919.109 729.109 918.397 729.109 917.519V901.589C729.109 900.712 728.397 900 727.519 900Z" fill="#060606"/>
<path d="M724.709 902.81H714.399C713.522 902.81 712.81 903.521 712.81 904.399V914.709C712.81 915.587 713.522 916.298 714.399 916.298H724.709C725.587 916.298 726.299 915.587 726.299 914.709V904.399C726.299 903.521 725.587 902.81 724.709 902.81Z" fill="#F5F5F5"/>
<path d="M722.32 905.254H716.984C716.107 905.254 715.395 905.966 715.395 906.844V912.179C715.395 913.057 716.107 913.769 716.984 913.769H722.32C723.198 913.769 723.909 913.057 723.909 912.179V906.844C723.909 905.966 723.198 905.254 722.32 905.254Z" fill="#060606"/>
<path d="M727.519 936.891H711.589C710.712 936.891 710 937.603 710 938.48V954.411C710 955.288 710.712 956 711.589 956H727.519C728.397 956 729.109 955.288 729.109 954.411V938.48C729.109 937.603 728.397 936.891 727.519 936.891Z" fill="#060606"/>
<path d="M724.709 939.701H714.399C713.522 939.701 712.81 940.412 712.81 941.29V951.6C712.81 952.478 713.522 953.189 714.399 953.189H724.709C725.587 953.189 726.299 952.478 726.299 951.6V941.29C726.299 940.412 725.587 939.701 724.709 939.701Z" fill="#F5F5F5"/>
<path d="M722.32 942.146H716.984C716.107 942.146 715.395 942.857 715.395 943.735V949.07C715.395 949.948 716.107 950.66 716.984 950.66H722.32C723.198 950.66 723.909 949.948 723.909 949.07V943.735C723.909 942.857 723.198 942.146 722.32 942.146Z" fill="#060606"/>
<path d="M818.547 910.073V914.111H807.632V944.164H803.592V914.111H792.678V910.073H818.546H818.547Z" fill="black"/>
<path d="M808.756 945.289H802.466V915.236H791.552V908.946H819.671V915.236H808.756V945.289ZM804.716 943.037H806.504V912.985H817.42V911.197H793.802V912.985H804.716V943.037Z" fill="black"/>
<path d="M853.187 944.235L849.924 946.446L847.713 943.934C845.201 945.341 842.087 946.093 838.973 946.093C831.842 946.093 824.759 942.326 824.759 934.892V920.325C824.759 912.892 831.842 909.175 838.973 909.175C846.105 909.175 853.139 912.892 853.139 920.325V934.892C853.139 937.404 852.184 939.714 850.828 941.422L853.189 944.234L853.187 944.235ZM848.115 937.907C848.719 937.052 848.97 936.098 848.97 934.893V920.327C848.97 915.405 843.947 913.295 838.925 913.295C833.953 913.344 828.979 915.505 828.979 920.327V934.893C828.929 939.614 833.951 941.926 838.925 941.926C841.335 941.926 843.195 941.574 845.203 940.57C843.596 938.411 843.293 938.258 841.786 936.25L845.203 934.091L848.115 937.909V937.907Z" fill="black"/>
<path d="M849.725 948L847.438 945.401C844.94 946.61 841.972 947.269 838.972 947.269C831.324 947.269 823.583 943.018 823.583 934.892V920.325C823.583 911.856 831.56 908 838.972 908C846.384 908 854.313 911.856 854.313 920.325V934.892C854.313 937.175 853.611 939.441 852.319 941.371L854.926 944.477L849.725 947.999V948ZM838.973 910.351C832.693 910.351 825.935 913.472 825.935 920.325V934.892C825.935 941.779 832.693 944.917 838.973 944.917C841.925 944.917 844.825 944.202 847.138 942.907L847.968 942.442L850.122 944.89L851.45 943.991L849.31 941.442L849.907 940.69C851.232 939.019 851.962 936.96 851.962 934.891V920.324C851.962 913.47 845.229 910.349 838.972 910.349L838.973 910.351ZM838.923 943.1C835.215 943.1 831.821 941.907 829.844 939.908C828.488 938.537 827.782 936.799 827.802 934.879V920.325C827.802 914.732 833.382 912.173 838.912 912.119C844.51 912.119 850.146 914.655 850.146 920.325V934.892C850.146 936.378 849.806 937.551 849.076 938.585L848.151 939.893L844.92 935.658L843.504 936.553C843.807 936.935 844.058 937.237 844.309 937.538C844.8 938.129 845.293 938.722 846.145 939.867L846.983 940.992L845.727 941.619C843.651 942.657 841.617 943.1 838.923 943.1ZM838.923 914.471C834.884 914.511 830.153 916.068 830.153 920.325V934.892C830.139 936.201 830.597 937.327 831.515 938.254C833.06 939.817 835.829 940.749 838.923 940.749C840.668 940.749 842.039 940.551 843.351 940.085C843.028 939.675 842.764 939.359 842.502 939.042C842.044 938.492 841.588 937.943 840.845 936.954L840.082 935.935L845.484 932.519L847.766 935.508C847.785 935.314 847.795 935.11 847.795 934.891V920.324C847.795 916.003 843.017 914.469 838.925 914.469L838.923 914.471Z" fill="black"/>
<path d="M889.173 944.163H884.221L873.21 930.267H867.969V944.163H863.93V910.119H876.912C883.452 910.119 888.404 913.052 888.548 920.313C888.548 927.092 884.027 929.93 878.21 930.218L889.172 944.162L889.173 944.163ZM876.96 926.517C881.576 926.517 884.509 924.979 884.509 920.315C884.509 915.651 881.384 914.063 876.96 914.16H867.969V926.518H876.96V926.517Z" fill="black"/>
<path d="M891.49 945.289H883.678L872.666 931.392H869.096V945.289H862.806V908.994H876.913C884.881 908.994 889.532 913.112 889.674 920.291C889.674 926.293 886.309 930.149 880.355 931.124L891.49 945.287V945.289ZM884.765 943.037H886.858L875.981 929.202L878.155 929.094C882.382 928.884 887.424 927.191 887.424 920.313C887.274 912.821 881.626 911.244 876.913 911.244H865.056V943.037H866.844V929.141H873.754L884.765 943.037ZM876.96 927.642H866.844V913.034H876.96C879.982 912.979 882.268 913.659 883.732 915.092C884.995 916.327 885.636 918.084 885.636 920.315C885.636 925.178 882.717 927.644 876.961 927.644L876.96 927.642ZM869.094 925.392H876.96C881.523 925.392 883.384 923.92 883.384 920.315C883.384 918.69 882.983 917.509 882.158 916.702C881.144 915.709 879.393 915.226 876.985 915.285H869.094V925.392Z" fill="black"/>
<path d="M910.131 909.317C915.099 909.317 920.117 911.557 922.308 916.232L918.654 918.084C917.046 915.016 913.491 913.408 909.984 913.408C905.551 913.408 901.07 915.6 901.07 920.081V933.72C901.07 938.201 905.551 940.393 909.984 940.393C913.539 940.393 917.095 938.834 918.654 935.766L922.308 937.47C920.067 942.146 914.952 944.484 909.984 944.484C903.506 944.484 896.979 940.88 896.979 933.72V920.081C896.979 912.97 903.554 909.317 910.131 909.317Z" fill="black"/>
<path d="M909.985 945.624C902.955 945.624 895.839 941.534 895.839 933.72V920.081C895.839 912.267 903.028 908.177 910.131 908.177C916.089 908.177 921.152 911.079 923.341 915.749L923.811 916.751L918.168 919.61L917.646 918.614C916.353 916.145 913.345 914.549 909.987 914.549C906.241 914.549 902.212 916.281 902.212 920.081V933.72C902.212 937.521 906.241 939.252 909.987 939.252C913.453 939.252 916.387 937.718 917.641 935.248L918.14 934.266L923.836 936.924L923.338 937.963C921.109 942.616 915.868 945.624 909.988 945.624H909.985ZM910.131 910.458C904.345 910.458 898.12 913.47 898.12 920.083V933.721C898.12 940.334 904.271 943.345 909.985 943.345C914.543 943.345 918.624 941.276 920.72 937.988L919.106 937.236C917.263 939.912 913.874 941.535 909.985 941.535C905.143 941.535 899.932 939.09 899.932 933.722V920.084C899.932 914.716 905.143 912.271 909.985 912.271C913.748 912.271 917.19 913.938 919.075 916.596L920.753 915.745C918.38 911.87 913.808 910.46 910.132 910.46L910.131 910.458Z" fill="black"/>
<path d="M930.559 920.348C930.559 913.004 937.299 909.232 944.039 909.232C949.119 909.232 954.301 911.646 956.615 916.475L952.792 918.286C951.233 915.117 947.51 913.457 943.939 913.457C939.362 913.457 934.734 915.721 934.734 920.348V934.684C934.734 939.412 939.412 941.676 944.039 941.676C948.666 941.676 953.396 939.412 953.396 934.684V931.113H942.882V926.938H957.571V934.684C957.571 942.229 950.831 945.952 944.039 945.952C937.248 945.952 930.559 942.229 930.559 934.684V920.348Z" fill="black"/>
<path d="M944.038 947.006C937.037 947.006 929.502 943.151 929.502 934.684V920.348C929.502 912.357 936.814 908.177 944.038 908.177C950.064 908.177 955.247 911.182 957.565 916.02L958.023 916.976L952.302 919.686L951.843 918.753C950.576 916.178 947.473 914.513 943.937 914.513C940.011 914.513 935.787 916.339 935.787 920.35V934.685C935.787 938.764 940.063 940.623 944.038 940.623C948.012 940.623 952.338 938.766 952.338 934.685V932.169H941.825V925.883H958.623V934.685C958.623 943.152 951.061 947.008 944.037 947.008L944.038 947.006ZM944.038 910.287C938.053 910.287 931.613 913.435 931.613 920.348V934.684C931.613 941.7 938.054 944.897 944.038 944.897C950.022 944.897 956.514 941.701 956.514 934.684V927.992H943.935V930.057H954.449V934.683C954.449 940.212 949.052 942.73 944.038 942.73C939.024 942.73 933.676 940.211 933.676 934.683V920.347C933.676 914.888 938.995 912.401 943.937 912.401C947.86 912.401 951.383 914.144 953.217 916.916L955.157 915.997C952.629 911.81 947.846 910.288 944.037 910.288L944.038 910.287Z" fill="black"/>
</g>
<defs>
<linearGradient id="paint0_linear_20128_1464" x1="719.581" y1="945.385" x2="755.589" y2="912.297" gradientUnits="userSpaceOnUse">
<stop stop-color="white" stop-opacity="0"/>
<stop offset="1" stop-color="#FA1F31"/>
</linearGradient>
<clipPath id="clip0_20128_1464">
<rect width="1000" height="1000" fill="white"/>
</clipPath>
</defs>
</svg>
