<svg width="16" height="17" viewBox="0 0 16 17" fill="none" xmlns="http://www.w3.org/2000/svg">
<path d="M4.63994 0.204102H11.3599C13.9199 0.204102 15.9999 2.2841 15.9999 4.8441V11.5641C15.9999 12.7947 15.5111 13.9749 14.6409 14.8451C13.7707 15.7152 12.5905 16.2041 11.3599 16.2041H4.63994C2.07994 16.2041 -6.10352e-05 14.1241 -6.10352e-05 11.5641V4.8441C-6.10352e-05 3.6135 0.488795 2.4333 1.35896 1.56313C2.22913 0.692957 3.40933 0.204102 4.63994 0.204102ZM4.47994 1.8041C3.71612 1.8041 2.98358 2.10753 2.44347 2.64763C1.90337 3.18774 1.59994 3.92028 1.59994 4.6841V11.7241C1.59994 13.3161 2.88794 14.6041 4.47994 14.6041H11.5199C12.2838 14.6041 13.0163 14.3007 13.5564 13.7606C14.0965 13.2205 14.3999 12.4879 14.3999 11.7241V4.6841C14.3999 3.0921 13.1119 1.8041 11.5199 1.8041H4.47994ZM12.1999 3.0041C12.4652 3.0041 12.7195 3.10946 12.907 3.29699C13.0946 3.48453 13.1999 3.73889 13.1999 4.0041C13.1999 4.26932 13.0946 4.52367 12.907 4.71121C12.7195 4.89874 12.4652 5.0041 12.1999 5.0041C11.9347 5.0041 11.6804 4.89874 11.4928 4.71121C11.3053 4.52367 11.1999 4.26932 11.1999 4.0041C11.1999 3.73889 11.3053 3.48453 11.4928 3.29699C11.6804 3.10946 11.9347 3.0041 12.1999 3.0041ZM7.99994 4.2041C9.06081 4.2041 10.0782 4.62553 10.8284 5.37567C11.5785 6.12582 11.9999 7.14324 11.9999 8.2041C11.9999 9.26497 11.5785 10.2824 10.8284 11.0325C10.0782 11.7827 9.06081 12.2041 7.99994 12.2041C6.93907 12.2041 5.92166 11.7827 5.17151 11.0325C4.42137 10.2824 3.99994 9.26497 3.99994 8.2041C3.99994 7.14324 4.42137 6.12582 5.17151 5.37567C5.92166 4.62553 6.93907 4.2041 7.99994 4.2041ZM7.99994 5.8041C7.36342 5.8041 6.75297 6.05696 6.30288 6.50705C5.8528 6.95713 5.59994 7.56758 5.59994 8.2041C5.59994 8.84062 5.8528 9.45107 6.30288 9.90116C6.75297 10.3512 7.36342 10.6041 7.99994 10.6041C8.63646 10.6041 9.24691 10.3512 9.697 9.90116C10.1471 9.45107 10.3999 8.84062 10.3999 8.2041C10.3999 7.56758 10.1471 6.95713 9.697 6.50705C9.24691 6.05696 8.63646 5.8041 7.99994 5.8041Z" fill="#7F5539"/>
</svg>
