<svg width="16" height="17" viewBox="0 0 16 17" fill="none" xmlns="http://www.w3.org/2000/svg">
<path d="M7.20004 0.204102V5.3353C6.09229 5.1297 4.94809 5.27055 3.92326 5.73864C2.89844 6.20674 2.0428 6.97934 1.47287 7.95122C0.902948 8.92311 0.646436 10.047 0.73827 11.17C0.830104 12.2929 1.26582 13.3602 1.98608 14.2266C2.70635 15.0929 3.67614 15.7163 4.76341 16.0116C5.85067 16.307 7.00255 16.2601 8.06217 15.8772C9.1218 15.4944 10.0377 14.7942 10.6851 13.8721C11.3324 12.95 11.6799 11.8508 11.68 10.7241V7.7353C12.54 8.10101 13.4655 8.28773 14.4 8.2841H15.2V3.8041H14.4C12.8776 3.8041 11.68 2.5745 11.68 1.0041V0.204102H7.20004ZM8.80004 1.8041H10.1504C10.4656 3.5801 11.8144 5.0009 13.6 5.3321V6.6265C12.7696 6.5049 12.02 6.1929 11.3256 5.7281L10.08 4.8945V10.7241C10.08 11.5 9.84727 12.2581 9.412 12.9004C8.97673 13.5427 8.35889 14.0397 7.63826 14.3273C6.91764 14.6149 6.12733 14.6799 5.36942 14.5138C4.61151 14.3477 3.92081 13.9582 3.38652 13.3955C2.85223 12.8329 2.49889 12.123 2.37215 11.3575C2.24541 10.5921 2.35108 9.80616 2.67552 9.10135C2.99995 8.39654 3.52825 7.80519 4.19218 7.40367C4.85611 7.00215 5.62517 6.80891 6.40004 6.8489V8.1321C5.87881 8.09189 5.35757 8.20973 4.90434 8.47025C4.45111 8.73077 4.08693 9.12187 3.85935 9.5925C3.63176 10.0631 3.55134 10.5914 3.62856 11.1085C3.70579 11.6255 3.93708 12.1073 4.29226 12.4909C4.64743 12.8744 5.10999 13.1421 5.61957 13.2588C6.12915 13.3755 6.66208 13.3359 7.1488 13.1451C7.63552 12.9543 8.05344 12.6213 8.348 12.1894C8.64256 11.7575 8.8001 11.2469 8.80004 10.7241V1.8041ZM5.20004 10.7241C5.20004 10.4589 5.30539 10.2045 5.49293 10.017C5.68047 9.82946 5.93482 9.7241 6.20004 9.7241C6.46525 9.7241 6.71961 9.82946 6.90714 10.017C7.09468 10.2045 7.20004 10.4589 7.20004 10.7241C7.20004 10.9893 7.09468 11.2437 6.90714 11.4312C6.71961 11.6187 6.46525 11.7241 6.20004 11.7241C5.93482 11.7241 5.68047 11.6187 5.49293 11.4312C5.30539 11.2437 5.20004 10.9893 5.20004 10.7241Z" fill="#7F5539"/>
</svg>
