<svg width="54" height="54" viewBox="0 0 54 54" fill="none" xmlns="http://www.w3.org/2000/svg">
<path d="M20.3333 28.6667L25.3333 33.6667L33.6666 22M47 27C47 29.6264 46.4827 32.2272 45.4776 34.6537C44.4725 37.0802 42.9993 39.285 41.1421 41.1421C39.2849 42.9993 37.0802 44.4725 34.6536 45.4776C32.2271 46.4827 29.6264 47 27 47C24.3735 47 21.7728 46.4827 19.3463 45.4776C16.9198 44.4725 14.715 42.9993 12.8578 41.1421C11.0007 39.285 9.52747 37.0802 8.52238 34.6537C7.51728 32.2272 6.99997 29.6264 6.99997 27C6.99997 21.6957 9.10711 16.6086 12.8578 12.8579C16.6086 9.10714 21.6956 7 27 7C32.3043 7 37.3914 9.10714 41.1421 12.8579C44.8928 16.6086 47 21.6957 47 27Z" stroke="#FAF1E9" stroke-width="2.66667" stroke-linecap="round" stroke-linejoin="round"/>
</svg>
