<svg width="54" height="54" viewBox="0 0 54 54" fill="none" xmlns="http://www.w3.org/2000/svg">
<path d="M45.3334 31.7778V41.2222C45.3334 43.6533 43.5845 45.7467 41.1734 46.0667C36.5357 46.6822 31.8045 47 27.0001 47C22.1957 47 17.4645 46.6822 12.8268 46.0667C10.4156 45.7467 8.66676 43.6533 8.66676 41.2222V31.7778M45.3334 31.7778C45.8611 31.3192 46.2833 30.7519 46.571 30.1147C46.8587 29.4776 47.0051 28.7857 47.0001 28.0867V19.68C47.0001 17.2778 45.2934 15.2022 42.9179 14.8467C40.4008 14.4698 37.871 14.183 35.3334 13.9867M45.3334 31.7778C44.9023 32.1444 44.4001 32.4333 43.8379 32.6222C38.4072 34.4241 32.7218 35.3395 27.0001 35.3333C21.1157 35.3333 15.4556 34.38 10.1623 32.6222C9.614 32.4398 9.10615 32.1531 8.66676 31.7778M8.66676 31.7778C8.13908 31.3192 7.71689 30.7519 7.4292 30.1147C7.14151 29.4776 6.99512 28.7857 7.00009 28.0867V19.68C7.00009 17.2778 8.70676 15.2022 11.0823 14.8467C13.5994 14.4698 16.1292 14.183 18.6668 13.9867M35.3334 13.9867V12C35.3334 10.6739 34.8066 9.40215 33.869 8.46447C32.9313 7.52678 31.6595 7 30.3334 7H23.6668C22.3407 7 21.0689 7.52678 20.1312 8.46447C19.1935 9.40215 18.6668 10.6739 18.6668 12V13.9867M35.3334 13.9867C29.7861 13.558 24.214 13.558 18.6668 13.9867M27.0001 28.6667H27.0179V28.6844H27.0001V28.6667Z" stroke="#FAF1E9" stroke-width="2.66667" stroke-linecap="round" stroke-linejoin="round"/>
</svg>
