<svg width="54" height="54" viewBox="0 0 54 54" fill="none" xmlns="http://www.w3.org/2000/svg">
<path d="M45.3333 19.2466C47.2977 19.8777 48.6666 21.7533 48.6666 23.9066V33.4311C48.6666 35.9555 46.7844 38.0977 44.2666 38.3044C43.5111 38.3644 42.7555 38.4199 41.9999 38.4644V45.3333L35.3333 38.6666C32.3244 38.6666 29.3466 38.5444 26.3999 38.3044C25.7585 38.2525 25.1345 38.0695 24.5666 37.7666M45.3333 19.2466C44.9899 19.1361 44.635 19.0653 44.2755 19.0355C38.3243 18.5415 32.3423 18.5415 26.3911 19.0355C23.8777 19.2444 21.9999 21.3844 21.9999 23.9066V33.4311C21.9999 35.2911 23.0222 36.9422 24.5666 37.7666M45.3333 19.2466V15.0822C45.3333 11.4799 42.7733 8.35772 39.1999 7.89328C34.6018 7.29726 29.9699 6.99886 25.3333 6.99994C20.6333 6.99994 16.0044 7.30439 11.4666 7.89328C7.89328 8.35772 5.33328 11.4799 5.33328 15.0822V28.9177C5.33328 32.5199 7.89328 35.6422 11.4666 36.1066C12.7488 36.2733 14.0377 36.4177 15.3333 36.5377V46.9999L24.5666 37.7666" stroke="#FAF1E9" stroke-width="2.66667" stroke-linecap="round" stroke-linejoin="round"/>
</svg>
