<svg width="54" height="54" viewBox="0 0 54 54" fill="none" xmlns="http://www.w3.org/2000/svg">
<path d="M43.6667 32V26.1666C43.6667 24.1775 42.8765 22.2699 41.47 20.8633C40.0635 19.4568 38.1558 18.6666 36.1667 18.6666H32.8333C32.1703 18.6666 31.5344 18.4033 31.0656 17.9344C30.5967 17.4656 30.3333 16.8297 30.3333 16.1666V12.8333C30.3333 10.8442 29.5432 8.93653 28.1366 7.53001C26.7301 6.12349 24.8225 5.33331 22.8333 5.33331H18.6667M18.6667 33.6666H35.3333M18.6667 40.3333H27M23.6667 5.33331H12.8333C11.4533 5.33331 10.3333 6.45331 10.3333 7.83331V46.1666C10.3333 47.5466 11.4533 48.6666 12.8333 48.6666H41.1667C42.5467 48.6666 43.6667 47.5466 43.6667 46.1666V25.3333C43.6667 20.029 41.5595 14.9419 37.8088 11.1912C34.0581 7.44045 28.971 5.33331 23.6667 5.33331Z" stroke="#FAF1E9" stroke-width="2.66667" stroke-linecap="round" stroke-linejoin="round"/>
</svg>
